<?xml version="1.0" encoding="utf-8" ?>
<svg baseProfile="full" height="300mm" version="1.1" viewBox="0,0,200,300" width="200mm" xmlns="http://www.w3.org/2000/svg" xmlns:ev="http://www.w3.org/2001/xml-events" xmlns:xlink="http://www.w3.org/1999/xlink"><defs /><rect fill="#222222" height="300" width="200" x="0" y="0" /><text fill="#FFFFFF" style="font-size:12px; font-family:Arial; font-weight:bold;" x="10" y="20">Over 10km Runs</text><text fill="#FFFFFF" style="font-size:4px; font-family:Arial" x="10" y="280">ATHLETE</text><text fill="#FFFFFF" style="font-size:9px; font-family:Arial" x="10" y="290">Zongbin Tu</text><text fill="#FFFFFF" style="font-size:4px; font-family:Arial" x="120" y="280">STATISTICS</text><text fill="#FFFFFF" style="font-size:3px; font-family:Arial" x="120" y="285">Number: 7</text><text fill="#FFFFFF" style="font-size:3px; font-family:Arial" x="120" y="290">Weekly: 1.0</text><text fill="#FFFFFF" style="font-size:3px; font-family:Arial" x="141" y="285">Total: 78.0 km</text><text fill="#FFFFFF" style="font-size:3px; font-family:Arial" x="141" y="290">Avg: 11.1 km</text><text fill="#FFFFFF" style="font-size:3px; font-family:Arial" x="167" y="285">Min: 10.1 km</text><text fill="#FFFFFF" style="font-size:3px; font-family:Arial" x="167" y="290">Max: 15.5 km</text><polyline fill="none" points="67.0,70.16569360918947 66.78749453433556,70.23363989147765 66.48054219502956,70.30158613994718 66.14997813728405,70.38312159347697 65.84302579797804,70.39671083101712 65.59510275465436,70.39671083101712 65.24092697858578,70.34235387278022 64.94578049844131,70.22005063774122 64.63882815919351,70.08415802587115 64.32006996060954,69.94826527882833 64.001311762142,69.73083660234988 63.70616528199753,69.5269969037472 63.43463052029256,69.3231569009804 63.22212505468633,69.11931659399124 62.9860078705824,68.99701226378966 62.761696545698214,68.8882972116553 62.454744206334,68.77958207305346 62.11237428948516,68.65727743858588 61.71097507653758,68.52138327191642 61.4630520332139,68.39907840627711 61.21512898989022,68.11369996056601 60.93178836902371,67.8147314255184 60.74289462174056,67.47499365953263 60.56580673373537,67.20320283825276 60.40052470489172,66.91782189384685 60.18801923916908,66.61885074105521 59.95190205506515,66.37423749292793 59.66856143419864,66.19757209678937 59.36160909489263,65.99372712502372 59.04285089636687,65.73552305730118 58.72409269778291,65.54526711611834 58.41714035853511,65.34142117071315 58.12199387839064,65.13757492108562 57.80323567992309,64.89295901989681 57.53170091821812,64.66193248868512 57.26016615651315,64.37654623408162 57.024048972467426,64.06397965201177 56.81154350674478,63.805771935891244 56.622649759519845,63.54756373161217 56.42195015307516,63.221405302072526 56.221250546572264,62.89524609358341 56.00874508084962,62.56908610611572 55.81985133362468,62.297285521548474 55.60734586796025,62.02548439599923 55.383034543076064,61.712912432907615 55.19414079579292,61.41392988564621 55.01705290778773,61.14212700196367 54.816353301284835,60.843143205100205 54.65107127238298,60.516978316474706 54.47398338437779,60.217993150887196 54.296895496256184,59.864646202127915 54.17883690423332,59.56565960832813 54.03716659382917,59.30744338686054 53.81285526888678,59.03563631043653 53.67118495842442,58.736647901459946 53.52951464802027,58.4104779814661 53.39965019677766,58.15225957558141 53.22256230871426,57.8260882597242 53.05728027987061,57.56786874876707 52.84477481414797,57.29605820974393 52.70310450368561,57.01065656141145 52.52601661568042,56.73884491319768 52.37254044599831,56.453442100202665 52.20725841715466,56.195219993504 52.03017052903306,55.92340672206774 51.888500218628906,55.624411498516565 51.69960647134576,55.33900635619648 51.53432444250211,55.09437290222559 51.32181897677947,54.876920575261465 51.14473108877428,54.63228629344667 50.8968080454506,54.38765157329908 50.69610843900591,54.15660726853821 50.48360297328327,53.925562572752824 50.25929164845729,53.653744783077855 50.02317446435336,53.43629016174236 49.73983384342864,53.23242613968614 49.56274595542345,52.96060697011126 49.33843463048106,52.67519625964633 49.14954088325612,52.38978495261108 48.925229558430146,52.17232831819274 48.63008307822747,51.94128026464023 48.37035417574225,51.77818728555576 48.110625273315236,51.628685216928716 47.78006121556973,51.45200074296736 47.48491473548347,51.302498317105346 47.2133799737785,51.13940457497665 46.96545693051303,50.908354773462634 46.7057280279696,50.69089577950945 46.481416703085415,50.473436439278885 46.24529951898148,50.24238551070448 45.98557061655447,50.02492545603309 45.7140358548495,49.875421467542765 45.40708351548528,49.712326020598994 45.18277219065931,49.53563906661293 44.934849147335626,49.35895188394352 44.62789680802962,49.263812537057674 44.30913860956207,49.155081773671554 43.95496283337707,49.08712500258116 43.61259291647002,49.019168197672116 43.29383471800247,48.869663107790984 42.92785308265593,48.706566459382884 42.52645386970835,48.502695374860195 42.21950153040234,48.36678114940878 41.93616090953583,48.25804967164004 41.581985133409034,48.16290955753357 41.29864451242611,48.12213520258956 40.96808045473881,48.067769377084915 40.625710537831765,47.99981206477969 40.28334062086651,47.93185471862671 40.02361171838129,47.945446190584335 39.74027109751478,47.97262913038139 39.44512461737031,47.97262913038139 39.12636641890276,47.945446190584335 38.77219064271776,47.99981206477969 38.406209007429425,47.97262913038139 38.06383909046417,47.98622059824993 37.74508089205483,48.026994993764674 37.39090511586983,48.040586456249 37.013117621361744,48.08136083550926 36.6707477044547,48.13572665560059 36.3165719283279,48.271641111088684 35.93878443376161,48.421146855849656 35.608220376074314,48.57065243690158 35.24223874072777,48.692975063226186 34.911674682982266,48.7609320305055 34.51027547009289,48.924028613982955 34.17971141234739,49.04635092365788 33.90817665064242,49.18226447261986 33.56580673373537,49.31817788623448 33.27066025364911,49.45409116455994 32.98731963272439,49.61718691996066 32.71578487101942,49.83464762408403 32.46786182775395,50.0656992426666 32.21993878443027,50.323932941872044 31.995627459604293,50.52780130680185 31.75951027550036,50.758851752310875 31.48797551379539,50.89476359647233 31.22824661131017,51.044266468757996 30.94490599038545,51.220951470400905 30.6261477919179,51.35686285456177 30.295583734172396,51.465591864456655 29.976825535704847,51.57432078772399 29.69348491472192,51.68304962448019 29.39833843469387,51.84614271718601 29.1268036729889,52.03641774581047 28.87888062966522,52.32182979155914 28.654569304781035,52.59365023281134 28.43025797995506,52.85187915075221 28.253170091833454,53.09651662252145 28.005247048509773,53.341153656016104 27.73371228686301,53.59938116019475 27.4503716659965,53.81683552180766 27.16703104507178,54.04788040157291 26.848272846546024,54.197379821300274 26.63576738088159,54.37406074265891 26.36423261917662,54.49637816968607 26.05728027987061,54.618695487166406 25.66768692614278,54.618695487166406 25.207258417154662,54.63228629344667 24.82947092264658,54.63228629344667 24.463489287300035,54.70024030460627 24.180148666433524,54.82255743938731 23.920419763948303,55.01282832020661 23.660690861404873,55.230280430812854 23.4127678181394,55.46132291882532 23.223874070856255,55.719546413383796 23.070397901232354,56.059313425445 22.905115872388706,56.35830769666063 22.775251421146095,56.65730131320015 22.668998688284773,56.99706599183264 22.515522518602666,57.29605820974393 22.362046348978765,57.66300230959314 22.17315260169562,57.98917401503422 21.960647136031184,58.28816406062106 21.724529951927252,58.51920137470006 21.452995190222282,58.8181902597571 21.216878006176557,59.14435920592223 20.968954962852877,59.42975639470387 20.721031919587404,59.70156268666324 20.579361609125044,60.027729522873415 20.449497157882433,60.29953462461708 20.343244425021112,60.612109822788625 20.296020988200326,60.96545483745285 20.142544818576425,61.25084822035569 19.977262789732777,61.549831124648335 19.82378662005067,61.848813374337624 19.67031045042677,62.1206148515048 19.50502842158312,62.40600582030311 19.25710537825944,62.664216182922246 18.98557061655447,62.93601603721618 18.643200699647423,63.139865572957206 18.28902492352063,63.33012486512598 17.98207258421462,63.50679397050408 17.6987319632899,63.7242325557163 17.42719720164314,63.887311267419136 17.14385658071842,64.09115938319883 16.919545255834237,64.30859703796159 16.7070397901698,64.56680380342004 16.47092260606587,64.89295901989681 16.31744643638376,65.19193395071488 16.211193703580648,65.51808767429611 16.152164407540113,65.83065092850302 16.05771753389854,66.14321346741053 15.939658941875678,66.49654417175043 15.797988631413318,66.7819259964599 15.644512461789418,67.09448635832814 15.432006996124983,67.37986693361017 15.21950153040234,67.67883642054221 14.995190205576364,67.9506262953073 14.747267162252683,68.24959453289921 14.49934411898721,68.50779384783527 14.286838653322775,68.7931714700535 14.08613904681988,69.10572722939833 13.897245299536735,69.37751426479372 13.731963270693086,69.67647937910806 13.590292960230727,70.01621166925179 13.448622649826575,70.34235387278022 13.330564057745505,70.66849529759202 13.25972890254343,70.98104676560615 13.200699606502894,71.25283006952668 13.11805859208107,71.51102370735316 13.106252732861321,71.87792961628293 13.11805859208107,72.13612207250844 13.059029296040535,72.13612207250844 13.0,71.82357324751501 13.023611718439497,71.52461283263983 13.070835155260283,71.15770597467781 13.12986445124261,70.80438732811308 13.236117184103932,70.43747853544482 13.377787494566292,70.05697948727175 13.578487101069186,69.67647937910806 13.731963270693086,69.39110360237828 13.861827721935697,69.09213786343753 14.038915609999094,68.82035026012454 14.25142107566353,68.54856211604783 14.452120682166424,68.29036287822237 14.641014429391362,68.07293156252126 14.841714035894256,67.8554999006592 15.030607783177402,67.61088886734797 15.231307389622089,67.32550877478207 15.432006996124983,67.04012808590778 15.585483165748883,66.76833639925462 15.727153476211242,66.49654417175043 15.845212068292312,66.19757209678937 15.927853082655929,65.87141999590676 16.022299956297502,65.49090822708968 16.140358548378572,65.13757492108562 16.222999562800396,64.8657794482715 16.376475732482504,64.60757324806764 16.58898119808873,64.36295639757009 16.789680804591626,64.14551882934757 17.061215566296596,63.928080914891325 17.30913860956207,63.73782245577604 17.55706165288575,63.56115364925063 17.81679055537097,63.41166448061995 18.12374289467698,63.234995252176304 18.359860078780912,63.11268565244973 18.584171403606888,62.93601603721618 18.84390030609211,62.70498619557475 19.08001749019604,62.487545987576596 19.316134674299974,62.22933529087459 19.51683428074466,61.998304253735114 19.693922168808058,61.712912432907615 19.871010056871455,61.41392988564621 19.989068648894317,61.074176196503686 20.09532138175564,60.70724126283312 20.201574114558753,60.381076049641706 20.343244425021112,60.06850032262446 20.48491473554168,59.72874328610487 20.709226060367655,59.348214401630685 20.921731526090298,59.11717849015258 21.16965456935577,58.80459987009817 21.405771753401496,58.60074386281485 21.653694796725176,58.4104779814661 21.86620026238961,58.13866911966761 22.078705728054047,57.9348121182702 22.196764320135117,57.64941180498863 22.31482291209977,57.35042036080267 22.421075644961093,57.06501882612065 22.562745955423452,56.73884491319768 22.657192829065025,56.43985147519561 22.822474857908674,56.195219993504 22.97595102759078,55.89622536514071 23.082203760393895,55.63800220467965 23.27109750767704,55.352597090779454 23.483602973341476,55.10796366119757 23.743331875884905,54.93128368948237 24.00306077831192,54.741012695012614 24.310013117617927,54.57792306016199 24.65238303458318,54.45560570618545 24.94752951466944,54.414833230533986 25.289899431576487,54.37406074265891 25.620463489321992,54.346879077347694 25.868386532645673,54.31969740660861 26.18714473111322,54.25174320608494 26.517708788858727,54.14301641487691 26.75382597290445,54.00710780410736 27.001749016169924,53.85760817602568 27.273283777874894,53.68092658641399 27.59204197640065,53.43629016174236 27.816353301284835,53.205244247074006 28.005247048509773,52.919834048021585 28.217752514232416,52.71596925484482 28.43025797995506,52.512104157256545 28.630957586399745,52.2946477176738 28.784433756023645,52.022826681131846 29.00874508090783,51.84614271718601 29.256668124173302,51.68304962448019 29.563620463537518,51.54713856505987 29.917796239606105,51.38404511513363 30.26016615651315,51.24813375805388 30.602536073478404,51.15299572760705 30.92129427200416,51.017084140505176 31.204634892870672,50.881172418172355 31.4643637954141,50.69089577950945 31.724092697899323,50.487027658178704 31.995627459604293,50.24238551070448 32.24355050281156,49.984151657205075 32.47966768691549,49.753099900641246 32.72759073023917,49.54923037890694 33.01093135110568,49.37254321384535 33.3178836904699,49.19585582008585 33.63664188893745,49.059942284671706 33.955400087463204,48.924028613982955 34.33318758197129,48.78811480794684 34.71097507653758,48.692975063226186 35.01792741584359,48.543469616168295 35.301268036768306,48.40755543128762 35.620026235235855,48.285232549213106 35.915172715322115,48.17650100645551 36.21031919546658,48.05417791733635 36.481853957113344,47.95903766115953 36.78880629647756,47.90467177069513 37.131176213384606,47.87748881736479 37.426322693470865,47.86389733866963 37.72146917361533,47.83671437721932 38.04022737208288,47.79593992483569 38.382597289048135,47.75516546034487 38.68954962835414,47.76875694989576 39.04372540442273,47.78234843804967 39.3388718845672,47.78234843804967 39.69304766069399,47.78234843804967 40.07083515526028,47.78234843804967 40.43681679060683,47.80953141034115 40.79099256673362,47.86389733866963 41.13336248358246,47.891080294692074 41.36947966768639,48.040586456249 41.78268473985372,48.12213520258956 42.10144293837948,48.21727534511592 42.39658941846574,48.271641111088684 42.703541757771745,48.36678114940878 43.0222999562975,48.48910395844723 43.376475732424296,48.665792266852804 43.7070397901698,48.73374924765085 44.0376038478571,48.82888896398072 44.34455618716311,48.937619987118524 44.71053782250965,49.019168197672116 45.0292960209772,49.14149042216013 45.33624836028321,49.25022119632922 45.631394840427674,49.41331719527079 45.926541320513934,49.61718691996066 46.198076082218904,49.86183018771408 46.469610843923874,50.12006427257438 46.729339746409096,50.36470663922955 46.96545693051303,50.59575736075931 47.272409269819036,50.826807691322756 47.567555749905296,51.017084140505176 47.88631394843105,51.20736032453715" stroke="#4dd2ff" stroke-linecap="round" stroke-linejoin="round" stroke-width="0.5"><title>2024-02-06 10.3km</title><desc>6661707206283010260</desc></polyline><polyline fill="none" points="160.21033238776727,86.12435918323172 160.33539488865063,85.82376472861506 160.4490880712401,85.66693256769213 160.57415057212347,85.4578227300517 160.7105823912425,85.18336556581198 160.76742898247903,84.9350466876931 160.80153693730244,84.68672734269057 160.8924914833624,84.41226857612492 161.0402926207753,84.12473973273882 161.15398580330657,83.9156274535053 161.27904830413172,83.62809752895555 161.4041108050733,83.4320540397166 161.56328126072185,83.17066226800671 161.71108239807654,82.90926997901988 161.82477558066603,82.60866820708907 161.92709944501985,82.36034448814462 162.02942330931546,82.07281117768434 162.14311649196316,81.81141671583464 162.24544035625877,81.51081244513625 162.37050285714213,81.23634707866586 162.47282672143774,80.96188114178949 162.55241194926202,80.6743447866902 162.67747445008717,80.36066804884467 162.76842899620533,80.09927019820316 162.87075286050094,79.83787183018285 162.9958153613843,79.60261285661545 163.09813922573812,79.34121350556961 163.2118324083276,79.07981363708677 163.33689490915276,78.76613311193069 163.45058809174225,78.5308722290938 163.5756505926256,78.29561092716176 163.71208241174463,78.04727909821668 163.7916676395689,77.83815719581617 163.95083809515927,77.55061403935542 164.0872699143365,77.27614044227812 164.23507105163299,77.00166627470753 164.371502870752,76.74026177522319 164.49656537163537,76.4657864938199 164.61025855422486,76.25666208703478 164.72395173681434,75.99525611277204 164.79216764640296,75.81227162289724 164.83764491940383,75.59007582996855 164.9172301472281,75.3286685361818 164.9968153750524,75.09340152927325 165.11050855764188,74.80585239604989 165.20146310370183,74.5705844576587 165.25830969499657,74.26996370418055 165.38337219587993,73.96934226626763 165.45158810541034,73.69486122525996 165.50843469670508,73.42037961364258 165.55391196976416,73.13282683715806 165.59938924276503,72.88448529895686 165.65623583405977,72.5969313554524 165.71308242541272,72.29630610854656 165.74719038017793,72.07410439918749 165.71308242541272,71.82576086977497 165.66760515235364,71.57741687321686 165.69034378882498,71.30293085995072 165.69034378882498,70.97616105245834 165.69034378882498,70.66246127647173 165.71308242541272,70.32261901145102 165.74719038017793,70.0612012892816 165.74719038017793,69.74749933941348 165.7585596984136,69.4599385640031 165.92909947235603,68.95017019555962 165.95183810888557,68.67567872039217 165.95183810888557,68.37504454515874 165.92909947235603,68.08748078052304 165.89499151753262,67.78684526593133 165.87225288100308,67.51235137216281 165.88362219923874,67.2117145479715 165.88362219923874,66.95029066610732 165.8608835627674,66.70193749888858 165.8608835627674,66.44051260758715 165.84951424453175,66.16601591461222 165.8267756080022,65.90458996205416 165.81540628970833,65.65623482770752 165.80403697147267,65.39480786571221 165.78129833494313,65.13338038604707 165.80403697147267,64.85888097525458 165.81540628970833,64.57130955171306 165.81540628970833,64.28373750181345 165.76992901670747,63.99616482546844 165.71308242541272,63.76087762437237 165.66760515235364,63.51251845709339 165.63349719758844,63.23801567601913 165.6107585610589,62.97658392525045 165.5766506062937,62.71515165673918 165.55391196976416,62.45371887049987 165.5425426515285,62.179213887720834 165.50843469670508,61.93085174479347 165.47432674193988,61.66941740529728 165.4288494688808,61.39491079158324 165.40611083240947,61.107331822102424 165.38337219587993,60.780536778169335 165.3606335593504,60.47988462318608 165.31515628634952,60.20537553583563 165.2810483315261,59.957009679157636 165.23557105846703,59.682499504473526 165.1787244671723,59.38184484852536 165.08776992111234,59.14654942275956 165.04229264805326,58.898181573851616 165.01955401158193,58.63674122806697 164.97407673852285,58.37530036442331 164.95133810199331,58.02235437712807 164.90586082899245,57.7609122965805 164.86038355593337,57.48639755466138 164.79216764640296,57.2249544125516 164.71258241857868,56.963510752582806 164.64436650899006,56.71513879598933 164.56478128116578,56.46676637197379 164.47382673510583,56.21839348062349 164.3373949159868,55.996164707961725 164.21233241516165,55.747790931054624 164.11000855080783,55.49941668672545 163.9735767316888,55.29025906583411 163.80303695780458,55.06802873050037 163.65523582039168,54.8588704259746 163.49606536480132,54.64971179005806 163.33689490915276,54.440552822634345 163.12087786220945,54.25753845425788 162.9617074066191,54.08759631351859 162.82527558750007,53.917653953962144 162.67747445008717,53.7346388605074 162.4841960396734,53.59084110904951 162.3022869475535,53.43397065605677 162.14311649196316,53.26402745487576 161.96120739972685,53.08101145506953 161.77929830760695,52.924140396062285 161.60875853372272,52.74112392493407 161.42684944160283,52.55810720000591 161.27904830413172,52.37509022129234 161.08576989377616,52.21821832322166 160.91523011989193,52.0613462387264 160.69921307294862,51.891401270069764 160.50593466253486,51.69531064975308 160.32402557041496,51.4730742610991 160.17622443306027,51.290055777702946 160.00568465911783,51.120109815878095 159.8351448852336,50.924018049554434 159.59638920176076,50.66256190784043 159.403110791347,50.42725093745685 159.23257101746276,50.244231003758614 159.0392926071072,49.995846402001916 158.90286078798817,49.747461332779494 154.3210255294107,45.02805618869024 154.2073323468212,44.766588365266216 154.10500848246738,44.544340307984385 153.96857666334836,44.26979807339376 153.94583802687703,44.02140222606249 153.93446870858315,43.75993240792013 153.9230993903475,43.52460912865354 153.93446870858315,43.289285429680604 153.95720734505448,43.0408877365262 153.95720734505448,42.75326877080079 154.00268461811356,42.49179643979005 154.01405393640744,42.269544550959836 154.03679257293697,42.00807126137079 154.07090052770218,41.73352374960086 154.07090052770218,41.48512312765524 154.07090052770218,41.24979579128558 154.08226984593784,40.988320480828406 154.08226984593784,40.752992258392624 154.11637780076126,40.530737440654775 154.12774711899692,40.25618685486552 154.1391164372908,39.99470957531594 154.15048575546825,39.75937958066061 154.15048575546825,39.497901316557545 154.21870166505687,39.26257043579244 154.25280961982207,39.00109118707769 154.23007098335074,38.73961142016924 154.26417893811595,38.47813113502343 154.25280961982207,38.190502222816576 154.28691757458728,37.95516901007795 154.28691757458728,37.74598357970535 154.28691757458728,37.49757545028115 154.25280961982207,37.23609270354791 154.23007098335074,36.93538690410787 154.21870166505687,36.70005145252799 154.21870166505687,36.490864032064565 154.18459371023346,36.242453539409325 154.15048575546825,35.941745475138305 154.19596302852733,35.66718533965468 154.23007098335074,35.36647596411058 154.25280961982207,35.10498899348022 154.21870166505687,34.88272466095805 154.15048575546825,34.62123673147289 154.12774711899692,34.346673847714555 154.10500848246738,34.03288699507539 154.10500848246738,33.7844718741253 154.0936391641735,33.522981767731835 154.16185507376213,33.28764022886753 154.19596302852733,33.03922370453074 154.2073323468212,33.09152195905335 154.21870166505687,33.31378930948267 154.2073323468212,33.53605628538935 154.2073323468212,33.82369534538884 154.23007098335074,34.05903592801769 154.21870166505687,34.32052497184486 154.19596302852733,34.555864668102004 154.2073323468212,34.804278336523566 154.2755482563516,35.01346843132342 154.33239484770456,35.26188123805332 154.36650280246977,35.49721925510676 154.29828689288115,35.784854039084166 154.30965621111682,36.12478524807375 154.3892414389411,36.412418663850985 154.3892414389411,36.765422453405336 154.3892414389411,37.01383196131792 154.3892414389411,37.288389294364606 154.37787212064723,37.5498719374591 154.41198007547064,37.83750224630057 154.40061075717676,38.1382059896132 154.36650280246977,38.39968694845447 154.36650280246977,38.66116738905839 154.40061075717676,38.90957332760445 154.4233493937645,39.14490483800182 154.4233493937645,39.393309865830815 154.41198007547064,39.61556659953203 154.40061075717676,39.89011851842224 154.37787212064723,40.164669865960605 154.34376416594023,40.41307297388266 154.3551334841759,40.73991845591809 154.33239484770456,41.01446803519502 154.34376416594023,41.28901704317832 154.36650280246977,41.56356547983887 154.34376416594023,41.85118703884655 154.3551334841759,42.13880797094316 154.36650280246977,42.4133546394296 154.3210255294107,42.70097434603667 154.26417893811595,42.975519844840164 154.19596302852733,43.250064772350015 154.11637780076126,43.485388541274006 154.0936391641735,43.72071189052076 154.10500848246738,43.96910830390698 154.11637780076126,44.20443079047254 154.1391164372908,44.439752857389976 154.23007098335074,44.68814791718614 154.33239484770456,44.9234691215097 154.49156530329492,45.18493663407571 154.6393664406496,45.420256952391355 154.7530596232973,45.59021025466791 154.87812212412246,45.734016724076355 155.0486618980649,45.83860314881895 155.2192016718327,45.96933606323728 155.42384940054035,46.07392230151163 155.63986644748366,46.20465498276462 155.85588349442696,46.33538753452012 156.0605312230764,46.505339658178855 156.25380963349016,46.70143799037032 156.4584573621396,46.845243248782936 156.6744744090829,46.97597516588576 156.90186077432008,47.06748743086064 160.0170539773535,51.26391025939665 160.15348579647252,51.22469197215105 160.36950284341583,51.25083749827172 160.596889208653,51.407710546205635 160.75605966424337,50.98938200403063 160.91523011989193,51.26391025939665 161.0744005754823,51.52536520975991 161.27904830413172,51.78681964217685 161.4723267146037,52.03520087315701 161.6542358067818,52.29665429556917 161.9498380815494,52.67576083802851 162.0862699006102,52.83263219225046 162.2681789927883,53.094084034877596 162.65473581361584,53.57776857839781 162.8139062692062,53.77385640193825 162.9958153613843,53.996088916348526 163.18909377179807,54.21832105659996 163.43921877350658,54.46669771168672 163.67797445692122,54.68892905951361 163.82577559433412,54.87194282974815 163.9735767316888,55.09417349526484 164.1213778691017,55.394837917687255 164.23507105163299,55.603995372890495 164.32602559769293,55.839297113750945 165.91773015406216,60.47988462318608 165.84951424453175,60.51910016052716 166.05416197318118,61.041972878054366 166.0769006096525,61.15961895410146 165.73582106194226,61.42105430319498 165.70171310711885,61.656345674724435 165.6107585610589,61.81320635606244 165.5766506062937,62.0484970286052 165.5766506062937,62.244572268711636 165.6107585610589,62.46679052209947 165.65623583405977,62.71515165673918 165.71308242541272,62.96351232410234 165.74719038017793,63.26415882259607 165.80403697147267,63.55173309351085 165.84951424453175,63.82623522225185 165.90636083576828,64.1399512419448 165.91773015406216,64.40138068883971 165.95183810888557,64.64973818388535 165.99731538188644,64.93730943655828 166.0086847001221,65.21180868432566 166.03142333665164,65.47323600869277 166.04279265494552,65.74773414208903 166.05416197318118,65.96994649872067 166.05416197318118,66.23137232181034 166.05416197318118,66.46665511997708 166.03142333665164,66.68886626660242 166.04279265494552,66.91107703917078 166.02005401841598,67.14635862605064 166.0086847001221,67.38163979360252 165.99731538188644,67.65613395912806 165.91773015406216,69.0155252245604 166.0086847001221,69.44686760475452 166.0086847001221,69.72135747665016 165.99731538188644,69.94356314542529 165.9745767453569,70.17883932830591 165.98594606359256,70.41411509193131 165.9745767453569,70.63631959485065 165.9745767453569,70.87159454330686 165.9745767453569,71.09379827631346 165.9745767453569,71.35521395405522 165.95183810888557,71.65584134365781 165.91773015406216,71.93032662328915 165.8608835627674,72.24402338701475 165.8267756080022,72.45315414882498 165.84951424453175,72.79299093030568 165.84951424453175,72.96290899306769 165.81540628970833,73.1066856446123 165.76992901670747,73.40730904649536 165.6789744705893,73.6556496014091 165.59938924276503,73.85170760426263 165.48569606017554,73.9562717534427 165.41748015064513,74.06083581983694 165.37200287758606,74.36145704942464 165.2810483315261,74.71435935872432 165.16735514893662,75.0280495085317 165.04229264805326,75.31559815788933 164.9627074202872,75.60314618107805 164.89449151069857,75.83841227980156 164.80353696463862,76.12595916456485 164.67847446381347,76.30894321974483 164.56478128116578,76.58341882716923 164.47382673510583,76.84482363713323 164.4169801438111,77.11929813066672 164.28054832469206,77.27614044227812 164.16685514210258,77.49833339815086 164.0531619595131,77.69438569588237 163.96220741345314,77.9427181884239 163.88262218562886,78.17798011902778 163.81440627604024,78.41324163052195 163.73482104821596,78.6092925699486 163.65523582039168,78.84455331307254 163.59838922915515,79.06674363007187 163.56428127438994,79.35428348540154 163.5415426378022,79.68103256105678 163.45058809174225,79.9424312395131 163.3596335456823,80.13847990881186 163.23457104479894,80.33452828708687 163.143616498739,80.56978595681721 163.00718467961997,80.79197337124788 162.88212217879482,81.00109059631359 162.779798314441,81.22327728505479 162.71158240485238,81.43239382721367 162.62062785879243,81.66764954129758 162.5637812675559,81.94211401144275 162.46145740320208,82.20350821458851 162.37050285714213,82.45183222838386 162.29091762925964,82.68708612660703 162.1658551284345,82.90926997901988 162.10900853713974,83.17066226800671 162.02942330931546,83.41898446336563 161.91573012672598,83.61502797207504 161.85888353543123,83.86334933196486 161.82477558066603,84.11167022497102 161.71108239807654,84.35999065115175 161.60875853372272,84.59524115052773 161.48369603283936,84.83049123089586 161.37000285030808,85.02653264446417 161.27904830413172,85.26178195665125 161.18809375812998,85.48396147786116 161.06303125724662,85.69307127411594 160.9607073928928,85.92831939912867 160.84701421036152,86.16356710513355 160.73332102771383,86.39881439220335 160.65373579994775,86.6079227400187 160.5286732990644,86.81703075686528 160.4490880712401,86.9869307767658" stroke="#4dd2ff" stroke-linecap="round" stroke-linejoin="round" stroke-width="0.5"><title>2023-11-18 10.6km</title><desc>6661700269261010610</desc></polyline><polyline fill="none" points="35.830499179603066,146.98027933611593 35.91620320468792,146.80279318473913 36.25044890251593,146.60558597784984 36.567553795321146,146.33935562731494 36.773243455565535,146.15200791573443 37.0046443232568,145.94493898113433 37.1760523734265,145.7575905254198 37.364601228618994,145.56038124277256 37.570290888805175,145.32372958659835 37.99881101422943,144.91944836923358 38.067374234320596,144.66307406145643 38.247352687001694,144.33767494829954 38.35019751708023,144.091159758711 38.57302798231831,143.78548007363133 38.5901687873411,143.47979944749386 38.87299207012984,143.17411788030586 39.17295615791227,142.8092709068369 39.38721622063895,142.51344805232657 39.901440371148055,142.0499904747703 40.295678886497626,141.58653073388268 40.46708693666733,141.33014782016107 40.60421337682055,140.99487685710483 40.73276941446238,140.70890955273353 41.161289539857535,140.18627752344037 41.358408797561424,139.88058581599034 41.70122489790083,139.52558781323023 41.98404818068957,139.298782869133 42.35257548853406,138.93392165441765 42.66968038131017,138.55919793003704 42.798236418952,138.0957218932963 42.85822923653177,137.82946872343746 42.82394762648619,137.53363103052106 42.84108843153808,137.1490407116944 42.94393326161662,136.79403294112853 43.115341311786324,136.40943975702248 43.201045336871175,136.09387500594312 43.38959419206367,135.78817069670185 43.63813586480683,135.49232692040823 43.89524794003228,135.01897504443332 44.30662726046285,134.47658991155913 44.3837608830363,134.14129580165172 44.40090168805909,133.8454471170553 44.409472090541385,133.53973588329973 44.42661289559328,132.9381723192855 44.5723097382579,132.3267433215442 44.298056857980555,132.15909277710307 44.64087295831996,131.62655387525592 44.889414631034015,131.17290737188887 44.983689058659365,130.8376021019576 45.03511147366953,130.51215766846144 45.22366032889113,130.1867121678588 45.74645488188253,129.55554209460388 45.82358850442688,129.27940392537857 45.94357413958642,128.9539543824576 46.08927098222193,128.64822808209283 46.174975007306784,128.41153610595939 46.15783420228399,128.2241545578654 46.42351668007905,127.84939040028985 46.58635432770825,127.53379843309813 46.63777674277662,127.21820546233357 46.75776237787795,126.83357517225522 46.80061439043493,126.52784233981947 46.74919197536656,126.32073246658547 46.92060002553626,125.93609869808279 46.98916324559832,125.37393897015136 46.997733648109715,124.96957649494288 46.95488163558184,124.63425026574987 46.75776237787795,124.31864807373495 46.663487950281706,123.96359440794913 46.57778392516775,123.67757803109998 46.57778392516775,123.36197279641783 46.56064312017406,123.04636655794457 46.55207271769177,122.77021027585579 46.492079900112,122.58281807527965 46.1492637997726,122.26720935859339 45.87501091949525,122.04036497342895 45.75502528439392,121.72475453138031 45.70360286932555,121.34996582753956 45.737884479400236,120.95544987307221 45.857870114501566,120.52148051138647 45.72074367434834,120.24531720206869 45.50648361162166,119.9888791551275 45.22366032889113,119.66339914109267 44.906555436056806,119.52531638833898 44.59802094576298,119.33791805936926 44.34090887050843,119.06175145569432 44.24663444291218,118.69681583612692 44.25520484542358,118.3220156944517 44.289486455440056,117.97680378502992 44.44375370061607,117.62172742504481 44.418042493081884,117.22719664576289 44.2123528328666,116.99047742507537 43.97238156263484,116.79321097638604 43.698128682386596,116.71430428708118 43.44958700961433,116.65512422893516 43.132482116809115,116.64526088245475 42.798236418952,116.66498757441877 42.43827951361891,116.64526088245475 42.1040338157909,116.6847142624174 41.73550650794641,116.65512422893516 41.4012608100893,116.67485091890558 41.07558551480179,116.58608078312682 40.741339816944674,116.56635407547583 40.43280532665085,116.45785711340432 40.218545263953274,116.26058960567025 40.13284123883932,116.00414125916723 39.9871443962038,115.59974059662636 39.807165943522705,115.2939731475999 39.55005386826815,115.11643032536085 39.2843713905022,115.02765879508661 39.018688912765356,114.90929663116549 38.96726649769698,114.66270833605813 38.384479127125815,114.16952990702703 38.18735986945103,113.81443991994456 37.99024061174714,113.60730350717495 37.664565316430526,113.50866696811136 37.32174921606202,113.41003033099696 37.081777945830254,113.27193887424801 36.87608828564407,113.15357461544045 36.6532578204351,112.87739079569292 36.40471614769194,112.60120620700036 36.14760407237918,112.3546121744148 35.881921594642336,112.09815373028687 35.65909112940426,111.85155844713154 35.47911267678137,111.57537100225454 35.256282211543294,111.2597272664716 35.144866978924256,110.90462686309911 35.11058536890778,110.57911704324943 35.10201496636728,110.26347013719351 34.99917013628874,110.00700628638879 35.059162953839405,109.67162948093028 35.34198623659904,109.23761075522634 35.38483824915602,108.9120954646205 35.35912704168004,108.55698665649106 35.26485261405469,108.25119749732403 35.196289393963525,107.95527160696656 35.196289393963525,107.55083812888915 35.15343738143565,107.16613158268592 34.95631812373176,106.8307451710134 34.724917256011395,106.57427244391147 34.442093973222654,106.35725654139969 34.133559482957935,106.11064698485279 33.96215143278823,105.85417239557137 33.687898552481784,105.54837490301725 33.43078647722723,105.3017633350828 33.36222325719427,104.97623512643622 33.35365285468288,104.63097676784673 33.122251986933406,104.3646337842365 32.9594143392751,104.0982900852905 32.90799192423583,103.82208104932943 32.950843936763704,103.44722469865519 32.97655514426879,103.052637535533 33.03654796187766,102.6383193244692 32.99369594932068,102.37197098898469 32.99369594932068,102.08589235033287 33.01083675434347,101.69129977035482 32.90799192423583,101.49400289154437 32.985125546809286,101.06981327279937 33.1308223894448,100.58643219288933 33.26794882956892,100.08331877034652 33.37936406218796,99.78736850584392 33.54220170984627,99.49141735798912 33.70503935747547,99.09681445347087 33.936440225254046,98.75153562382184 34.03071465282119,98.49504200057709 34.184981897997204,98.22868253573688 34.38210115567199,97.9623223553499 34.562079608323984,97.7354223779912 34.75919886602787,97.49865663067612 34.99059973380645,97.19283337023808 35.18771899145213,96.82781727615657 35.26485261405469,96.5614533324042 35.34198623659904,96.24576180570148 35.47054227424087,95.88074222488649 35.58195750685991,95.61437573670264 35.73622475203592,95.35787399762921 35.881921594642336,95.1901609632987 36.07047044983483,94.98298564682773 36.293300915072905,94.8843305820701 36.567553795321146,94.6672890939808 36.79038426055922,94.54890262753179 37.047496335813776,94.34172597099678 37.30460841106833,94.11481770755927 37.51886847379501,93.96683377773297 37.75026934151538,93.75965590484702 37.955959001672454,93.44395545645966 38.10165584430797,93.13811968839582 38.17878946691053,93.0394627877613 38.14450785686495,93.2367764908704 38.08451503931428,93.48341806748067 37.89596618415089,93.74979028103553 37.65599491389003,94.01616177891992 37.416023643658264,94.2529358428219 37.15891156840371,94.460112684872 36.86751788313268,94.61796141682134 36.576124197861645,94.79554093981278 36.310441720095696,94.99285114789382 36.05332964481204,95.20002644377382 35.83906958211446,95.43679768034053 35.693372739478946,95.73276093093591 35.59052790940041,96.0385886950462 35.53910549430293,96.35428088134358 35.37626784667373,96.71929871876637 35.2391414065205,97.0152581409784 35.07630375883309,97.28162086560042 34.8963253061811,97.51838713118923 34.69063564599492,97.7847485041857 34.41638276568847,98.09056993894046 34.219263508042786,98.3667949401497 34.03071465282119,98.65288430880173 33.89358821269707,98.91924263411784 33.79074338261853,99.15600498926506 33.61933533244883,99.49141735798912 33.499349697318394,99.79723352890142 33.43078647722723,100.10304875661677 33.29366003710311,100.33980828512722 33.25937842708663,100.64562183948874 33.22509681704105,100.98102916947391 33.22509681704105,101.14873240901215 33.21652641452965,101.46440832585358 33.19081520696636,101.78994806254923 33.1393927919853,102.21413460076292 33.087970376887824,102.5889956126266 33.062259169411846,102.96385520743206 33.019407156825764,103.28939002178959 33.07082957189414,103.61492376752722 33.087970376887824,103.90099799525342 33.21652641452965,104.11801927271154 33.27651923210942,104.4534148582461 33.39650486721075,104.68029946410388 33.50792009982979,104.90718355088029 33.670757747488096,105.1833895646705 33.79931378510082,105.44973034942086 33.970721835270524,105.70620598461392 34.124989080417436,105.8936300678397 34.33067874063272,106.1501045551122 34.519227595825214,106.43617146996985 34.707776450988604,106.69264455421944 34.90489570866339,106.79128787156515 34.99917013628874,107.06748863815301 35.09344456388499,107.33382436320244 35.136296576441964,107.6889375507235 35.15343738143565,108.06377786928351 35.18771899145213,108.35970343591907 35.18771899145213,108.71481295038393 35.15343738143565,109.06005709277815 35.17914858896984,109.31652339208085 35.15343738143565,109.55326092590985 35.15343738143565,109.81958997605398 35.17914858896984,110.16483027303912 35.18771899145213,110.55938914103899 35.2391414065205,110.865171184254 35.35055663913954,111.06244942152989 35.46197187175858,111.417549259917 35.71908394701313,111.63455409090238 35.950484814704396,111.80223931695946 36.199026487447554,112.10801752884436 36.310441720095696,112.49270490820345 36.51613138025277,112.77875353084528 36.71325063795666,113.11411983111611 37.02178512830869,113.29166623698256 37.39031243615318,113.38043932073924 37.72455813398119,113.42975766627205 37.99881101422943,113.59743985770183 38.204500674444716,113.84403080077755 38.31591590709286,114.01171229190368 38.47018315218156,114.32734727109346 38.77871764253359,114.54434573669278 39.07868173031602,114.72188958277547 39.37864581809845,114.8994331111171 39.65289869837579,115.1953382855645 39.824306748545496,115.50110603862413 40.021426006249385,115.79700941844203 40.158552446373506,116.0633217056602 40.35567170404829,116.30004313861718 40.66420619437122,116.36908678348118 40.972740684694145,116.34936003270559 41.298415979981655,116.37895015738468 41.62409127529827,116.4184036432489 41.99261858317186,116.45785711340432 42.344005086051766,116.51703728924622 42.69539158887346,116.46772047852573 43.04677809172426,116.37895015738468 43.38959419206367,116.40854027327441 43.76669190241955,116.5367640067052 44.12664880781085,116.66498757441877 44.33233846796793,116.92143421265791 44.43518329807557,117.29623964539496 44.46089450560976,117.66118041672598 44.45232410309836,118.09516228929715 44.42661289559328,118.43051061792357 44.46089450560976,118.72640526067698 44.5723097382579,118.98284657062322 44.70086577584152,119.23928721775155 44.94940744858468,119.45627493989741 45.25794193890761,119.71271436339157 45.50648361162166,119.94942708910094 45.63503964926349,120.22559122197708 45.68646206433186,120.62011007844558 45.66932125930907,121.0639419169529 45.652180454315385,121.43873170112784 45.626469246752094,121.66557746172475 45.83215890696738,121.85297139453905 46.07213017719914,122.15871863040957 46.363523862470174,122.46446492415271 46.51779110764619,122.81952395402186 46.53493191263988,123.19430710719462 46.5006503026525,123.57895150307013 46.492079900112,123.9241439222169 46.543502315180376,124.23974736892706 46.740621572884265,124.51589956136013 46.937740830588154,124.80191352197289 47.00630405062111,125.09778916549112 47.06629686820088,125.45283877322072 47.049156063148985,125.7980246739753 47.08343767322367,126.15307177643263 47.09200807567686,126.47853050443518 47.08343767322367,126.83357517225522 46.997733648109715,127.20834316581022 46.88631841551978,127.5831097441187 46.732051170343766,127.98746157035202 46.526361510157585,128.35236302371777 46.30353104494861,128.6679523879502 46.12355259223841,128.9145058804861 45.90929252956994,129.19064506498398 45.72931407685974,129.44705933404475 45.56647642923053,129.7725072600224 45.4464907941001,130.09795411884988 45.30936435397598,130.38395199259685 45.23223073137342,130.73898268937046 45.14652670628857,131.1235978444165 45.06082268120372,131.41945464180753 44.92369624105049,131.7547579460952 44.79514020343777,132.1097837395646 44.58945054325159,132.3563286823046 44.64944336080225,132.63245829119842 44.51231692067813,132.97761922207428 44.51231692067813,133.43125747728482 44.486605713143945,133.75669233976078 44.43518329807557,134.11171097285114 44.298056857980555,134.52589777336107 44.092367197736166,134.84146750900254 43.87810713503859,135.1077286931104 43.66384707231191,135.32468172249355 43.466727814637125,135.63038745905942 43.286749361956026,135.9360922542255 43.149622921831906,136.26151890485198 43.029637286730576,136.61652857976878 42.9782148716622,136.91236900572403 42.9782148716622,137.23779245599872 42.9782148716622,137.56321483947977 42.90108124908875,137.95766478325095 42.815377224003896,138.40141909662634 42.69539158887346,138.73669881792011 42.47256112366449,139.03253292577574 42.19830824341625,139.26919957732753 41.9240553631098,139.47628243468353 41.62409127529827,139.74253118798515 41.36697920007282,139.99891820148332 41.20414155241451,140.33419252785825 40.95559987964225,140.66946572198503 40.758480621967465,141.00473778393643 40.60421337682055,141.3597304978466 40.44137572913314,141.71472194248054 40.23568606894696,142.07957293798972 39.97857399372151,142.2274851217735 39.704321113444166,142.385257874972 39.455779440671904,142.64163806415308 39.18152656039456,142.92759980189294 38.98440730269067,143.2825856408963 38.81299925252097,143.62770954539883 38.62445039735758,143.9531109851814 38.42733113965369,144.33767494829954 38.2387822844903,144.64335293340991 38.01595181928133,144.93916944242665 37.87025497661671,145.30400858979556 37.647424511407735,145.65898593307065 37.39031243615318,145.93507854492782 37.11605955590494,146.28019323027547 36.80752506555291,146.556284114944 36.54184258778696,146.75349141974584 36.31901212260709,146.94083799656073" stroke="#4dd2ff" stroke-linecap="round" stroke-linejoin="round" stroke-width="0.5"><title>2023-10-27 15.5km</title><desc>6661698403012015510</desc></polyline><polyline fill="none" points="167.94235187629238,118.02312970993808 167.41909104702063,117.89414821076207 166.59682402922772,117.50720348276081 165.6250539170578,117.46420960268006 164.9522899936419,115.87343304374372 163.9057683343999,114.84157485564356 162.93399822246283,115.40049834598904 162.0743554313667,115.22852196410531 161.92485233722255,114.4116332186095 161.9622281107586,113.59474293288076 162.0743554313667,112.99282278952887 162.22385852551088,112.13293541985331 161.9996038840618,111.53101324569434 161.0652095458936,111.14406283502467 160.24294252810068,111.10106832368183 159.3459239632357,111.61700217891484 158.52365694544278,112.08994100664859 157.96302034240216,112.04694658904918 157.29025641852058,112.43389619336813 156.43061362742446,112.94982846168568 155.60834660939872,113.50875439230003 154.78607959183864,113.93869692526641 153.9264368005097,114.58360992462258 153.17892132978886,115.14253374771215 152.5061574059073,115.78744495523279 150.63736872933805,117.46420960268006 150.18885944667272,118.4100739772839 149.8151017113123,119.48491735087009 149.25446510850452,120.08682847564342 148.84333159960806,120.64574519975577 148.58170118462294,121.37663521300419 148.46957386401482,122.45147122789058 148.20794344926253,123.1823581950448 148.09581612888724,123.91324392947718 148.05844035511836,124.77310792097705 147.94631303451024,125.58997713238932 147.90893726120703,126.4928307851078 147.90893726120703,127.39568255658378 147.79680994036607,128.25553963764105 147.38567643146962,129.37335129224812 147.38567643146962,130.53415265062358 147.49780375207774,131.17904095060658 147.1987975637894,131.9958980861702 146.97454292257316,132.98472308492637 147.04929446964525,133.84456907576532 147.1987975637894,134.70441336045042 146.7876640551258,135.5212638505618 146.63816096098162,136.59606478118803 146.41390631953254,137.75684679218102 146.41390631953254,138.65967509549228 146.30177899915725,139.5625015180267 146.07752435770817,140.37934285085066 146.1149001312442,141.28216569079086 146.22702745185234,142.52891794900643 146.1896516783163,143.47472761425888 146.04014858417213,144.59250001207693 146.00277281086892,145.3663407524291 145.66639084881172,145.96821592847118 145.5542635282036,146.82803615863668 145.5542635282036,146.44111726628034 145.59163930173963,145.7962516778498 145.66639084881172,145.02241170511115 145.77851816965267,144.07660541750374 145.928021263564,143.17378839917365 146.07752435770817,142.27096950015402 146.22702745185234,141.45413173278212 146.48865786683746,140.55130925113917 146.41390631953254,139.7774599127588 146.48865786683746,138.8316421781492 146.45128209306858,137.584879283153 146.45128209306858,136.8110246474098 146.67553673428483,136.12315270013642 146.93716714903712,135.30630334455054 146.93716714903712,134.36047585122287 146.97454292257316,133.75858455334674 147.31092488439754,133.28566937576397 147.31092488439754,132.59779183231876 147.46042797877453,132.29684506371268 147.38567643146962,131.52298098491156 147.49780375207774,130.01824131965986 147.68468261975795,128.8574385791144 147.871561487671,128.1695540062792 147.90893726120703,127.39568255658378 147.871561487671,126.57881674906821 147.90893726120703,125.63297020617756 148.17056767595932,124.85909422617988 148.58170118462294,123.78426418348681 148.91808314668015,122.8384115404624 149.25446510850452,122.15051741234493 150.00198057922535,121.54860915447352 150.52524140872993,120.5597580584872 151.08587801153772,119.3989299791865 151.497011520667,118.4100739772839 152.09502389701083,117.50720348276081 152.80516359442845,116.47534918549354 153.8516852534376,115.22852196410531 154.74870381806977,114.32564484002069 155.60834660939872,113.72372571201413 156.5427409480326,113.16480005873018 157.4023837391287,112.73485675788834 158.22465075715445,112.30491303032613 159.04691777494736,111.87496887621819 159.9065605662763,111.44502429538989 160.8035791311413,111.05807380800252 161.62584614893422,110.41315556078916 162.48548894026317,110.24117719949572 163.2703801842872,110.0262041517417 163.8683925610967,109.2952949918108 164.5411564845126,108.60737936195801 165.3260477290023,107.96245746695786 166.2230662938673,107.44651925977087 167.15746063226834,106.84459057485219 167.97972765006125,106.28565604719915 168.98887353553437,105.85570591982105 169.96064364747144,105.51174551068107 170.93241375940852,105.25377502478659 171.8294323242735,104.82382387350663 172.46482047438622,104.00691551037016 174.14673028350808,100.48129332717508 174.33360915095545,99.14842868677806 174.2588576041162,98.28851383936126 174.59523956594057,97.64357658370864 174.93162152776495,96.95564245263813 174.96899730106816,96.09572325274348 174.7073668865487,95.10681406277581 174.4457364717964,94.24689119300456 173.8850998687558,93.55895166815026 173.06283285073005,93.04299630783498 173.4365905863233,93.34397034277208 174.22148183058016,93.859925344761 174.74474266008474,94.76284511966514 175.1558761689812,95.75175509482506 175.30537926289253,96.6976668718562 175.23062771605328,97.60058073248365 175.00637307483703,98.58948423009133 174.78211843362078,99.44939848012291 174.59523956594057,100.56728445354383 174.37098492472433,101.38419930220698 172.8012024362106,103.40498204674805 171.97893541841768,104.00691551037016 171.15666840039194,104.60884813775192 170.25964983575977,105.0817946154275 169.36263127089478,105.46875044045737 168.4656127060298,105.81271088370704 167.60596991470084,106.41464100216399 166.85845444398,107.05956520116888 166.11093897325918,107.57550386924413 165.17654463462532,108.09144192264648 164.4290291639045,108.69336887542158 163.71888946695253,109.33828968249145 163.00874976976775,109.85422563686734 161.9996038840618,109.89722027210519 161.21471264003776,110.24117719949572 160.31769407517277,110.67112297486165 159.5328028309159,111.10106832368183 158.6357842660509,111.53101324569434 157.8508930215612,112.00395216725883 157.14075332460925,112.51988494751276 156.24373475951143,112.99282278952887 155.38409196818247,113.46576011541765 154.4870734035503,113.93869692526641 153.6648063857574,114.49762158011436 152.7677878208924,115.22852196410531 152.09502389701083,115.91642708165455 151.12325378507376,117.80816052338923 150.450489861425,118.45306776335929 150.03935635252856,119.26994888961781 149.5160955232568,120.08682847564342 149.40396820241585,120.90370652166894 149.10496201412752,121.76357648539124 148.69382850523107,122.40847783841309 148.39482231717557,123.22535150757176 148.09581612888724,123.9562371695065 147.871561487671,124.85909422617988 147.57255529914983,125.76194940175628 147.31092488439754,126.62180972477654 147.0866702431813,127.69663272897014 146.63816096098162,128.47050364123425 146.5634094136767,129.28736588259926 146.71291250782087,130.49116006321856 146.97454292257316,131.52298098491156 147.27354911109433,132.51180706269224 147.1987975637894,133.5436231730273 147.01191869634204,134.66142118663993 146.93716714903712,135.73622424990754 146.75028828135692,136.7250407138199 146.71291250782087,137.62787116674008 146.52603364014067,138.530699738767 146.45128209306858,139.51950982617564 146.60078518744558,140.6802840064629 146.2644032256212,141.7120806676976 146.1149001312442,142.872848975152 145.85326971672475,144.03361417350243 145.6290150755085,144.80745591185405 145.10575424600393,145.53830517377355 145.10575424600393,146.6560722491704 145.33000888722017,146.91401808784576 145.5542635282036,146.18317114602542 145.66639084881172,145.49531407479662 145.928021263564,144.80745591185405 146.1896516783163,144.03361417350243 146.2644032256212,143.13079706570716 146.45128209306858,142.1419952182332 146.5634094136767,141.28216569079086 146.45128209306858,140.50831765751354 146.33915477246046,139.5625015180267 146.07752435770817,138.8316421781492 146.1896516783163,137.75684679218102 146.33915477246046,136.76803268276853 146.63816096098162,136.12315270013642 146.71291250782087,135.43527966094553 146.86241560196504,134.4034680548939 147.04929446964525,133.4146462935314 147.0866702431813,132.51180706269224 147.12404601695016,131.694950899604 147.23617333755828,130.83510064336588 147.23617333755828,130.23320444885758 147.1987975637894,129.11539501248626 147.46042797877453,128.0405755272368 148.05844035511836,126.62180972477654 148.28269499656744,125.58997713238932 148.32007076987065,124.7301147619728 148.46957386401482,123.74127092637355 148.5069496377837,122.92439822969027 148.76858005230315,121.72058302778169 149.25446510850452,120.60275163126062 149.92722903215326,119.78587301785592 150.450489861425,118.71103039066656 151.01112646469846,117.59319123000023 151.45963574689813,116.69031903336872 152.05764812370762,115.57247465939145 152.73041204712354,114.88456899573794 153.88906102674082,114.36863903151243 154.8608311386779,113.80971421010327 155.83260125061497,113.25078866770491 156.72961981547996,112.77785110721015 157.51451105973683,112.17592982892529 158.33677807776257,111.57400771448738 159.23379664239474,111.18705734220566 160.13081520749256,110.71411752901622 160.9904579988215,110.19818259851309 161.88747656345367,109.72524170580436 162.89662244915962,109.72524170580436 163.6815136934165,109.20930559784756 164.35427761706524,108.4783950598212 165.28867195523344,107.79047813278157 166.2230662938673,107.31753461199696 167.15746063226834,106.9305804381147 168.0171034235973,106.45763597870246 168.98887353553437,106.24266105360584 169.9232678739354,105.89870095180231 170.7455348917283,105.46875044045737 171.67992922989652,105.16778482866357 172.277941606706,104.26488673887798 173.17496017133817,101.72816298811813 173.51134213339537,101.16922185968724 173.77297254814766,100.18032425059937 173.73559677461162,99.23442007764243 174.071978736436,98.2455180522229 174.29623337765224,97.25661376939388 174.40836069826037,96.48268710405682 174.37098492472433,95.49377879712847 174.03460296289995,94.54786439152667 173.39921481278725,93.859925344761 172.8012024362106,93.30097406476852 173.17496017133817,93.42996288579889 174.10935450997204,93.98891399920103 174.66999111277983,94.93482962533017 174.85686998069286,95.83774715990876 175.3427550366614,96.61167497746646 175.49225813080557,97.42859728509211 175.1558761689812,98.33150962219224 174.7073668865487,99.14842868677806 174.37098492472433,100.00834182737162 174.071978736436,100.99723982904106 172.31531738000922,104.307881928602 171.6425534565933,104.86681900778785 170.5586560240481,105.4257553658972 169.69901323271915,105.76971584316925 168.61511580017395,106.02768602196011 167.5685941411648,106.45763597870246 166.70895134983584,107.10256011373713 165.8493085585069,107.70448844021303 164.98966576717794,108.09144192264648 164.16739874938503,108.69336887542158 163.53201059927233,109.51026840216946 162.82187090208754,110.0262041517417 161.88747656345367,110.11219338362571 161.17733686650172,110.58513385389233 160.24294252810068,110.92909023535321 159.42067551007494,111.27304634364555 158.4489053983707,111.83197443731478 157.5518868335057,112.34790742231417 156.69224404217675,112.8208454522246 155.79522547731176,113.3367772596539 154.9355826859828,113.80971421010327 154.15069144172594,114.36863903151243 153.25367287662812,115.05654551417683 152.6182847265154,115.74445090466179 150.52524140872993,117.9371420481184 150.22623522020876,118.79701789896353 149.7777259380091,119.44192366718198 149.6282228436321,120.3877837244363 149.47871974972077,121.20466120305355 148.91808314668015,121.84956338792108 148.61907695839182,122.45147122789058 148.61907695839182,123.56929785516695 148.28269499656744,124.25718973082257 147.79680994036607,124.98807365220273 147.46042797877453,126.062900708901 147.38567643146962,126.96575337607646 147.42305220500566,128.81444582538097 147.3483006581664,129.9752486809739 147.38567643146962,131.0930558993714 146.63816096098162,131.65195842736284 146.52603364014067,133.1137000922754 146.63816096098162,134.44646025411203 146.30177899915725,135.1343348629307 146.07752435770817,136.2951207893493 146.00277281086892,137.28393597793183 145.66639084881172,138.40172434368287 145.6290150755085,139.08959267416503 145.77851816965267,140.29335962515324 145.66639084881172,141.28216569079086 145.4795119811315,142.27096950015402 145.59163930173963,143.3887450027978 145.59163930173963,143.99062292536837 145.33000888722017,144.80745591185405 144.61986918980256,145.49531407479662 144.54511764273047,145.92522487221868 144.73199651041068,145.49531407479662 145.10575424600393,145.06540285088704 145.25525733991526,144.54950881924015 145.4795119811315,143.818657889904 145.4795119811315,143.00182303969632 145.59163930173963,142.22797807713505 145.74114239611663,141.5401147280936 145.70376662234776,140.723275583121 145.81589394295588,139.82045157902758 146.04014858417213,138.7886504138878 146.22702745185234,137.8428305212874 146.33915477246046,136.94000051595503 146.37653054622933,136.1661447288934 146.48865786683746,135.26331123060663 146.67553673428483,134.53244463994633 146.71291250782087,133.58661545757786 146.8997913757339,132.81275368199567 147.12404601695016,131.90991319715977 147.12404601695016,130.9210857457656 146.97454292257316,129.84627073945012 147.1987975637894,128.81444582538097 147.57255529914983,127.86860416227137 147.722058393294,127.00874631342595 147.94631303451024,125.9769146424369 147.871561487671,124.94508051444427 148.20794344926253,123.9562371695065 148.32007076987065,122.9673915678868 148.58170118462294,122.06453056956525 148.95545891998336,121.03268712508725 149.5160955232568,119.87186031285091 150.03935635252856,118.88300539008924 150.6747445028741,118.15211117078434 150.78687182348222,118.19510498261661 150.56261718203314,118.79701789896353 150.00198057922535,119.09797404360143 149.6282228436321,119.48491735087009 149.21708933473565,119.65689204339287 148.95545891998336,120.25880292913644 148.9928346935194,121.20466120305355 148.58170118462294,122.40847783841309 148.3574465434067,123.48331129379221 147.9836888082791,124.08521686421591 147.83418571390212,125.33201860045665 147.79680994036607,126.14888675825205 147.49780375207774,127.13772509948467 147.49780375207774,128.34152525191894 147.1987975637894,129.93225603818428 147.23617333755828,130.663130387431 147.23617333755828,131.694950899604 147.27354911109433,132.46881467150524 147.1614217904862,133.62960773799568 146.75028828135692,135.22031911223894 146.48865786683746,136.38110480835894 146.48865786683746,137.62787116674008 146.45128209306858,138.61668331423425 146.04014858417213,139.82045157902758 146.04014858417213,141.45413173278212 146.07752435770817,142.52891794900643 145.70376662234776,143.30276237413636 145.66639084881172,144.63549120057723 145.4795119811315,145.53830517377355 145.36738466052338,146.3981262568268" stroke="#4dd2ff" stroke-linecap="round" stroke-linejoin="round" stroke-width="0.5"><title>2023-07-16 10.3km</title><desc>6661689462197010260</desc></polyline><polyline fill="none" points="32.7130868062377,206.57129999047902 32.41886420082301,206.7292421932798 32.1050267550163,206.95487372127536 31.379277661675587,206.90974743358674 31.0850550562609,207.0 30.516224685823545,206.79693167516962 30.182772399741225,206.00721979912487 30.20238724013325,205.19494186530937 30.1631575593492,204.45035121036926 30.398535643704236,203.75088504068844 30.476995005155914,203.14167081718915 29.888549794326536,202.9611625856487 29.378563944948837,202.69039996969514 28.88819293596316,202.93859904665442 28.358592246309854,203.20936136707314 27.848606396932155,203.45755987757002 27.358235387830064,203.7057581171539 26.907094059628434,204.02164639384137 26.436337890918367,204.24728060855705 26.122500445111655,204.24728060855705 25.769433318753727,204.56316813298326 26.00481140310876,204.24728060855705 26.45595273131039,203.86370231035107 26.96593858068809,203.52525033339043 27.456309589673765,203.20936136707314 27.94668059865944,202.91603550536092 28.417436767253093,202.64527283568168 28.907807776355185,202.3519462462864 29.417793625732884,202.0811829048762 29.927779474994168,201.8781101871573 30.476995005155914,201.855546540668 30.88890665268991,201.56221893252223 31.261588619439863,201.1786361047707 31.6931151074823,200.8627438783151 32.16387127607595,200.59197876359394 32.615012604393996,200.276085722071 33.08576877298765,200.0053199086833 33.576139781973325,199.75711762979336 34.086125631351024,199.57660671129997 34.59611148072872,199.32840396442043 35.0864824897144,199.10276486851217 35.49839413736481,198.74174184922595 36.57721035706345,197.68123341504543 36.5379806762794,197.1622593999782 36.75374392035883,196.64328420025413 36.77335876063444,196.0791793787066 36.93027748353779,195.49250887958624 36.94989232392982,194.9509655367583 36.85181812220253,194.38685651634296 36.71451423957478,193.80018165030924 36.400676793884486,193.3714567523566 35.91030578489881,193.10068271614728 35.6945425409358,192.89760197720898 35.733772221719846,192.73965016605507 35.51800897764042,192.58169824512152 35.008023128379136,192.5140045311564 34.5764966403367,192.71708561266132 34.184199833194725,192.94273104600143 33.791903025936335,193.23606977456075 33.340761697734706,193.5294081245811 32.811161007964984,193.80018165030924 32.26194547791965,193.77761720212584 31.830418989993632,193.77761720212584 31.359662821283564,193.5294081245811 31.12428473692853,193.07811819846393 30.810447291238233,192.67195649910718 30.45738016476389,192.26579407407553 30.045468517229892,191.92732483224245 29.712016231147572,191.4309023660171 29.69240139075555,190.8893493485084 29.81009043287486,190.34779504092876 30.045468517229892,189.85136912569578 30.1631575593492,189.3098123454838 30.63391372805927,188.99390362795384 31.163514417712577,188.88107897961163 31.712729947757907,188.83594910458487 32.301175158587284,188.85851404319692 32.87000552902464,188.88107897961163 33.4584507397376,188.88107897961163 34.086125631351024,188.74568932765396 34.14497015241068,188.2492599139805 33.83113270672038,187.91078469224158 33.32114685734268,188.09130487320363 32.634627444669604,188.18156490994443 32.02656739356462,188.2266949148907 31.379277661675587,188.31695489789126 30.849676971905865,188.29438990548078 30.300461441860534,188.2266949148907 29.712016231147572,188.20412991357443 29.14318586071022,188.09130487320363 29.084341339650564,187.50461376096064 29.417793625732884,186.94048626348376 29.73163107142318,186.44405290775467 29.77086075209081,185.87992277856392 29.927779474994168,185.40605238819262 30.08469819801394,184.9321810099791 30.24161692080088,184.39061251102248 30.398535643704236,183.8264772859984 30.398535643704236,183.21720967045985 30.516224685823545,182.63050597881374 30.49660984543152,182.15662881470053 30.437765324371867,181.6376193586475 30.437765324371867,181.09604301063519 30.261231761192903,180.50933384418022 30.02585367683787,180.1031496880605 29.94739431538619,179.56156968409778 29.829705273150466,178.952290637244 29.712016231147572,178.36557593755424 29.574712348519824,177.8014257596369 29.457023306400515,177.21470808934828 29.35894910467323,176.62798890459817 29.319719423889183,176.0638344141189 29.378563944948837,175.49967852330883 29.51586782746017,174.91295491157507 29.69240139075555,174.37136254106008 29.967009155778214,173.78463601667318 30.20238724013325,173.22047446887882 30.320076282252558,172.65631152060814 30.300461441860534,172.15984696788655 30.20238724013325,171.70851461520942 30.182772399741225,171.18948130161152 29.986623996170238,170.60274656338152 29.712016231147572,170.10627752491564 29.437408466008492,169.58724055241328 29.103956179926172,169.13590309105348 28.84896325529553,168.68456473339756 28.633200011216104,168.12039052594628 28.535125809372403,167.62391606486926 28.554740649764426,167.0371721216943 28.711659372667782,166.49556098357425 28.927422616630793,165.9539485546411 29.280489743105136,165.54773838591063 29.712016231147572,165.1640947820997 30.261231761192903,164.87071982455382 30.849676971905865,164.62247918004869 31.457737023127265,164.44194035914552 32.02656739356462,164.2839687732776 32.634627444669604,164.2839687732776 33.20345781522337,164.2388340143225 33.47806558024604,164.48707507789368 33.752673345268704,164.82558518213045 34.14497015241068,165.09639290245832 34.478422438609414,164.80301785748452 34.43919275782537,164.37423826445593 34.38034823676571,163.76491850370076 34.301888875314035,163.22329956707836 34.20381467347033,162.63654426240828 34.02728111029137,162.00465224012441 33.92920690844767,161.3953261260176 33.71344366460107,160.83113382288138 33.61536946275737,160.4249144973146 34.20381467347033,160.28950789412193 34.6745708421804,159.9961266436876 35.125712170498446,159.6350415078341 35.5964683390921,159.34165941248648 35.98876514623407,158.9805732366949 36.36144711310044,158.55178265778522 36.71451423957478,158.12299126970174 36.94989232392982,157.62649496743688 37.18527040828485,157.1299975803995 37.342189131188206,156.6560672444757 37.459878173307516,156.0918631747627 37.538337534759194,155.59536243471666 37.65602657699492,155.0311557314417 37.71487109793816,154.4895159782609 37.83256014017388,153.99301173709682 38.24447178770788,153.58678018731007 38.813302158145234,153.38366414007032 39.36251768830698,153.27082181318838 39.89211837796029,153.20311639011197 40.44133390800562,153.11284246137075 40.99054943816736,153.06770548355416 41.539764968212694,153.02256849678815 42.069365657866,153.02256849678815 42.46166246512439,153.3610956791963 42.34397342300508,153.99301173709682 42.14782501931768,154.5572210179962 41.971291456138715,155.14399718414643 41.79475789295975,155.70820360726793 41.63783916993998,156.27240862956387 41.55937980860472,156.81404413294513 41.28477204346564,157.1074294916325 41.04939395922702,157.33311027899617 41.363231404917315,157.7619031574868 41.83398757362738,158.07785528703243 42.36358826328069,158.25839916388213 42.93241863383446,158.39380697737215 43.01087799528614,158.73232615803136 43.2854857603088,158.95800533164584 43.854316130746156,159.02570904005552 44.38391682039946,159.13854850920325 44.933132350444794,159.25138792231155 45.52157756127417,159.38679514410615 46.07079309143592,159.54477013422002 46.62000862148125,159.65760934562422 47.129994470858946,159.7930163253768 47.6988248412963,159.92842322445358 48.3068848925177,160.0186944456509 48.89533010323066,160.15410121020977 49.44454563327599,160.33464343751257 49.993761163321324,160.51518552136258 50.484132172423415,160.83113382288138 50.95488834101707,161.25992010101618 51.327570307883434,161.75640846487659 51.543333551846445,162.3431660419883 51.719867115141824,162.9976246291626 51.68063743447419,163.56181155370723 51.62179291329812,164.19369924638886 51.6021780729061,164.7127485367091 51.62179291329812,165.276931203407 51.62179291329812,165.88624691030418 51.582563232514076,166.56326244641969 51.46487419039477,167.2177088809549 51.366799988551065,167.73675126487797 51.22949610603973,168.3234934019274 51.13142190419603,168.910234024268 51.01373286219314,169.4518394080951 50.75873993744608,170.01601031050086 50.56259153387509,170.55761305928172 50.38605797069613,171.031514405724 50.307598609128036,171.57311473462323 50.20952440740075,172.13728037152032 50.150679886341095,172.72401114831155 50.20952440740075,173.2881739285367 50.268368928460404,173.87490173440892 50.40567281097174,174.4390616579767 50.601821214542724,174.93552123231348 50.915658660349436,175.3868471771566 51.30795546749141,175.8156059946341 51.7983264765935,176.13153302681167 52.2102381241275,176.24436400337436 52.7202239735052,176.44745961995795 53.19098014209885,176.60542275183252 53.19098014209885,176.69568734937639 52.641764611937106,176.69568734937639 52.092549081891775,176.5151581185346 51.974860039772466,176.26693019193772 52.24946780479513,176.15409922662366 52.66137945232913,176.3120625624142 53.151750461314805,176.33462874426914 53.661736310692504,176.33462874426914 54.093262798618525,176.22179781258455 54.210951840737835,176.67312120336283 54.11287763901055,177.23727418160706 53.975573756499216,177.8014257596369 53.79904019320384,178.34300995735975 53.40674338606186,178.2527460140118 52.79868333484046,178.0947840268782 52.22985296451952,177.9819539689779 51.719867115141824,177.8014257596369 51.22949610603973,177.46293498083833 50.817584458505735,177.10187759452674 50.40567281097174,176.74081963468052 50.268368928460404,176.49259195456398 50.699895416386425,176.89878256268275 51.17065158509649,177.23727418160706 51.64140775357373,177.62089740701776 52.17100844345987,177.84655782546906 52.7202239735052,177.9819539689779 53.26943950355053,178.13991603445902 53.68135115120094,178.32044397485151 53.877499554655515,178.02708599883772 54.01480343728326,177.50806711382756 54.093262798618525,176.94391480766353 54.15210731967818,176.42489344926435 53.759810512536205,176.42489344926435 53.210594982490875,176.5151581185346 52.7202239735052,176.37976110127056 52.22985296451952,176.08640062058112 51.68063743447419,175.8607384547504 51.249110946431756,175.4771122585953 50.915658660349436,174.98065386715461 50.660665735718794,174.461628025776 50.484132172423415,173.89746815827675 50.42528765136376,173.2881739285367 50.40567281097174,172.7691442223295 50.523361853091046,172.18241356195358 50.62143605493475,171.57311473462323 50.71951025677845,171.031514405724 50.95488834101707,170.5350463038776 51.13142190419603,170.01601031050086 51.22949610603973,169.4518394080951 51.46487419039477,168.88766710527125 51.62179291329812,168.34606037697813 51.7002522747498,167.8044523580029 51.7983264765935,167.2402759657416 51.89640067832079,166.72123244797694 51.916015518596396,166.15705336675455 51.89640067832079,165.54773838591063 51.89640067832079,165.07382560471888 52.092549081891775,164.75788320158608 51.974860039772466,164.532209787576 51.95524519938044,164.03572748793522 51.916015518596396,163.51667665132845 51.935630359104834,162.95248961469042 51.974860039772466,162.4108687418775 51.81794131686911,161.91438180771365 51.52371871145442,161.44046144970343 51.13142190419603,161.01167551228718 50.699895416386425,160.60545650945278 50.150679886341095,160.26694011905056 49.640694036963396,159.9961266436876 49.15032302797772,159.7478806744184 48.65995201887563,159.680177181217 48.14996616949793,159.56733798095956 47.639980320236646,159.43193086679094 47.090764790191315,159.34165941248648 46.600393781089224,159.2739557982568 46.090407931711525,159.1611163963389 45.56080724205822,159.02570904005552 45.031206552288495,158.9128695148247 44.54083554330282,158.73232615803136 44.05046453431714,158.59691854624543 43.540478684939444,158.46151085382735 43.01087799528614,158.32610308067524 42.481277305516414,158.1906952268473 41.932061775471084,157.7619031574868 41.63783916993998,157.15256566701282 41.59860948927235,156.52065839551506 41.71629853139166,155.9113175766688 41.912446934962645,155.3019751238171 42.16743985982612,154.69263103698904 42.422432784340344,154.0381485310936 42.304743742221035,153.4288010551536 41.69668369111605,153.31595875072526 41.04939395922702,153.40623259876156 40.38248938694596,153.45136950936285 39.6959699743893,153.51907485841366 39.087909923284315,153.6093486258178 38.519079552730545,153.72219078459602 38.12678274558857,154.06071692475234 37.93063434201758,154.6474943729554 37.871789820841514,155.32454339193646 37.73448593833018,155.9113175766688 37.59718205581885,156.54322654260613 37.44026333291549,157.15256566701282 37.342189131188206,157.71676710309112 37.16565556789283,158.23583118713577 36.89104780287016,158.73232615803136 36.5379806762794,159.18368428118993 36.184913549921475,159.6350415078341 35.635698019876145,159.7478806744184 35.145327010774054,160.0186944456509 34.694185682572424,160.3120756669232 34.53726695966907,160.56032101986057 34.733415363240056,160.3120756669232 34.28227403503843,160.6957274616725 33.73305850487668,160.87626925867517 33.22307265549898,160.9891078089422 32.65424228517804,161.14708168516518 32.04618223395664,161.30505545159394 31.418507342459634,161.53073207031412 30.88890665268991,161.77897609202773 30.261231761192903,161.95951702844468 29.653171709971502,162.11749023011362 29.045111658866517,162.3431660419883 28.45666644803714,162.5688416297926 27.868221237207763,162.83965203929984 27.495539270341396,163.31356947950553 27.338620547554456,163.85518820091966 27.1817018246511,164.44194035914552 26.946323740296066,164.98355639154033 26.769790177000687,165.54773838591063 26.612871454213746,166.06678458375973 26.534412092762068,166.56326244641969 26.49518241197802,167.10487342326087 26.49518241197802,167.62391606486926 26.279419168131426,168.0752565288276 26.181344966287725,168.59429695432482 26.436337890918367,169.09076929556613 26.78940501739271,169.51953999028774 27.201316665043123,169.9483098761557 27.61322831257712,170.37707895306812 27.90745091799181,170.850980675983 28.005525119719096,171.43771477339033 28.005525119719096,172.04701396367454 28.005525119719096,172.4983456441696 28.005525119719096,173.06250898454164 27.927065758267418,173.60410447375034 27.77014703536406,174.12313227335108 27.534768951009028,174.64215888759645 27.29939086677041,175.1611843167775 27.22093150531873,175.77047352564114 27.201316665043123,176.35719492385397 27.1817018246511,176.92134868630092 27.260161185986362,177.44036891103315 27.358235387830064,178.0045199850283 27.456309589673765,178.54610369881266 27.672072833636776,179.08768612219137 27.7897618758725,179.76466233679093 27.94668059865944,180.19341289656586 28.33897740591783,180.4416365352372 28.45666644803714,180.98321444238536 28.613585170940496,181.50222539259994 28.809733574511483,182.02123515779385 28.84896325529553,182.60794042197813 28.79011873411946,183.23977516686136" stroke="#4dd2ff" stroke-linecap="round" stroke-linejoin="round" stroke-width="0.5"><title>2023-04-07 11.0km</title><desc>6661680855630011030</desc></polyline><polyline fill="none" points="152.69714182661846,154.33341170777567 150.6878898423165,153.0 149.64462438900955,153.80004750099033 149.7219033113215,153.80004750099033 151.5765974507667,154.15562370946282 153.0062575165648,153.97783564051497 154.08816243126057,154.20007071562577 153.58584943506867,155.0001160732645 152.69714182661846,156.73354277969338 152.96761805540882,158.3336230169225 155.32462519058026,158.68919562673545 157.02476148493588,159.26700051585794 158.41578208934516,159.1336609920836 159.80680269398727,158.64474906594842 160.46367353503592,159.75591176294256 160.77278922474943,161.04485703865066 160.61823137989268,162.24490620268625 160.69551030243747,164.60054891728214 160.81142868613824,165.57835923635866 161.08190491469577,166.9561792453169 160.92734706960618,168.3339950168156 160.4250340736471,169.93403382072574 160.30911568994634,171.2229498125671 160.61823137989268,173.2674296418263 160.5023129961919,174.64522600360215 160.23183676740155,175.93412844161503 160.03863946115598,177.2230271716544 159.96136053884402,178.46747759944992 159.96136053884402,179.80081350792898 161.04326545330696,180.68970190911205 162.47292551910505,181.71192139029154 163.82530666235834,181.71192139029154 164.75265373196453,182.28969658713322 164.7912931931205,183.57857703362242 164.82993265450932,184.86745377263287 164.82993265450932,186.2452144624549 164.82993265450932,188.20073849020991 164.82993265450932,189.57848893044866 164.7912931931205,190.95623513427563 164.7912931931205,192.33397710163263 164.75265373196453,193.7117148328689 164.82993265450932,195.00056242363644 164.75265373196453,196.33384913377813 164.82993265450932,198.2004438629665 164.82993265450932,199.62260605671327 164.82993265450932,200.9558790140145 164.8685721156653,202.33359023573576 164.82993265450932,203.6668551270268 164.8685721156653,205.04455801376025 165.0231299607549,206.33337300876155 166.1436743363738,206.55558211597963 166.1436743363738,206.55558211597963 169.89170207618736,206.82223289928515 170.43265453353524,206.11116379132727 170.23945722728968,204.7779061726178 170.08489938243292,203.48908670403762 170.16217830497772,202.20026352835703 170.08489938243292,200.7781095156388 170.04625992127694,199.4003935114015 169.96898099873215,197.0893765083747 170.04625992127694,195.71164916275302 170.00762045988813,194.37836060125846 169.96898099873215,193.08951122069266 169.93034153757617,191.7117715764034 170.00762045988813,190.3340276957897 169.96898099873215,188.95627957882243 170.00762045988813,186.86742757895263 169.96898099873215,185.53411269994103 170.00762045988813,184.1119057891192 170.00762045988813,182.73413853920647 169.7371442313306,181.75636566261528 168.30748416576535,181.97858695840114 166.18231379776262,182.15636391562293 164.75265373196453,182.20080814385437 164.59809588687494,183.26746829980402 164.67537480941974,184.60078992394847 164.67537480941974,185.8896637223079 164.75265373196453,187.17853381313034 164.7912931931205,188.511843798653 164.7912931931205,190.3784711129556 164.75265373196453,191.66732829160173 164.75265373196453,192.95618176279822 164.82993265450932,194.37836060125846 164.75265373196453,195.71164916275302 164.82993265450932,197.0893765083747 164.82993265450932,199.0004106523411 164.8685721156653,200.422570307157 164.9072115770541,201.75584088428877 164.8685721156653,203.13354964650352 164.9072115770541,204.5112541729177 164.9458510382101,205.84451258499757 165.64136134041473,206.55558211597963 166.33687164261937,206.55558211597963 166.33687164261937,206.55558211597963 170.47129399492405,206.28893117411644 170.31673614983447,205.0889999717474 170.1235388435889,203.71129722168553 170.08489938243292,202.46691690335865 170.2008177661337,201.17809078787104 170.2008177661337,199.84481849169242 170.2008177661337,197.84490260921302 170.08489938243292,196.46717758651357 169.96898099873215,195.00056242363644 170.08489938243292,193.62282865546877 169.96898099873215,192.24509065100574 170.00762045988813,190.77846166866948 170.1235388435889,188.6896181635966 170.04625992127694,187.22297754327883 170.04625992127694,185.8896637223079 169.93034153757617,184.55634593375726 169.93034153757617,183.13413591936114 169.7371442313306,181.75636566261528 168.57796039432287,181.84525419422425 166.18231379776262,181.93414270799258 164.71401427080855,182.1119196829095 164.59809588687494,183.40080064086942 164.71401427080855,184.91189773197402 164.75265373196453,186.42298972676508 164.63673534826376,187.934076625359 164.63673534826376,190.11181054409826 164.63673534826376,191.62288500234718 164.63673534826376,193.0006249198923 164.63673534826376,194.3339175809233 164.63673534826376,195.66720627457835 164.75265373196453,197.04493375695893 164.7912931931205,198.2448864998296 164.75265373196453,199.53372105184826 164.8685721156653,201.48918708617566 164.8685721156653,202.7780123068369 164.7912931931205,204.1112758758536 164.7912931931205,205.4445354778145 165.06176942191087,206.42225666486775 166.2209532589186,206.3778148390993 166.2209532589186,206.3778148390993 166.2209532589186,206.3778148390993 170.2008177661337,206.20004749140935 170.08489938243292,204.4223701377341 169.96898099873215,203.13354964650352 169.96898099873215,201.84472544834716 169.93034153757617,200.5114551357401 169.96898099873215,199.22262339593726 170.00762045988813,197.88934528146638 169.96898099873215,195.80053492583102 169.93034153757617,194.55613263873965 169.96898099873215,193.26728376949904 169.96898099873215,191.88954467180884 169.96898099873215,190.51180133791058 169.96898099873215,189.13405376742594 169.93034153757617,187.75630196064594 169.93034153757617,185.71188824650017 169.93034153757617,184.42301393664093 169.89170207618736,183.13413591936114 169.8144231538754,181.93414270799258 168.65523931686766,181.88969845330575 167.30285817338154,181.88969845330575 165.4095245730132,181.84525419422425 164.67537480941974,182.55636181141017 164.67537480941974,183.8896855515777 164.75265373196453,185.17856139549986 164.63673534826376,186.46743353185593 164.59809588687494,187.75630196064594 164.63673534826376,189.0896102268889 164.52081696456298,191.04512184066698 164.59809588687494,192.4228635346808 164.71401427080855,193.8006009925448 164.75265373196453,195.17833421414252 164.71401427080855,196.42273477336857 164.7912931931205,197.66713187657297 164.67537480941974,198.95596809036215 164.67537480941974,200.82255189682473 164.67537480941974,202.0669367814553 164.63673534826376,203.35576034043333 164.67537480941974,204.6890221904032 164.71401427080855,205.97783820799668 165.56408241786994,206.4666984862415 169.6598653087858,206.60002392425667 169.6598653087858,206.60002392425667 170.04625992127694,206.4666984862415 170.1235388435889,205.57786121979007 169.96898099873215,203.71129722168553 169.89170207618736,202.33359023573576 169.89170207618736,200.9114366460708 169.8530626152642,199.62260605671327 169.8144231538754,198.2448864998296 169.77578369248658,196.8671627069125 169.77578369248658,195.622763382009 169.89170207618736,193.40061313472688 169.77578369248658,192.06731769666658 169.77578369248658,190.77846166866948 169.8144231538754,189.48960193310631 169.8530626152642,188.1562948571518 169.93034153757617,186.86742757895263 169.8530626152642,184.9563416868623 169.77578369248658,183.66746520379093 169.77578369248658,182.24525236766203 168.9257155454252,181.80080993063166 167.72789224726148,181.80080993063166 166.41415056516416,181.84525419422425 165.06176942191087,181.93414270799258 164.59809588687494,183.48968884602073 164.67537480941974,184.77856584070832 164.59809588687494,186.06743912774255 164.67537480941974,187.3563087071234 164.67537480941974,188.64517457905458 164.63673534826376,189.93403674350702 164.75265373196453,192.02287444699323 164.7912931931205,193.40061313472688 164.67537480941974,194.6894616204372 164.55945642571896,195.84497780067613 164.55945642571896,197.04493375695893 164.67537480941974,198.33377176037175 164.63673534826376,199.75593353091972 164.67537480941974,201.75584088428877 164.75265373196453,203.13354964650352 164.71401427080855,204.4223701377341 164.67537480941974,205.75562881410588 165.2549667279236,206.55558211597963 166.45279002632014,206.64446572805173 166.99374248366803,207.0 169.08027339028195,206.6889075275394 169.96898099873215,205.5334193102317 169.93034153757617,204.28904405186768 169.89170207618736,203.00022317722323 169.93034153757617,201.57807170314481 169.8144231538754,200.24480059710913 169.77578369248658,198.86708295322023 169.77578369248658,196.82271993343602 169.7371442313306,195.48943467793288 169.8144231538754,194.11170241286163 169.8530626152642,192.73396591166966 169.7371442313306,191.40066848980496 169.7371442313306,190.02292365257745 169.7371442313306,188.6896181635966 169.77578369248658,186.68965249098255 169.69850477017462,185.31189316770178 169.6598653087858,183.93412960795104 169.77578369248658,182.4230292190332 169.04163392912596,181.88969845330575 167.72789224726148,181.93414270799258 165.6800008015707,181.88969845330575 164.55945642571896,182.24525236766203 164.482177503407,183.57857703362242 164.55945642571896,185.0007856374432 164.52081696456298,186.33410210351576 164.482177503407,187.66741460183403 164.4048985808622,188.95627957882243 164.44353804225102,190.95623513427563 164.52081696456298,192.33397710163263 164.52081696456298,193.62282865546877 164.59809588687494,194.86723353443085 164.52081696456298,196.06719210906886 164.482177503407,197.22270473642857 164.67537480941974,198.4670996181958 164.71401427080855,200.33368546096608 164.59809588687494,201.48918708617566 164.63673534826376,202.73357011962798 164.59809588687494,204.02239176133298 164.63673534826376,205.35565162773128 164.82993265450932,206.4666984862415 166.02775595267303,206.3778148390993 166.02775595267303,206.3778148390993 166.02775595267303,206.3778148390993 170.08489938243292,205.84451258499757 170.08489938243292,204.6890221904032 169.96898099873215,203.53352881630417 169.93034153757617,202.20026352835703 169.8144231538754,200.866994273616 169.69850477017462,199.57816355652176 169.6598653087858,198.15600122176693 169.6598653087858,196.02274925625534 169.69850477017462,194.60057563710143 169.89170207618736,193.22284063886036 169.89170207618736,191.7117715764034 169.96898099873215,190.2451408483903 169.89170207618736,188.77850531967124 169.89170207618736,186.60076492055668 169.8530626152642,185.17856139549986 169.8530626152642,183.75635335603147 169.8144231538754,182.46747342095478 169.2348312351387,181.71192139029154 167.92108955327421,181.80080993063166 166.56870841002092,181.84525419422425" stroke="#4dd2ff" stroke-linecap="round" stroke-linejoin="round" stroke-width="0.5"><title>2020-08-21 10.2km</title><desc>453209692</desc></polyline><polyline fill="none" points="34.48592717759311,240.18160706100753 34.48592717759311,242.62791202310473 34.40715470863506,245.25541746319504 34.56469964655116,247.88291534566088 34.64347211550921,250.96342048014048 34.95856199087575,251.96005227026762 34.95856199087575,252.0506551063736 34.80101705342531,254.1345178562333 34.72224458446726,259.29885287879733 34.80101705342531,261.92631036933744 36.53401136910543,263.3759388537146 38.109460746869445,263.4665405571577 38.109460746869445,263.4665405571577 43.229671224951744,262.01691221707733 43.150898756459355,259.11764863552526 42.914581349585205,256.3995806709281 42.993353818077594,253.7721072845161 43.072126287501305,251.14462634100346 42.993353818077594,248.60774101765128 42.835808880627155,245.79903833480785 42.52071900526062,243.44334555463865 41.81176678510383,240.27221106539946 41.73299431614578,237.28227417811286 41.81176678510383,234.6547458038549 41.73299431614578,232.0272098723217 41.65422184718773,229.8526916607516 41.33913197182119,226.50029927666765 41.33913197182119,223.9633455100702 41.26035950286314,221.1545670495252 41.10281456494704,218.2551737728063 41.10281456494704,215.35577129223384 40.07877246942371,213.0906067006872 37.321736057754606,213.0 34.56469964655116,215.0839518379653 34.64347211550921,217.53032401541714 34.64347211550921,219.97668964072363 34.72224458446726,222.60426023678156 34.64347211550921,224.96000675857067 34.72224458446726,227.496957757161 34.72224458446726,231.39297592861112 34.64347211550921,234.2923275041976 34.72224458446726,236.91985692060553 34.87978952238336,239.27556652366184 34.72224458446726,241.7218739122036 34.72224458446726,244.34938195813447 34.80101705342531,247.06748577707913 34.72224458446726,251.14462634100346 34.72224458446726,254.0439152265899 34.72224458446726,256.7619902001461 34.80101705342531,259.7518633303116 35.03733446029946,262.2887177061057 37.08541865134612,263.0135319479741 37.08541865134612,263.0135319479741 37.08541865134612,263.0135319479741 45.51407282287255,263.3759388537146 45.7503902297467,260.8390874968027 45.51407282287255,258.12102465418866 45.67161776078865,254.1345178562333 45.59284529229626,251.50703795498703 45.59284529229626,248.7889473460964 45.67161776078865,245.98024522012565 45.7503902297467,243.17153445834992 45.7503902297467,240.6346269926289 45.82916269870475,238.36952508753166 45.90793516719714,235.8326042855042 45.90793516719714,232.0272098723217 46.0654801055789,229.309061299311 45.90793516719714,226.590904638113 45.90793516719714,223.9633455100702 45.67161776078865,221.1545670495252 45.67161776078865,218.43638612196082 45.82916269870475,214.5403126864112 43.623533569741994,214.08727981313132 39.44859271822497,214.44970612972975 36.06137655582279,214.44970612972975 34.40715470863506,215.62759066588478 34.56469964655116,218.34577995189466 34.56469964655116,220.70153745659627 34.80101705342531,224.50697905325796 34.80101705342531,226.86272066819947 34.87978952238336,229.21845620754175 34.80101705342531,231.483580804721 34.80101705342531,233.83930442738347 34.95856199087575,236.19502197456313 34.95856199087575,238.46012927172706 34.95856199087575,241.17825061414624 34.87978952238336,243.17153445834992 34.87978952238336,245.43662445631344 35.11610692879185,247.88291534566088 35.03733446029946,250.51040567073505 35.03733446029946,253.22849115758436 35.11610692879185,257.12439958541654 35.03733446029946,259.5706591766793 35.1948793977499,262.19811588537414 35.90383161790669,264.37255710182944 38.267005684785545,264.5537603032426 38.267005684785545,264.5537603032426 38.267005684785545,264.5537603032426 45.90793516719714,263.9195489419508 46.0654801055789,261.38269909471273 45.98670763662085,259.02704650029773 46.0654801055789,255.22174870810704 45.90793516719714,252.77547747147037 45.7503902297467,250.41980268177576 45.82916269870475,247.70170883799437 45.7503902297467,244.7117962682387 45.82916269870475,243.26213816629024 45.82916269870475,243.26213816629024 45.82916269870475,243.26213816629024 42.599491473753005,240.36281506059458 42.52071900526062,238.18831669242354 42.52071900526062,235.3795819725492 42.993353818077594,232.84265286667505 43.308443693909794,230.4869266738533 43.308443693909794,227.94998397969175 43.229671224951744,225.05061227281112 43.229671224951744,221.33577882364625 43.072126287501305,218.79881071310956 42.36317406734452,216.26183555612806 41.33913197182119,214.1778864056687 38.660868029575795,214.08727981313132 34.48592717759311,214.5403126864112 34.17083730222657,216.62426100979792 34.24960977071896,219.07062906184 34.32838224014267,221.4263846972608 34.64347211550921,223.78213425696595 34.56469964655116,226.04727233515587 34.56469964655116,228.221799605235 34.56469964655116,230.75874154473422 34.56469964655116,234.6547458038549 34.56469964655116,237.19166987709468 34.64347211550921,239.72858690458816 34.32838224014267,241.9936854398111 34.32838224014267,244.6211927040713 34.56469964655116,247.24869241076522 34.64347211550921,249.87618456000928 34.64347211550921,253.04728571028681 34.56469964655116,255.58415870461613 34.48592717759311,258.0304224200081 34.56469964655116,260.47667958488455 34.72224458446726,263.1041336879134 35.58874174207449,264.5537603032426 45.35652788542211,264.64436188997934 45.35652788542211,264.64436188997934 45.35652788542211,264.64436188997934 45.67161776078865,263.82894728309475 45.59284529229626,260.47667958488455 45.51407282287255,258.0304224200081 45.59284529229626,255.58415870461613 45.67161776078865,253.22849115758436 45.51407282287255,250.87281753629213 45.59284529229626,248.60774101765128 45.43530035438016,246.16145206952933 45.43530035438016,242.62791202310473 45.04143800958991,241.8124777636258 45.27775541646406,241.3594584161183 45.59284529229626,240.00039902533172 45.82916269870475,237.10106556734536 45.7503902297467,234.02051368472166 45.59284529229626,230.84934648370836 45.67161776078865,228.04058919718955 45.59284529229626,223.600922968355 45.67161776078865,220.3391136204591 45.67161776078865,217.2585052079521 45.19898294750601,214.44970612972975 42.20562912942842,214.5403126864112 39.29104778030887,214.44970612972975 36.45523890014738,214.3590995639679 34.17083730222657,216.98668631986948 34.17083730222657,219.7954775969265 34.32838224014267,222.51365447981516 34.32838224014267,225.32242876128294 34.32838224014267,228.13119440583978 34.24960977071896,230.84934648370836 34.17083730222657,235.01716396026313 34.32838224014267,237.91650403250242 34.40715470863506,240.54402302438393 34.40715470863506,240.54402302438393 34.40715470863506,240.54402302438393 34.40715470863506,240.54402302438393 34.40715470863506,240.54402302438393 34.40715470863506,240.54402302438393 34.40715470863506,240.54402302438393 33.85574742639437,241.5406661821762 34.40715470863506,244.1681747494731 34.72224458446726,248.42653465346666 34.64347211550921,251.50703795498703 34.72224458446726,254.85933856805786 34.72224458446726,257.9398201772128 34.48592717759311,260.92968945240136 34.64347211550921,263.9195489419508 35.1948793977499,266.27518892101943 37.873143339995295,265.91278316569515 37.873143339995295,265.91278316569515 45.12021047854796,265.55037726665614 46.0654801055789,264.19135386502603 45.7503902297467,261.83570851275 45.67161776078865,259.11764863552526 45.51407282287255,256.3995806709281 45.43530035438016,252.5036691519781 45.43530035438016,249.69497844745638 45.43530035438016,246.8862791073625 45.35652788542211,244.1681747494731 45.43530035438016,241.3594584161183 45.67161776078865,238.64133761281846 45.43530035438016,235.9232087212731 45.43530035438016,231.93660505017033 45.43530035438016,229.49027145589935 45.59284529229626,226.68150999041973 45.51407282287255,224.05395112314727 45.51407282287255,221.33577882364625 45.51407282287255,218.43638612196082 44.01739591406658,215.62759066588478 41.18158703343943,215.71819710562704 38.267005684785545,215.89940995845245 35.58874174207449,216.0806227750145 34.32838224014267,217.62093026639195 34.56469964655116,220.15790164843202 34.56469964655116,222.78547172335675 34.40715470863506,226.95332599349786 34.40715470863506,229.67148157639895 34.32838224014267,232.29902428446803 34.32838224014267,234.8359549001907 34.32838224014267,237.4634827528498 34.32838224014267,240.00039902533172 34.32838224014267,243.71515657001873 34.56469964655116,246.61446903564502 34.80101705342531,249.33256611489924 34.72224458446726,252.14125793334097 34.80101705342531,254.85933856805786 34.87978952238336,257.8492179252207 34.95856199087575,260.56728157622274 34.95856199087575,264.73496346821776 35.90383161790669,266.5469931430416 37.08541865134612,266.27518892101943 37.08541865134612,266.27518892101943 37.08541865134612,266.27518892101943 46.0654801055789,265.09736969077494 45.7503902297467,262.6511248992174 45.59284529229626,260.11427152960096 45.51407282287255,257.3056042245007 45.59284529229626,254.49692828400293 45.59284529229626,251.5976408359711 45.59284529229626,247.33929571404587 45.7503902297467,244.25877835828578 46.0654801055789,241.6312700517592 45.82916269870475,238.82254591782112 45.67161776078865,235.9232087212731 45.67161776078865,232.9332575989538 45.7503902297467,230.305716715171 45.98670763662085,226.50029927666765 45.98670763662085,223.69152861717157 45.98670763662085,220.70153745659627 45.82916269870475,217.71153650869383 44.88389307213947,215.80880353640532 42.20562912942842,215.89940995845245 38.030688277911395,215.89940995845245 35.1948793977499,216.17122917016968 34.64347211550921,218.43638612196082 34.80101705342531,221.1545670495252 34.80101705342531,223.78213425696595 34.80101705342531,226.50029927666765 34.95856199087575,229.39966638194164 34.95856199087575,233.38628112524748 35.11610692879185,236.10441756574437 35.03733446029946,238.82254591782112 35.03733446029946,241.45006230374565 35.03733446029946,243.89636386890197 35.03733446029946,246.43326227611396 34.95856199087575,248.87955049681477 34.95856199087575,252.5036691519781 35.27365186670795,255.13114618661348 35.27365186670795,257.75861566414824 35.43119680462405,260.29547557531623 35.27365186670795,262.832328441611 35.1948793977499,265.36917426314903 37.400508526712656,266.72819591278676 38.424550622235984,267.0 38.424550622235984,267.0 45.35652788542211,267.0 46.0654801055789,265.36917426314903 45.98670763662085,262.832328441611 45.67161776078865,260.29547557531623 45.67161776078865,256.127773429791 45.67161776078865,253.13788843847578 45.82916269870475,250.41980268177576 45.51407282287255,247.5205022941227 45.67161776078865,244.7117962682387 45.90793516719714,241.8124777636258 45.59284529229626,238.18831669242354 45.67161776078865,233.38628112524748 45.67161776078865,230.03390170948114 45.7503902297467,227.04393130977405 45.7503902297467,224.14455672720214 45.7503902297467,221.4263846972608 45.7503902297467,219.07062906184 44.72634813422337,215.89940995845245 42.36317406734452,215.80880353640532 39.76368259359151,215.80880353640532 36.84910124493763,215.99001637124456 34.80101705342531,216.98668631986948" stroke="#4dd2ff" stroke-linecap="round" stroke-linejoin="round" stroke-width="0.5"><title>2020-08-08 10.1km</title><desc>448377777</desc></polyline></svg>