<?xml version="1.0" encoding="utf-8" ?>
<svg baseProfile="full" height="200mm" version="1.1" viewBox="0,0,200,200" width="200mm" xmlns="http://www.w3.org/2000/svg" xmlns:ev="http://www.w3.org/2001/xml-events" xmlns:xlink="http://www.w3.org/1999/xlink"><defs /><rect fill="#1a1a1a" height="200" width="200" x="0" y="0" /><text alignment-baseline="middle" fill="#e1ed5e" style="dominant-baseline: central; font-size:9.0px; font-family:Arial;" text-anchor="middle" x="100.0" y="100.0">2024</text><line stroke="#e1ed5e" stroke-width="0.3" x1="100.0" x2="100.0" y1="15.0" y2="10.0" /><path d="M 100.0 14.0 a86.0,86.0 0 0,1 42.35913384403234,11.155469271406648" fill="none" id="id61" stroke="none" /><text fill="#e1ed5e" style="font-size:6.75px; font-family:Arial;" text-anchor="middle"><textPath startOffset="22.145653131862478" xlink:href="#id61">January</textPath></text><path d="M 104.29559338865022 79.4440306129975 l 2.934613305117475 -14.043187006962114 a35.34653465346535,35.34653465346535 0 0,0 0.5928751403440317,0.12921437739869118 l -3.175250862080641 13.990741171429704" fill="#ff810b" stroke="none" /><path d="M 106.72888874123014 80.10723608172694 l 4.569708870619383 -13.509532291932507 a35.26147614761476,35.26147614761476 0 0,0 0.5717299570207185,0.1988773573747025 l -4.80094459968512 13.429096501989214" fill="#ff7f0b" stroke="none" /><path d="M 109.06512990194946 81.05736502329252 l 6.254205283388171 -13.068883627044361 a35.488298829882986,35.488298829882986 0 0,0 0.5472629451039325,0.26769373014623515 l -6.4776284777541715 12.959596146800905" fill="#ff830c" stroke="none" /><line stroke="#e1ed5e" stroke-width="0.3" x1="143.13028292997686" x2="145.6673583964461" y1="26.7553504044142" y2="22.446841604673864" /><path d="M 143.63769802327073 25.89364864446614 a86.0,86.0 0 0,1 29.32050498858742,28.57503671076993" fill="none" id="id62" stroke="none" /><text fill="#e1ed5e" style="font-size:6.75px; font-family:Arial;" text-anchor="middle"><textPath startOffset="20.669276256404974" xlink:href="#id62">February</textPath></text><path d="M 111.27062007382361 82.28071324371311 l 7.654079969126832 -12.03348502035865 a35.26147614761476,35.26147614761476 0 0,0 0.5079572934514427,0.32925178064931093 l -7.8595228948352815 11.900319398005445" fill="#ff7f0b" stroke="none" /><path d="M 111.5731344415666 82.4767994020092 l 3.7969464482007442 -5.749060862257106 a27.88973897389739,27.88973897389739 0 0,0 0.39723449767135466,0.26727709804565364 l -3.8950772339690998 5.683034090154334" fill="#ff1001" stroke="none" /><path d="M 112.16784306229584 82.88440491214696 l 16.855364962082174 -23.709181674352678 a50.09000900090009,50.09000900090009 0 0,0 0.6965349437524618,0.5042375840336202 l -17.259880916208605 23.416343318945984" fill="#b7ff1f" stroke="none" /><path d="M 112.7482090630111 83.31218511350987 l 8.829655152103554 -11.558302029841725 a35.54500450045005,35.54500450045005 0 0,0 0.4817026094630581,0.37457486267065965 l -9.026767706201838 11.405026115550275" fill="#ff840c" stroke="none" /><path d="M 115.41159269507618 85.73525988315684 l 4.681739455074897 -4.3333481453056395 a27.37938793879388,27.37938793879388 0 0,0 0.3163001173092173,0.347669236547896 l -4.755437273225992 4.2523413332000715" fill="#ff0801" stroke="none" /><path d="M 115.6541949942343 86.00192230759917 l 4.6286256126066325 -4.138945564314737 a27.20927092709271,27.20927092709271 0 0,0 0.30835740182863136,0.35085411889346246 l -4.698994078393854 4.058879167609977" fill="#ff0500" stroke="none" /><path d="M 117.21940702142032 87.97951657250589 l 5.32391207187928 -3.716504102020007 a27.492799279927993,27.492799279927993 0 0,0 0.2668245074726461,0.38930493054960774 l -5.386926316167251 3.6245644364003504" fill="#ff0901" stroke="none" /><path d="M 117.42321728460499 88.27688183743584 l 11.92651372182007 -8.024690695436584 a35.374887488748875,35.374887488748875 0 0,0 0.3346726485687348,0.5067370456241689 l -12.062510809309531 7.818773771473356" fill="#ff810b" stroke="none" /><path d="M 117.62189284568427 88.57770195909679 l 16.916065454475493 -10.964789253486302 a41.15886588658866,41.15886588658866 0 0,0 0.3792148753236946,0.5961887699254652 l -17.10179802142508 10.672786808882165" fill="#ffd313" stroke="none" /><line stroke="#e1ed5e" stroke-width="0.3" x1="172.87174338648825" x2="177.1583165268699" y1="56.24261187166439" y2="53.66864786411523" /><path d="M 173.72905801456457 55.72781907015455 a86.0,86.0 0 0,1 12.242430191666344,42.057860355516425" fill="none" id="id63" stroke="none" /><text fill="#e1ed5e" style="font-size:6.75px; font-family:Arial;" text-anchor="middle"><textPath startOffset="22.145653131862474" xlink:href="#id63">March</textPath></text><path d="M 118.00360718960297 89.18935116829356 l 12.299494020619857 -7.385492766215295 a35.34653465346535,35.34653465346535 0 0,0 0.3078957354251435,0.5228742711890634 l -12.42446346617477 7.173267326732676" fill="#ff810b" stroke="none" /><path d="M 118.36410011445183 89.81374322990088 l 55.092300343355504 -30.558770310297362 a84.0,84.0 0 0,0 0.6886186015386349,1.2669806661015868 l -55.60876429450948 29.60853481072117" fill="#4dd2ff" stroke="none" /><path d="M 118.70294669586156 90.45014215332178 l 7.726959976058012 -3.945440820544828 a29.675967596759676,29.675967596759676 0 0,0 0.22777023965578122,0.45569305654627523 l -7.7935501289255305 3.8122159078348026" fill="#ff2c04" stroke="none" /><path d="M 118.8641267826498 90.77261029715802 l 5.373983912429042 -2.6286848253370696 a26.982448244824482,26.982448244824482 0 0,0 0.1999537437103741,0.41782642061391967 l -5.418316914099328 2.536045902658046" fill="#ff0100" stroke="none" /><path d="M 119.0197475246899 91.09779779509293 l 12.91665122176285 -6.045644971739322 a35.26147614761476,35.26147614761476 0 0,0 0.2518937721088223,0.5504333516458205 l -13.018529458726723 5.823022637878817" fill="#ff7f0b" stroke="none" /><path d="M 119.16976305983485 91.42560881287824 l 26.011177149145844 -11.634468689996448 a49.494599459945995,49.494599459945995 0 0,0 0.34025443738844574,0.7785687401367583 l -26.20706546855126 11.18623788008384" fill="#bfff1e" stroke="none" /><path d="M 119.4528033332814 92.08871423366111 l 13.210747178182546 -5.372695869219342 a35.26147614761476,35.26147614761476 0 0,0 0.22322416008163354,0.5626707042197064 l -13.301030013230305 5.1451241477860705" fill="#ff7f0b" stroke="none" /><path d="M 119.58574465831526 92.42381321644754 l 5.923321516826221 -2.291268010147277 a27.351035103510352,27.351035103510352 0 0,0 0.16562916338479247,0.439351033806529 l -5.961781364025454 2.18924869614659" fill="#ff0701" stroke="none" /><path d="M 119.71291397450082 92.76114493625339 l 6.707004034528633 -2.4629047831649125 a28.144914491449143,28.144914491449143 0 0,0 0.1626505731814298,0.45496260121405474 l -6.748294777754006 2.347407225569941" fill="#ff1402" stroke="none" /><path d="M 119.94978838288452 93.4421083053983 l 6.248898611380569 -2.054137092458494 a27.577857785778576,27.577857785778576 0 0,0 0.14397648936181978,0.45100430229006866 l -6.283239816519646 1.9465637564770386" fill="#ff0b01" stroke="none" /><path d="M 120.05942366710727 93.78553927170692 l 51.80964555604347 -16.050760629916276 a75.23897389738974,75.23897389738974 0 0,0 0.37162205960896616,1.2370089729137042 l -52.07754393565607 15.159014053411848" fill="#41ffd0" stroke="none" /><path d="M 120.35273937422433 94.82641323984039 l 6.594947051953876 -1.6764097512668406 a27.804680468046804,27.804680468046804 0 0,0 0.11361849549463153,0.4636022340247456 l -6.622753073964799 1.562951692634" fill="#ff0e01" stroke="none" /><path d="M 120.51834098615036 95.52812308129327 l 8.89251231758002 -1.9380816708886512 a30.1012601260126,30.1012601260126 0 0,0 0.10570170613158943,0.5058209282880229 l -8.924471734535976 1.785144291315224" fill="#ff3204" stroke="none" /><path d="M 120.592083275326 95.88100663000786 l 19.5448711195601 -3.909521609952033 a40.932043204320436,40.932043204320436 0 0,0 0.1319058632430146,0.6901872145997817 l -19.60910327508527 3.573431830318937" fill="#ffd013" stroke="none" /><path d="M 120.7213421655516 96.59031103205396 l 59.19850588070279 -9.741091614996167 a80.99459945994599,80.99459945994599 0 0,0 0.21397426299507977,1.3738682632077175 l -59.357001635836134 8.723435169857009" fill="#49f0ff" stroke="none" /><path d="M 120.77682067341334 96.94652285012252 l 19.27138947250446 -2.8322306057144453 a40.47839783978398,40.47839783978398 0 0,0 0.09513480449776089,0.6883480539959645 l -19.317168793557432 2.500994243518395" fill="#ffc912" stroke="none" /><path d="M 120.93736805541906 98.37931529534042 l 6.190751940778724 -0.47920335326793084 a27.20927092709271,27.20927092709271 0 0,0 0.032049980110609694,0.46599967680453286 l -6.1980658820544 0.37286025230906383" fill="#ff0500" stroke="none" /><path d="M 120.98066250479742 99.09900007780936 l 14.361650616470243 -0.6167510718505699 a35.374887488748875,35.374887488748875 0 0,0 0.020846443101168965,0.6069214454259672 l -14.37012174656826 0.3701233618604828" fill="#ff810b" stroke="none" /><line stroke="#e1ed5e" stroke-width="0.3" x1="184.99686870605535" x2="189.99668451229388" y1="99.2704041080226" y2="99.22748670261217" /><path d="M 185.99683186730306 99.26182062694052 a86.0,86.0 0 0,1 -10.086455211305974,41.156179273409016" fill="none" id="id64" stroke="none" /><text fill="#e1ed5e" style="font-size:6.75px; font-family:Arial;" text-anchor="middle"><textPath startOffset="21.40746469413373" xlink:href="#id64">April</textPath></text><path d="M 120.99922638620191 99.81974689727618 l 28.408494382053522 -0.24385275733025533 a49.409540954095405,49.409540954095405 0 0,0 0.0,0.8482117201081609 l -28.408494382053522 -0.24385275733025188" fill="#c0ff1e" stroke="none" /><path d="M 120.99303781780057 100.54070618675476 l 14.256748004977975 0.3672032564414602 a35.26147614761476,35.26147614761476 0 0,0 -0.0207796097276185,0.604975664676554 l -14.248343708253511 -0.6118851856821248" fill="#ff7f0b" stroke="none" /><path d="M 120.98066250479742 100.90099992219065 l 14.8998584304997 0.6398640311506913 a35.913591359135914,35.913591359135914 0 0,0 -0.031738055834844216,0.6157098043062212 l -14.886678785208282 -0.8955456288336432" fill="#ff890c" stroke="none" /><path d="M 120.96210409425399 101.26102812881392 l 7.103719344272392 0.42734211566016045 a28.116561656165615,28.116561656165615 0 0,0 -0.033118683858653644,0.48153839475284793 l -7.095336699248672 -0.5492239345673519" fill="#ff1302" stroke="none" /><path d="M 120.93736805541906 101.62068470465957 l 6.784385688524628 0.5251543597456751 a27.804680468046804,27.804680468046804 0 0,0 -0.04092104501496245,0.4755645718365509 l -6.774371020811924 -0.6415399789578834" fill="#ff0e01" stroke="none" /><path d="M 120.86939407059847 102.33845913500097 l 6.227006421605213 0.697749057833326 a27.265976597659765,27.265976597659765 0 0,0 -0.056113267840175673,0.46469835376956176 l -6.214111067505374 -0.8045410885262962" fill="#ff0600" stroke="none" /><path d="M 120.7213421655516 103.40968896794604 l 6.238783937333043 1.0265895227524293 a27.32268226822682,27.32268226822682 0 0,0 -0.08012725590906866,0.4621527190938704 l -6.22024186393174 -1.1335352747668876" fill="#ff0701" stroke="none" /><path d="M 120.65975698304385 103.76489593502545 l 5.801839944833197 1.0572885074058869 a26.8973897389739,26.8973897389739 0 0,0 -0.08667838531276995,0.4535379387557097 l -5.7828352672382675 -1.1567290111949111" fill="#ff0000" stroke="none" /><path d="M 119.83427380445688 106.89939002012753 l 8.060463206761732 2.803847519430765 a29.534203420342035,29.534203420342035 0 0,0 -0.1706793288085857,0.4774204596352927 l -8.011143707909204 -2.941802935446979" fill="#ff2904" stroke="none" /><path d="M 119.58574465831526 107.57618678355244 l 13.274586613601617 5.134895272740768 a35.23312331233123,35.23312331233123 0 0,0 -0.22304467134396402,0.5622182753500597 l -13.184483267291528 -5.362014565304392" fill="#ff7f0b" stroke="none" /><path d="M 119.4528033332814 107.91128576633889 l 15.837138267284448 6.440826260714241 a38.0967596759676,38.0967596759676 0 0,0 -0.2515731416172038,0.6036839578947836 l -15.724239281130759 -6.711742728050302" fill="#ffa80f" stroke="none" /><line stroke="#e1ed5e" stroke-width="0.3" x1="174.33088141563837" x2="178.70328620479359" y1="141.23008692659167" y2="143.65538615756765" /><path d="M 175.20536237346943 141.71514677278685 a86.0,86.0 0 0,1 -30.301960400862466,31.631185727798858" fill="none" id="id65" stroke="none" /><text fill="#e1ed5e" style="font-size:6.75px; font-family:Arial;" text-anchor="middle"><textPath startOffset="22.145653131862474" xlink:href="#id65">May</textPath></text><path d="M 118.36410011445183 110.18625677009912 l 12.496183336206645 6.931422248600298 a35.289828982898285,35.289828982898285 0 0,0 -0.298395056260204,0.5272354727497189 l -12.375354914925063 -7.144914491449139" fill="#ff800b" stroke="none" /><path d="M 117.81537515405839 111.11811171558189 l 12.122793534174738 7.565519763258241 a35.289828982898285,35.289828982898285 0 0,0 -0.3251408368447016,0.5111753999774252 l -11.991135005704146 -7.772508837914338" fill="#ff800b" stroke="none" /><path d="M 117.423217284605 111.72311816256416 l 23.5707430951947 15.85944788328886 a49.409540954095405,49.409540954095405 0 0,0 -0.47953197836611394,0.6996514874229567 l -23.295021380013264 -16.261734105781862" fill="#c0ff1e" stroke="none" /><path d="M 117.21940702142032 112.02048342749411 l 11.763753311663388 8.212013430664294 a35.34653465346535,35.34653465346535 0 0,0 -0.3515884480188781,0.4945531827661814 l -11.621049765114549 -8.41274384013998" fill="#ff810b" stroke="none" /><path d="M 117.01052211995028 112.31430620078461 l 48.50525119352159 35.11406124580165 a80.88118811881188,80.88118811881188 0 0,0 -0.8238248948702066,1.1176766900436308 l -47.89532427906755 -35.94154424511416" fill="#49f1ff" stroke="none" /><path d="M 116.57777611688842 112.89097897827486 l 11.235882462661541 8.737090162593125 a35.23312331233123,35.23312331233123 0 0,0 -0.3753729732530415,0.47427148923765167 l -11.084243058766939 -8.92868159574546" fill="#ff7f0b" stroke="none" /><path d="M 116.35404254752997 113.17365903436017 l 33.23064901084511 26.768258568918167 a63.67101710171017,63.67101710171017 0 0,0 -0.6929625467098857,0.8453016328520493 l -32.766239644896594 -27.334762483468708" fill="#32ff45" stroke="none" /><path d="M 116.1254893667686 113.45245675266167 l 10.929337077566837 9.117641705449362 a35.23312331233123,35.23312331233123 0 0,0 -0.39143234349481415,0.4611063163942631 l -10.771210170564908 -9.303914804293182" fill="#ff7f0b" stroke="none" /><path d="M 115.89218393027572 113.72728997021213 l 21.49950715319928 18.570762218927825 a49.409540954095405,49.409540954095405 0 0,0 -0.5599487658076124,0.6371189071118628 l -21.17754732343308 -18.93709340385098" fill="#c0ff1e" stroke="none" /><path d="M 115.6541949942343 113.99807769240083 l 23.52356304489124 21.034915128229684 a52.556705670567055,52.556705670567055 0 0,0 -0.607160839612199,0.6673761216578701 l -23.15900450443716 -21.435628825445228" fill="#99ff23" stroke="none" /><path d="M 115.41159269507618 114.26474011684316 l 14.565411638010792 13.481527563173099 a40.846984698469846,40.846984698469846 0 0,0 -0.4807187608424322,0.5105066652204695 l -14.3318370434321 -13.729575688338066" fill="#ffce13" stroke="none" /><path d="M 115.16444852881244 114.52719865689866 l 20.51500102502709 19.6529069138782 a49.409540954095405,49.409540954095405 0 0,0 -0.5920044120538165,0.6074486795093921 l -20.174609811822467 -20.00217828545533" fill="#c0ff1e" stroke="none" /><path d="M 114.91283532996324 114.78537596483092 l 20.19474415295203 20.022140539233227 a49.43789378937893,49.43789378937893 0 0,0 -0.602690488658935,0.597539318854127 l -19.84806174416313 -20.36585986831602" fill="#bfff1e" stroke="none" /><path d="M 114.13192950727249 115.5334660781643 l 7.7655652242933035 8.535716508298208 a32.53960396039604,32.53960396039604 0 0,0 -0.4164061713083303,0.37235296607178164 l -7.617894026161595 -8.667765004253376" fill="#ff5708" stroke="none" /><path d="M 113.86319453409587 115.77377054828091 l 9.564481197465781 10.882623875119098 a35.488298829882986,35.488298829882986 0 0,0 -0.4610445785285676,0.39823932610035334 l -9.376257139174358 -11.04520733368417" fill="#ff830c" stroke="none" /><path d="M 113.59037401385872 116.0094264158162 l 9.211117580950152 10.850673349333567 a35.23312331233123,35.23312331233123 0 0,0 -0.4644491819281977,0.3874600262720737 l -9.02349406486006 -11.00719555951751" fill="#ff7f0b" stroke="none" /><path d="M 112.7482090630111 116.68781488649013 l 13.80386633915604 18.069704148017664 a43.73897389738974,43.73897389738974 0 0,0 -0.6005715424486829,0.45068008182814545 l -13.491641807796592 -18.304003257109827" fill="#fff617" stroke="none" /><path d="M 111.27062007382361 117.71928675628689 l 15.277726220682592 24.019123181789443 a49.46624662466247,49.46624662466247 0 0,0 -0.7204072681884034,0.44958741644074685 l -14.863154823704473 -24.277846395071737" fill="#bfff1e" stroke="none" /><line stroke="#e1ed5e" stroke-width="0.3" x1="143.1302829299769" x2="145.66735839644613" y1="173.24464959558577" y2="177.55315839532614" /><path d="M 143.63769802327073 174.10635135553383 a86.0,86.0 0 0,1 -40.68552437913181,11.842963189579606" fill="none" id="id66" stroke="none" /><text fill="#e1ed5e" style="font-size:6.75px; font-family:Arial;" text-anchor="middle"><textPath startOffset="21.407464694133747" xlink:href="#id66">June</textPath></text><path d="M 110.65571695917076 118.09573695890943 l 14.602456408944631 24.79816338428407 a49.77812781278128,49.77812781278128 0 0,0 -0.7400526875694333,0.42726961838272 l -14.174611253514799 -25.045179899942962" fill="#bbff1f" stroke="none" /><path d="M 110.02825361518725 118.45085714620011 l 13.593654315456352 25.010792855245157 a49.46624662466247,49.46624662466247 0 0,0 -0.7495577579537255,0.39909728710174464 l -13.162307741716074 -25.24046061006947" fill="#bfff1e" stroke="none" /><path d="M 109.71004243097381 118.62028667847754 l 13.712922208999014 26.29633645232337 a50.657065706570656,50.657065706570656 0 0,0 -0.774504991726012,0.3954677673418531 l -13.25948999555942 -26.52786217133806" fill="#b0ff20" stroke="none" /><path d="M 109.06512990194946 118.94263497670748 l 16.792112815672358 35.08905740959856 a59.9000900090009,59.9000900090009 0 0,0 -0.9313359727643535,0.43591226116379755 l -16.1872881290365 -35.37214590233289" fill="#46ff2d" stroke="none" /><line stroke="#e1ed5e" stroke-width="0.3" x1="101.45913802915013" x2="101.54496967792366" y1="184.9874750549273" y2="189.98673829345242" /><path d="M 101.47630435890484 185.9873277026323 a86.0,86.0 0 0,1 -42.54439059252881,-10.42667462771756" fill="none" id="id67" stroke="none" /><text fill="#e1ed5e" style="font-size:6.75px; font-family:Arial;" text-anchor="middle"><textPath startOffset="22.145653131862474" xlink:href="#id67">July</textPath></text><line stroke="#e1ed5e" stroke-width="0.3" x1="58.13341422392154" x2="55.67067388415222" y1="173.97424548756322" y2="178.32567169271397" /><path d="M 57.64086615596768 174.84453072859336 a86.0,86.0 0 0,1 -31.369924170532247,-30.572349798747897" fill="none" id="id68" stroke="none" /><text fill="#e1ed5e" style="font-size:6.75px; font-family:Arial;" text-anchor="middle"><textPath startOffset="22.145653131862474" xlink:href="#id68">August</textPath></text><line stroke="#e1ed5e" stroke-width="0.3" x1="26.387840678322732" x2="22.057713659400548" y1="142.50000000000003" y2="145.00000000000006" /><path d="M 25.521815274538298 143.00000000000003 a86.0,86.0 0 0,1 -11.493303480769221,-40.785679425670985" fill="none" id="id69" stroke="none" /><text fill="#e1ed5e" style="font-size:6.75px; font-family:Arial;" text-anchor="middle"><textPath startOffset="21.40746469413373" xlink:href="#id69">September</textPath></text><line stroke="#e1ed5e" stroke-width="0.3" x1="15.003131293944662" x2="10.003315487706104" y1="100.72959589197737" y2="100.7725132973878" /><path d="M 14.003168132696942 100.73817937305945 a86.0,86.0 0 0,1 10.791469493833604,-42.45332614584628" fill="none" id="id70" stroke="none" /><text fill="#e1ed5e" style="font-size:6.75px; font-family:Arial;" text-anchor="middle"><textPath startOffset="22.145653131862435" xlink:href="#id70">October</textPath></text><line stroke="#e1ed5e" stroke-width="0.3" x1="26.387840678322718" x2="22.05771365940052" y1="57.49999999999999" y2="54.99999999999999" /><path d="M 25.521815274538284 56.99999999999999 a86.0,86.0 0 0,1 29.574782752854787,-30.34633250058573" fill="none" id="id71" stroke="none" /><text fill="#e1ed5e" style="font-size:6.75px; font-family:Arial;" text-anchor="middle"><textPath startOffset="21.40746469413373" xlink:href="#id71">November</textPath></text><line stroke="#e1ed5e" stroke-width="0.3" x1="56.869717070023135" x2="54.33264160355391" y1="26.7553504044142" y2="22.446841604673864" /><path d="M 56.362301976729285 25.89364864446614 a86.0,86.0 0 0,1 42.16139366436587,-11.88097634709845" fill="none" id="id72" stroke="none" /><text fill="#e1ed5e" style="font-size:6.75px; font-family:Arial;" text-anchor="middle"><textPath startOffset="22.145653131862474" xlink:href="#id72">December</textPath></text></svg>