<?xml version="1.0" encoding="utf-8" ?>
<svg baseProfile="full" height="200mm" version="1.1" viewBox="0,0,200,200" width="200mm" xmlns="http://www.w3.org/2000/svg" xmlns:ev="http://www.w3.org/2001/xml-events" xmlns:xlink="http://www.w3.org/1999/xlink"><defs /><rect fill="#1a1a1a" height="200" width="200" x="0" y="0" /><text alignment-baseline="middle" fill="#e1ed5e" style="dominant-baseline: central; font-size:9.0px; font-family:Arial;" text-anchor="middle" x="100.0" y="100.0">2025</text><line stroke="#e1ed5e" stroke-width="0.3" x1="100.0" x2="100.0" y1="15.0" y2="10.0" /><path d="M 100.0 14.0 a86.0,86.0 0 0,1 42.46469731375804,11.215312516191453" fill="none" id="id73" stroke="none" /><text fill="#e1ed5e" style="font-size:6.75px; font-family:Arial;" text-anchor="middle"><textPath startOffset="22.20632615414155" xlink:href="#id73">January</textPath></text><path d="M 100.72285384407766 79.0124445844662 l 0.42806188950512863 -12.428477348322424 a33.43584682195026,33.43584682195026 0 0,0 0.57503155269397,0.024762068270004937 l -0.6419342745884301 12.419267553528226" fill="#ff8e0d" stroke="none" /><path d="M 101.08401301168833 79.027996857942 l 0.6419342745884301 -12.419267553528226 a33.43584682195026,33.43584682195026 0 0,0 0.5745201172640526,0.03465662241975272 l -0.8556164406920946 12.406377661728168" fill="#ff8e0d" stroke="none" /><path d="M 102.52436894288641 79.15227682838746 l 2.451617686340529 -20.246900514080878 a41.39478878799842,41.39478878799842 0 0,0 0.7066391474774277,0.09174204202189715 l -2.799771562325803 20.201700148894844" fill="#fff617" stroke="none" /><path d="M 102.88285421437855 79.19881850522331 l 2.0486133382871725 -14.781731816264516 a35.923016186340305,35.923016186340305 0 0,0 0.6117707097523231,0.09015909993309179 l -2.3027530284681514 14.744278232170455" fill="#ffb010" stroke="none" /><path d="M 104.66035177308747 79.52364482259891 l 1.2639801295345816 -5.5535949494175085 a26.695617844453217,26.695617844453217 0 0,0 0.44718504855139135,0.10583425302266204 l -1.3593888650484964 5.531014784253977" fill="#ff2f04" stroke="none" /><path d="M 106.0581310904928 79.89281104454417 l 1.4421843851429734 -4.7866699329411215 a25.999210422424003,25.999210422424003 0 0,0 0.42739560646631963,0.1327938953842935 l -1.5243653643200112 4.761135902674308" fill="#ff2503" stroke="none" /><path d="M 106.40334571778207 80.00007090966166 l 9.11585655677937 -28.4720664428583 a50.895775759968416,50.895775759968416 0 0,0 0.8320663854140541,0.2743192052003746 l -9.604605764435842 28.310933513398687" fill="#97ff23" stroke="none" /><line stroke="#e1ed5e" stroke-width="0.3" x1="143.23703022742887" x2="145.7803849466894" y1="26.81831364943548" y2="22.513508569990506" /><path d="M 143.74570117128098 25.957352633546492 a86.0,86.0 0 0,1 28.547481713284135,27.462654790039103" fill="none" id="id74" stroke="none" /><text fill="#e1ed5e" style="font-size:6.75px; font-family:Arial;" text-anchor="middle"><textPath startOffset="19.985693538727396" xlink:href="#id74">February</textPath></text><path d="M 110.68208982089419 81.91981866633111 l 3.7954523643129776 -6.424067587959728 a28.461508093170153,28.461508093170153 0 0,0 0.4196553599190092,0.25283765879533204 l -3.9054697904496245 6.357783319705781" fill="#ff4906" stroke="none" /><path d="M 111.60114157652 82.49532879139004 l 8.2852211259079 -12.501362106741192 a35.99763126727201,35.99763126727201 0 0,0 0.5135581590551896,0.3467567614682884 l -8.49918397936963 12.356893432974234" fill="#ffb110" stroke="none" /><path d="M 111.90073688211348 82.69761687909136 l 8.49918397936963 -12.356893432974234 a35.99763126727201,35.99763126727201 0 0,0 0.507513222237579,0.35554544521081394 l -8.71062834119086 12.208763144999484" fill="#ffb110" stroke="none" /><path d="M 112.48926042617603 83.11751280151076 l 22.232165519789863 -30.05256011764233 a58.38215554678247,58.38215554678247 0 0,0 0.8027653317147522,0.6046262047768745 l -22.746177005262997 29.665417323359605" fill="#47ff2c" stroke="none" /><path d="M 114.42810811169701 84.74124197986012 l 8.561171137734151 -9.054051837453708 a33.46071851559416,33.46071851559416 0 0,0 0.4150989454324043,0.39932485662350947 l -8.715753326778975 8.905343894067896" fill="#ff8f0d" stroke="none" /><path d="M 114.94478906791727 85.2469230424477 l 44.8343672037518 -44.25923087265689 a84.0,84.0 0 0,0 1.0069429451875638,1.0377432177995427 l -45.58957441264248 43.480923459307235" fill="#4dd2ff" stroke="none" /><path d="M 115.9244219780498 86.31012108654704 l 11.316209854121459 -9.72829926735702 a35.923016186340305,35.923016186340305 0 0,0 0.3990694479906518,0.472372353437458 l -11.481989915599227 9.532067964290455" fill="#ffb010" stroke="none" /><path d="M 117.04232023915458 87.72973835380427 l 12.110610513414228 -8.71949110270522 a35.923016186340305,35.923016186340305 0 0,0 0.35698476841286036,0.5049296383980814 l -12.258907901630971 8.509734963975346" fill="#ffb010" stroke="none" /><line stroke="#e1ed5e" stroke-width="0.3" x1="172.23445277983987" x2="176.4835382374775" y1="55.19839476539836" y2="52.563006222186495" /><path d="M 173.08426987136738 54.67131705675599 a86.0,86.0 0 0,1 12.851231095245387,41.99856678651699" fill="none" id="id75" stroke="none" /><text fill="#e1ed5e" style="font-size:6.75px; font-family:Arial;" text-anchor="middle"><textPath startOffset="22.20632615414155" xlink:href="#id75">March</textPath></text><path d="M 118.3937258080291 89.86733742301442 l 7.69007328492018 -4.236277011065036 a29.77970785629688,29.77970785629688 0 0,0 0.24347307840792512,0.45111863713770556 l -7.7618544625465695 4.103277390594872" fill="#ff5c08" stroke="none" /><path d="M 118.73160827565052 90.50648371742162 l 9.273366276220194 -4.699908968951166 a31.396367943150416,31.396367943150416 0 0,0 0.24016724474751025,0.48416251020705764 l -9.352893533921113 4.539586870245159" fill="#ff720a" stroke="none" /><path d="M 118.89224826269711 90.83032412892265 l 13.425206029551834 -6.516153402265776 a35.923016186340305,35.923016186340305 0 0,0 0.2652175862943823,0.5586158756531933 l -13.535381809687971 6.284095110972043" fill="#ffb010" stroke="none" /><path d="M 119.04729006885535 91.15688171328212 l 33.86101349390275 -15.72071126928173 a58.33241215949467,58.33241215949467 0 0,0 0.41498701059845666,0.9143688692409184 l -34.12660282146455 15.13552039119875" fill="#47ff2c" stroke="none" /><path d="M 119.47837535516314 92.15188598940014 l 11.534766297964744 -4.647521127477211 a33.43584682195026,33.43584682195026 0 0,0 0.21049688642996534,0.5356916159712994 l -11.613056734276409 4.448280506610128" fill="#ff8e0d" stroke="none" /><path d="M 119.61058180528143 92.48833698450437 l 18.580890774842253 -7.117248810576203 a40.89735491512041,40.89735491512041 0 0,0 0.24615419065198682,0.659570850783379 l -18.700649553995866 6.796354822763491" fill="#fff016" stroke="none" /><path d="M 119.85752413597 93.16781622104841 l 7.079093681318953 -2.435634406787714 a28.486379786814055,28.486379786814055 0 0,0 0.155539304619107,0.46504272339476077 l -7.11997027970983 2.313418580470639" fill="#ff4906" stroke="none" /><path d="M 120.28053869075195 94.5502522615342 l 14.411752721418678 -3.8726987482188844 a35.923016186340305,35.923016186340305 0 0,0 0.15533055428581857,0.5985519889841417 l -14.476279607574797 3.6240503336858922" fill="#ffb010" stroke="none" /><path d="M 120.37134235888165 94.90015583598534 l 14.476279607574797 -3.6240503336858922 a35.923016186340305,35.923016186340305 0 0,0 0.14500445182387262,0.6011370672008658 l -14.536516859659491 3.37432803482562" fill="#ffb010" stroke="none" /><path d="M 120.45610955862082 95.25157060432595 l 14.560744387758925 -3.379951914883663 a35.94788787998421,35.94788787998421 0 0,0 0.13472859769410384,0.6039618858394618 l -14.616767372455065 3.128811859494238" fill="#ffb010" stroke="none" /><path d="M 120.78858239683441 97.02765380044208 l 14.797399945318771 -2.1157284634042304 a35.94788787998421,35.94788787998421 0 0,0 0.08231039403285521,0.6133080413768714 l -14.831626338409462 1.8607020799626948" fill="#ffb010" stroke="none" /><path d="M 120.83666639777658 97.38593545837742 l 15.720043223904868 -1.9721584441534714 a36.84326885116462,36.84326885116462 0 0,0 0.07352801865457989,0.6299431610281699 l -15.751661595563037 1.7012715448004487" fill="#ffbc11" stroke="none" /><line stroke="#e1ed5e" stroke-width="0.3" x1="184.98032266829074" x2="189.97916517819016" y1="98.17113171792111" y2="98.06355123074" /><path d="M 185.9800911702706 98.14961562048488 a86.0,86.0 0 0,1 -9.607161424134198,41.387399972396054" fill="none" id="id76" stroke="none" /><text fill="#e1ed5e" style="font-size:6.75px; font-family:Arial;" text-anchor="middle"><textPath startOffset="21.466115282336823" xlink:href="#id76">April</textPath></text><path d="M 120.99980553446 99.90962569577887 l 19.897170660364775 -0.0856290288711852 a40.89735491512041,40.89735491512041 0 0,0 -0.003029720280648099,0.704000293731237 l -19.895696642794626 -0.2568807430637365" fill="#fff016" stroke="none" /><path d="M 120.9764740272857 100.99374915477107 l 14.980829654701875 0.7097087331152213 a35.99763126727201,35.99763126727201 0 0,0 -0.034649689872225733,0.6186934890136565 l -14.96639361394212 -0.9674739384643012" fill="#ffb110" stroke="none" /><path d="M 120.8583938346157 102.4346265915055 l 7.411194019405499 0.8650469531602675 a28.461508093170153,28.461508093170153 0 0,0 -0.06098690041672735,0.4861256018678931 l -7.3952056097419225 -0.9924903093155555" fill="#ff4906" stroke="none" /><path d="M 120.49622156327973 104.57218783832717 l 16.99252478598004 3.790601839908035 a38.41018555073036,38.41018555073036 0 0,0 -0.14950603949615032,0.6440681052128302 l -16.92475818055334 -4.0825386024694295" fill="#ffd013" stroke="none" /><path d="M 120.32669344350535 105.2749913415812 l 2.407425200573078 0.6247522315335027 a23.487169364390052,23.487169364390052 0 0,0 -0.10492269235047182,0.3904563704357173 l -2.3963144318808287 -0.6660995351447683" fill="#ff0000" stroke="none" /><path d="M 119.67450827220406 107.3425965602758 l 20.971643243170533 7.826691951340164 a43.38452427951046,43.38452427951046 0 0,0 -0.267136531735957,0.6974091886151433 l -20.833812431841068 -8.186524706788452" fill="#efff19" stroke="none" /><path d="M 119.41010516605496 108.01547362559984 l 4.620723811737522 1.9081447280839716 a25.999210422424003,25.999210422424003 0 0,0 -0.17437920370348173,0.4121809267709875 l -4.587193626841731 -1.9874001805211228" fill="#ff2503" stroke="none" /><path d="M 118.64920377521936 109.65438752849418 l 22.153752135663265 11.468634849285037 a45.946308724832214,45.946308724832214 0 0,0 -0.36964350549452923,0.6992262086034913 l -21.953056121943842 -11.848276072974661" fill="#d0ff1d" stroke="none" /><line stroke="#e1ed5e" stroke-width="0.3" x1="174.80103733775053" x2="179.2010983576182" y1="140.37084112569926" y2="142.7455964860345" /><path d="M 175.68104954172406 140.8457921977663 a86.0,86.0 0 0,1 -30.038265399797805,32.042727171017184" fill="none" id="id77" stroke="none" /><text fill="#e1ed5e" style="font-size:6.75px; font-family:Arial;" text-anchor="middle"><textPath startOffset="22.206326154141568" xlink:href="#id77">May</textPath></text><path d="M 118.12598468904814 110.60418214915192 l 7.041440558240574 4.119429622884129 a29.15791551519937,29.15791551519937 0 0,0 -0.2571715989614429,0.4310343923421129 l -6.969488083580904 -4.240026109112347" fill="#ff5307" stroke="none" /><path d="M 117.35343817320211 111.8261652097733 l 10.564153834614148 7.199347316806322 a33.78405053296486,33.78405053296486 0 0,0 -0.33162921567875836,0.47773661926091404 l -10.438663711773254 -7.380125198254255" fill="#ff930d" stroke="none" /><path d="M 117.14729908036423 112.12312394758627 l 6.295692121886593 4.45104827132066 a28.71022502960916,28.71022502960916 0 0,0 -0.288770461509391,0.4010769144582443 l -6.2181418680016 -4.558758791230035" fill="#ff4c07" stroke="none" /><path d="M 112.92097659922987 116.55440617244103 l 8.508562561198357 10.901203906684424 a34.828661666008685,34.828661666008685 0 0,0 -0.4757782122379916,0.3648064449203366 l -8.319655620466872 -11.046049693432131" fill="#ffa10e" stroke="none" /><path d="M 112.04921762599082 117.19931262002967 l 7.13534403434119 10.18514367550119 a33.43584682195026,33.43584682195026 0 0,0 -0.4742207991772253,0.3261733898502074 l -6.958966350541082 -10.306457854716491" fill="#ff8e0d" stroke="none" /><line stroke="#e1ed5e" stroke-width="0.3" x1="143.8653032363475" x2="146.44561519142675" y1="172.8068346515853" y2="177.08958963109032" /><path d="M 144.38136562736335 173.6633856474863 a86.0,86.0 0 0,1 -40.68145358897372,12.25698825130547" fill="none" id="id78" stroke="none" /><text fill="#e1ed5e" style="font-size:6.75px; font-family:Arial;" text-anchor="middle"><textPath startOffset="21.466115282336833" xlink:href="#id78">June</textPath></text><path d="M 110.8373102113329 117.98757091392108 l 7.9194082910293 13.14449023358386 a36.34583497828662,36.34583497828662 0 0,0 -0.5386662666449162,0.31825352509443433 l -7.691974153356002 -13.278862330972043" fill="#ffb510" stroke="none" /><path d="M 110.21172684928248 118.3499491758327 l 3.8339329781554077 6.8893808394065905 a28.88432688511646,28.88432688511646 0 0,0 -0.43653459275547885,0.23803346595695207 l -3.71477557353128 -6.9543549571233125" fill="#ff4f07" stroke="none" /><path d="M 108.92500713936063 119.00905698771935 l 10.570478254276306 22.513687707523903 a45.871693643900514,45.871693643900514 0 0,0 -0.7176342595415982,0.3294306908178312 l -10.181375998967289 -22.69230546867581" fill="#d1ff1c" stroke="none" /><path d="M 106.91757812671514 119.82793768551818 l 4.104666373648976 11.765254773523031 a33.46071851559416,33.46071851559416 0 0,0 -0.5454579383597916,0.1850489478401798 l -3.901538702351957 -11.834166708261334" fill="#ff8f0d" stroke="none" /><path d="M 101.98527174616119 120.90594882070398 l 1.4672043856351162 15.45042881656449 a36.51993683379392,36.51993683379392 0 0,0 -0.6263267984005167,0.05404211161172036 l -1.2010332694930577 -15.473395180454872" fill="#ffb811" stroke="none" /><path d="M 101.62511606390274 120.93702456842531 l 0.9873879282851583 12.7209162300855 a33.75917883932097,33.75917883932097 0 0,0 -0.5797531930944319,0.039983174547843205 l -0.7682719744117962 -12.736027749149628" fill="#ff930d" stroke="none" /><line stroke="#e1ed5e" stroke-width="0.3" x1="102.19456741930631" x2="102.32365962044197" y1="184.97166512339345" y2="189.96999836594603" /><path d="M 102.22038585953345 185.97133177190398 a86.0,86.0 0 0,1 -42.740103519485714,-10.115201625700543" fill="none" id="id79" stroke="none" /><text fill="#e1ed5e" style="font-size:6.75px; font-family:Arial;" text-anchor="middle"><textPath startOffset="22.20632615414155" xlink:href="#id79">July</textPath></text><path d="M 99.09653310690486 120.98055641714683 l -0.33920134833536336 7.87702690592445 a28.88432688511646,28.88432688511646 0 0,0 -0.49655174482724224,-0.02566605339142858 l 0.4747411615760945 -7.8700210457708195" fill="#ff4f07" stroke="none" /><path d="M 96.93821686468263 120.77559828337769 l -2.016207765380719 13.680891408082903 a34.828661666008685,34.828661666008685 0 0,0 -0.5923594697910065,-0.09251436669356837 l 2.2514030987802425 -13.644158734042229" fill="#ffa10e" stroke="none" /><path d="M 95.51606077576429 120.51570834832081 l -2.6712452780780462 12.221951795347852 a33.51046190288196,33.51046190288196 0 0,0 -0.5624648859668572,-0.1280151768176037 l 2.8812303134377664 -12.17415988495256" fill="#ff8f0d" stroke="none" /><path d="M 92.40401165467489 119.57807347666478 l -5.505817055671896 14.190818358924806 a36.22147651006711,36.22147651006711 0 0,0 -0.5793347883036407,-0.2305292683734288 l 5.749272920017394 -14.093942246145312" fill="#ffb410" stroke="none" /><line stroke="#e1ed5e" stroke-width="0.3" x1="58.666819895761336" x2="56.23545636021788" y1="174.27360380694188" y2="178.64263932499728" /><path d="M 58.180547188652646 175.14741091055294 a86.0,86.0 0 0,1 -31.652253787137756,-30.449443065178592" fill="none" id="id80" stroke="none" /><text fill="#e1ed5e" style="font-size:6.75px; font-family:Arial;" text-anchor="middle"><textPath startOffset="22.20632615414155" xlink:href="#id80">August</textPath></text><path d="M 89.7882731507175 118.34994917583269 l -3.882310681349799 6.976313089746105 a28.983813659692064,28.983813659692064 0 0,0 -0.43386178872619796,-0.24635804673587153 l 4.001821236997205 -6.9084518772156" fill="#ff5007" stroke="none" /><path d="M 89.4739219176387 118.17145234162733 l -4.251155893507933 7.338885015982926 a29.481247532570073,29.481247532570073 0 0,0 -0.43692911591909717,-0.25814542318335043 l 4.376852880455412 -7.264621020505826" fill="#ff5708" stroke="none" /><path d="M 89.1626897886671 117.98757091392108 l -4.287005460622017 7.115493902782834 a29.30714567706277,29.30714567706277 0 0,0 -0.4298671647213931,-0.26405952221148177 l 4.408851825275719 -7.040645913742974" fill="#ff5507" stroke="none" /><path d="M 87.36589467227662 116.77436683061367 l -9.142643136879961 12.138734465264452 a36.19660481642322,36.19660481642322 0 0,0 -0.494465049900291,-0.3791347151921503 l 9.350236915273738 -11.979560408244936" fill="#ffb310" stroke="none" /><path d="M 85.44109423537348 115.13401014063109 l -12.104640955508664 12.582797219174527 a38.45992893801816,38.45992893801816 0 0,0 -0.47314878441716957,-0.4630756701706274 l 12.319439692301628 -12.372571446081329" fill="#ffd113" stroke="none" /><path d="M 84.43433777217949 114.09645910891817 l -9.549561429938043 8.648202706379326 a33.883537307540465,33.883537307540465 0 0,0 -0.3877908730703677,-0.43568715683738185 l 9.69701115265675 -8.48254137980108" fill="#ff940d" stroke="none" /><path d="M 83.95833913139862 113.55231037782056 l -10.563557176797124 8.924300714648519 a34.828661666008685,34.828661666008685 0 0,0 -0.3829560617636216,-0.4612952462949425 l 10.715609238454283 -8.741144211239815" fill="#ffa10e" stroke="none" /><path d="M 83.72743513129214 113.27417163493432 l -23.821030609225705 19.43175223937484 a51.74141334386103,51.74141334386103 0 0,0 -0.5570384172386944,-0.6949910740774109 l 24.15198693851926 -19.018833331719172" fill="#8dff24" stroke="none" /><path d="M 83.50135304334701 112.99209946851258 l -15.690975333034762 12.356086703374185 a40.97196999605211,40.97196999605211 0 0,0 -0.4315581165844081,-0.5578470403048974 l 15.901340266837238 -12.084161668956035" fill="#fff116" stroke="none" /><line stroke="#e1ed5e" stroke-width="0.3" x1="26.63291911575756" x2="22.317208475507996" y1="142.92168965132927" y2="145.44649492493687" /><path d="M 25.769776987707644 143.4266507060508 a86.0,86.0 0 0,1 -11.730757126820373,-40.83630448921669" fill="none" id="id81" stroke="none" /><text fill="#e1ed5e" style="font-size:6.75px; font-family:Arial;" text-anchor="middle"><textPath startOffset="21.46611528233685" xlink:href="#id81">September</textPath></text><path d="M 81.02952815118164 109.00673069616217 l -24.759723621079164 11.755330312480112 a48.40860639557837,48.40860639557837 0 0,0 -0.35090565032461585,-0.7558195527670464 l 24.95840388824361 -11.327390692434237" fill="#b3ff20" stroke="none" /><path d="M 79.35854240842038 103.8639653848113 l -12.296865181876688 2.3019043686064924 a33.51046190288196,33.51046190288196 0 0,0 -0.10125514412356858,-0.5678926212145086 l 12.334666768339446 -2.08989299665877" fill="#ff8f0d" stroke="none" /><path d="M 79.18660465613746 102.79330883721812 l -12.374644053634816 1.6607671175880352 a33.485590209238055,33.485590209238055 0 0,0 -0.0717524295902015,-0.5719374616790985 l 12.401397992471866 -1.447511901621528" fill="#ff8f0d" stroke="none" /><line stroke="#e1ed5e" stroke-width="0.3" x1="15.007084014347285" x2="10.007500721073583" y1="101.09737516637583" y2="101.16192664675087" /><path d="M 14.007167355692545 101.11028546245083 a86.0,86.0 0 0,1 10.666146001902534,-42.60595125391555" fill="none" id="id82" stroke="none" /><text fill="#e1ed5e" style="font-size:6.75px; font-family:Arial;" text-anchor="middle"><textPath startOffset="22.20632615414155" xlink:href="#id82">October</textPath></text><path d="M 79.16333360222342 97.38593545837743 l -24.77695980659418 -3.108394156876099 a45.971180418476116,45.971180418476116 0 0,0 0.1052608705978331,-0.7843157494083947 l 24.719782936938515 3.534428248349153" fill="#d0ff1d" stroke="none" /><path d="M 79.32604984820605 96.31383870115002 l -14.764775295931798 -2.632556569135263 a35.99763126727201,35.99763126727201 0 0,0 0.11401697070011088,-0.6090832166038332 l 14.717272601321826 2.886317863201669" fill="#ffb110" stroke="none" /><path d="M 79.62865764111835 94.90015583598534 l -9.650853071716533 -2.4160335557905968 a30.948677457560205,30.948677457560205 0 0,0 0.13382159223377127,-0.5156691841397912 l 9.607835147612453 2.581799165479252" fill="#ff6c09" stroke="none" /><path d="M 79.81627453868168 94.20196356495316 l -50.89358646720888 -14.619841575461589 a73.9518357678642,73.9518357678642 0 0,0 0.3619910768904753,-1.220453955870853 l 50.6343894932067 15.49372491807898" fill="#40ffc8" stroke="none" /><line stroke="#e1ed5e" stroke-width="0.3" x1="26.266209847984243" x2="21.928928074336255" y1="57.711370442889674" y2="55.22380399835377" /><path d="M 25.398753493254645 57.213857153982495 a86.0,86.0 0 0,1 29.58750427330803,-30.492523968695096" fill="none" id="id83" stroke="none" /><text fill="#e1ed5e" style="font-size:6.75px; font-family:Arial;" text-anchor="middle"><textPath startOffset="21.46611528233685" xlink:href="#id83">November</textPath></text><path d="M 82.34701348167596 88.62581576622439 l -10.516524538551513 -6.776014215857633 a33.51046190288196,33.51046190288196 0 0,0 0.3165994472496195,-0.48220267880073825 l 10.398328455943973 6.956034958636039" fill="#ff8f0d" stroke="none" /><path d="M 83.17141714833178 87.43820079747576 l -12.01851811238366 -8.971296785379527 a35.99763126727201,35.99763126727201 0 0,0 0.3749308596711092,-0.49336506242581235 l 11.862311312488442 9.176846623686368" fill="#ffb110" stroke="none" /><path d="M 84.07557802195018 86.31012108654704 l -17.936192618782517 -15.419354338760877 a44.65298065534939,44.65298065534939 0 0,0 0.50608441483211,-0.5785419716900704 l 17.668116340372563 15.72581186665389" fill="#e0ff1b" stroke="none" /><path d="M 86.65592168130627 83.78471172551755 l -9.514175066545944 -11.561314892899842 a35.97275957362811,35.97275957362811 0 0,0 0.4815152600191996,-0.3893518531270909 l 9.313756407962243 11.723372843291068" fill="#ffb010" stroke="none" /><path d="M 86.93701828274178 83.55741782278169 l -17.529046528606678 -22.064088756559432 a49.17962889853928,49.17962889853928 0 0,0 0.6673615802583052,-0.5208862989055857 l 17.146652393188948 22.36255344468824" fill="#aaff21" stroke="none" /><path d="M 87.80319425747018 82.90503203632743 l -15.673352819555701 -21.967674978979165 a47.98578760363206,47.98578760363206 0 0,0 0.6765284500946603,-0.4739514133763523 l 15.29289322987738 22.23421123511946" fill="#b8ff1f" stroke="none" /><path d="M 88.70189139769569 82.29822771554957 l -15.535456873993652 -24.340810448772533 a49.876036320568495,49.876036320568495 0 0,0 0.7276696325813623,-0.4556666571659107 l 15.114168089040048 24.604621447261376" fill="#a2ff22" stroke="none" /><line stroke="#e1ed5e" stroke-width="0.3" x1="56.762969772571076" x2="54.21961505331055" y1="26.818313649435495" y2="22.513508569990535" /><path d="M 56.25429882871897 25.957352633546506 a86.0,86.0 0 0,1 42.265352541879196,-11.944610805530505" fill="none" id="id84" stroke="none" /><text fill="#e1ed5e" style="font-size:6.75px; font-family:Arial;" text-anchor="middle"><textPath startOffset="22.20632615414155" xlink:href="#id84">December</textPath></text><path d="M 89.94658935756843 81.56283822128135 l -12.407012107477726 -22.753481137100067 a46.91630477694433,46.91630477694433 0 0,0 0.7123569607960205,-0.38051641797339114 l 12.0135101001534 22.963676281575207" fill="#c5ff1e" stroke="none" /></svg>