<?xml version="1.0" encoding="utf-8" ?>
<svg baseProfile="full" height="200mm" version="1.1" viewBox="0,0,200,200" width="200mm" xmlns="http://www.w3.org/2000/svg" xmlns:ev="http://www.w3.org/2001/xml-events" xmlns:xlink="http://www.w3.org/1999/xlink"><defs /><rect fill="#1a1a1a" height="200" width="200" x="0" y="0" /><text alignment-baseline="middle" fill="#e1ed5e" style="dominant-baseline: central; font-size:9.0px; font-family:Arial;" text-anchor="middle" x="100.0" y="100.0">2024</text><line stroke="#e1ed5e" stroke-width="0.3" x1="100.0" x2="100.0" y1="15.0" y2="10.0" /><path d="M 100.0 14.0 a86.0,86.0 0 0,1 42.35913384403234,11.155469271406648" fill="none" id="id61" stroke="none" /><text fill="#e1ed5e" style="font-size:6.75px; font-family:Arial;" text-anchor="middle"><textPath startOffset="22.145653131862478" xlink:href="#id61">January</textPath></text><path d="M 104.29559338865022 79.4440306129975 l 2.1570330016444026 -10.322183767604967 a31.545153820707906,31.545153820707906 0 0,0 0.5291137499611352,0.11531787913158555 l -2.333909168224672 10.283634430339664" fill="#ff5f08" stroke="none" /><path d="M 106.72888874123014 80.10723608172694 l 3.358879626369921 -9.929930781566007 a31.482633145881575,31.482633145881575 0 0,0 0.5104597555712792,0.1775644007936315 l -3.528845153986219 9.870807948203785" fill="#ff5e08" stroke="none" /><path d="M 109.06512990194946 81.05736502329252 l 4.597037426294581 -9.606040165164597 a31.64935494541846,31.64935494541846 0 0,0 0.4880628198352704,0.2387359823212241 l -4.761260495391919 9.525710432746152" fill="#ff6008" stroke="none" /><line stroke="#e1ed5e" stroke-width="0.3" x1="143.13028292997686" x2="145.6673583964461" y1="26.7553504044142" y2="22.446841604673864" /><path d="M 143.63769802327073 25.89364864446614 a86.0,86.0 0 0,1 29.32050498858742,28.57503671076993" fill="none" id="id62" stroke="none" /><text fill="#e1ed5e" style="font-size:6.75px; font-family:Arial;" text-anchor="middle"><textPath startOffset="20.669276256404974" xlink:href="#id62">February</textPath></text><path d="M 111.27062007382361 82.28071324371311 l 5.625989312404839 -8.844989651087309 a31.482633145881575,31.482633145881575 0 0,0 0.4535213743338547,0.293967075553407 l -5.7769963189957005 8.747108733830006" fill="#ff5e08" stroke="none" /><path d="M 111.5731344415666 82.4767994020092 l 2.7908749612643247 -4.225740402228015 a26.06417466093285,26.06417466093285 0 0,0 0.3712329232749098,0.24978207837832953 l -2.8630041726362356 4.177208649792568" fill="#ff0d01" stroke="none" /><path d="M 112.16784306229584 82.88440491214696 l 12.38922293938028 -17.426993609133856 a42.382070790605354,42.382070790605354 0 0,0 0.5893509281205497,0.42664462251170066 l -12.686554877874798 17.211748215249077" fill="#fff316" stroke="none" /><path d="M 112.7482090630111 83.31218511350987 l 6.4900740152081005 -8.495715220082138 a31.691035395302677,31.691035395302677 0 0,0 0.42947397703410484,0.33396156219184653 l -6.634957936877431 8.3830526062695" fill="#ff6108" stroke="none" /><path d="M 115.41159269507618 85.73525988315684 l 3.4412256265882974 -3.185147065454559 a25.68905061197486,25.68905061197486 0 0,0 0.2967725115073559,0.3262049770386139 l -3.495395838937531 3.1256045128582732" fill="#ff0701" stroke="none" /><path d="M 115.6541949942343 86.00192230759917 l 3.402185283232528 -3.0422550591820507 a25.564009262322195,25.564009262322195 0 0,0 0.28971196977584784,0.32963903991214816 l -3.453908316966966 2.9834037414586048" fill="#ff0500" stroke="none" /><path d="M 117.21940702142032 87.97951657250589 l 3.9132426806866545 -2.7317473088615456 a25.7724115117433,25.7724115117433 0 0,0 0.2501277130053404,0.36494380843206065 l -3.95956013050732 2.6641687653594364" fill="#ff0801" stroke="none" /><path d="M 117.42321728460499 88.27688183743584 l 8.766362385009657 -5.898399842957356 a31.565994045650015,31.565994045650015 0 0,0 0.29863769419259956,0.45217553186480886 l -8.866324518122982 5.747044432753488" fill="#ff5f08" stroke="none" /><path d="M 117.62189284568427 88.57770195909679 l 12.433839708847023 -8.05946467788507 a35.817399933840555,35.817399933840555 0 0,0 0.33000158186467465,0.5188172984971113 l -12.570358982337586 7.844833704709286" fill="#ff9b0e" stroke="none" /><line stroke="#e1ed5e" stroke-width="0.3" x1="172.87174338648825" x2="177.1583165268699" y1="56.24261187166439" y2="53.66864786411523" /><path d="M 173.72905801456457 55.72781907015455 a86.0,86.0 0 0,1 12.242430191666344,42.057860355516425" fill="none" id="id63" stroke="none" /><text fill="#e1ed5e" style="font-size:6.75px; font-family:Arial;" text-anchor="middle"><textPath startOffset="22.145653131862474" xlink:href="#id63">March</textPath></text><path d="M 118.00360718960297 89.18935116829356 l 9.040514625807914 -5.428569277714319 a31.545153820707906,31.545153820707906 0 0,0 0.27478275960989906,0.46664119906680784 l -9.13237109554758 5.272576910353954" fill="#ff5f08" stroke="none" /><path d="M 118.36410011445183 89.81374322990088 l 40.49457206845384 -22.46165650991755 a67.30697982136951,67.30697982136951 0 0,0 0.5517718847426261,1.0151981205638667 l -40.87418930281181 21.76320355587908" fill="#37ff79" stroke="none" /><path d="M 118.70294669586156 90.45014215332178 l 5.6795584078071135 -2.900022991482173 a27.37710883228581,27.37710883228581 0 0,0 0.21012594179045468,0.4203926413690571 l -5.728504262809305 2.8020984939493654" fill="#ff2103" stroke="none" /><path d="M 118.8641267826498 90.77261029715802 l 3.950047057035176 -1.9321659549781578 a25.397287462785314,25.397287462785314 0 0,0 0.18820689146495595,0.3932800173503082 l -3.9826332064600436 1.8640734355627462" fill="#ff0300" stroke="none" /><path d="M 119.0197475246899 91.09779779509293 l 9.494144563267303 -4.443739043071379 a31.482633145881575,31.482633145881575 0 0,0 0.2248992409119772,0.49144542924348367 l -9.569028269034332 4.280104631613211" fill="#ff5e08" stroke="none" /><path d="M 119.16976305983485 91.42560881287824 l 19.119032625008952 -8.551700108889218 a41.94442606682104,41.94442606682104 0 0,0 0.28835018868062623,0.6598016614930273 l -19.26301669570655 8.22223637762034" fill="#ffee16" stroke="none" /><path d="M 119.4528033332814 92.08871423366111 l 9.710314333417672 -3.94910030479834 a31.482633145881575,31.482633145881575 0 0,0 0.1993020459985194,0.5023713496487338 l -9.776675054382316 3.7818279379360407" fill="#ff5e08" stroke="none" /><path d="M 119.58574465831526 92.42381321644754 l 4.353827459605646 -1.6841539922418955 a25.66821038703275,25.66821038703275 0 0,0 0.1554385125060013,0.4123191216283782 l -4.382096655926087 1.6091665904193597" fill="#ff0701" stroke="none" /><path d="M 119.71291397450082 92.76114493625339 l 4.929858737916846 -1.8103124142217786 a26.251736685411842,26.251736685411842 0 0,0 0.1517098238187028,0.4243593780471437 l -4.960208731779492 1.7254180797937182" fill="#ff1001" stroke="none" /><path d="M 119.94978838288452 93.4421083053983 l 4.593136855602919 -1.5098553157270174 a25.83493218656963,25.83493218656963 0 0,0 0.13487714919761182,0.42250074882624267 l -4.6183787205777875 1.4307855332093877" fill="#ff0901" stroke="none" /><path d="M 120.05942366710727 93.78553927170692 l 38.08171763993668 -11.797813469954999 a60.86735031425736,60.86735031425736 0 0,0 0.3006374079153878,1.0007241539325442 l -38.278631367855695 11.142351712431731" fill="#34ff2f" stroke="none" /><path d="M 120.35273937422433 94.82641323984039 l 4.847493334251246 -1.2322138495914394 a26.00165398610652,26.00165398610652 0 0,0 0.1062507734864446,0.43353941399004325 l -4.867931634253982 1.1488186109933012" fill="#ff0c01" stroke="none" /><path d="M 120.51834098615036 95.52812308129327 l 6.5362760071659975 -1.424550933746141 a27.689712206417468,27.689712206417468 0 0,0 0.09723346498646177,0.46529732887078334 l -6.559767182976826 1.3121371535899533" fill="#ff2503" stroke="none" /><path d="M 120.592083275326 95.88100663000786 l 14.366094484837097 -2.8736212429088384 a35.650678134303675,35.650678134303675 0 0,0 0.11488636057160793,0.6011339848657062 l -14.413307137690861 2.6265846930098173" fill="#ff990e" stroke="none" /><path d="M 120.7213421655516 96.59031103205396 l 43.51276217893537 -7.160008457995861 a65.09791597750579,65.09791597750579 0 0,0 0.17197786873050508,1.1042212858486484 l -43.62926153980414 6.411998990215771" fill="#34ff5e" stroke="none" /><path d="M 120.77682067341334 96.94652285012252 l 14.165076879889147 -2.0817785001314904 a35.3172345352299,35.3172345352299 0 0,0 0.08300472306758168,0.600580827360491 l -14.19872611951194 1.8383093645709137" fill="#ff940d" stroke="none" /><path d="M 120.93736805541906 98.37931529534042 l 4.55039722540864 -0.3522295239700105 a25.564009262322195,25.564009262322195 0 0,0 0.030112015518543433,0.4378220969606517 l -4.555773202092249 0.2740640028550246" fill="#ff0500" stroke="none" /><path d="M 120.98066250479742 99.09900007780936 l 10.556264528546766 -0.45333141966654517 a31.565994045650015,31.565994045650015 0 0,0 0.018601859836692717,0.5415728527359044 l -10.562491075380308 0.2720523023665209" fill="#ff5f08" stroke="none" /><line stroke="#e1ed5e" stroke-width="0.3" x1="184.99686870605535" x2="189.99668451229388" y1="99.2704041080226" y2="99.22748670261217" /><path d="M 185.99683186730306 99.26182062694052 a86.0,86.0 0 0,1 -10.086455211305974,41.156179273409016" fill="none" id="id64" stroke="none" /><text fill="#e1ed5e" style="font-size:6.75px; font-family:Arial;" text-anchor="middle"><textPath startOffset="21.40746469413373" xlink:href="#id64">April</textPath></text><path d="M 120.99922638620191 99.81974689727618 l 20.881136128654624 -0.17923943989011823 a41.88190539199471,41.88190539199471 0 0,0 0.0,0.7189850852278876 l -20.881136128654624 -0.17923943989011568" fill="#ffed16" stroke="none" /><path d="M 120.99303781780057 100.54070618675476 l 10.479157812458178 0.26990593311707733 a31.482633145881575,31.482633145881575 0 0,0 -0.01855273520684579,0.540142642737496 l -10.472980390254486 -0.449754840418684" fill="#ff5e08" stroke="none" /><path d="M 120.98066250479742 100.90099992219065 l 10.951864185435106 0.47032017109389207 a31.961958319550114,31.961958319550114 0 0,0 -0.028245864012672553,0.5479622159026338 l -10.94217673196586 -0.6582541803732566" fill="#ff6509" stroke="none" /><path d="M 120.96210409425399 101.26102812881392 l 5.22145695764911 0.31410988455073663 a26.230896460469733,26.230896460469733 0 0,0 -0.030897546358157616,0.4492435429683093 l -5.215295450125887 -0.4036968516733894" fill="#ff0f01" stroke="none" /><path d="M 120.93736805541906 101.62068470465957 l 4.986736685379334 0.3860049577753525 a26.00165398610652,26.00165398610652 0 0,0 -0.0382674727894,0.4447260402490621 l -4.979375589892194 -0.4715520454000719" fill="#ff0c01" stroke="none" /><path d="M 120.86939407059847 102.33845913500097 l 4.577045408139854 0.5128674847851968 a25.605689712206416,25.605689712206416 0 0,0 -0.05269640424971213,0.4364018216540906 l -4.567566917630479 -0.591362983362696" fill="#ff0600" stroke="none" /><path d="M 120.7213421655516 103.40968896794604 l 4.585702252316913 0.7545755605543826 a25.64737016209064,25.64737016209064 0 0,0 -0.07521418915602741,0.4338154556590106 l -4.57207324566865 -0.8331840491339811" fill="#ff0601" stroke="none" /><path d="M 120.65975698304385 103.76489593502545 l 4.264534686542955 0.7771402790128612 a25.33476678795898,25.33476678795898 0 0,0 -0.08164274298609502,0.4271893302426404 l -4.250565651274702 -0.8502321742888161" fill="#ff0200" stroke="none" /><path d="M 119.83427380445688 106.89939002012753 l 5.924693762958839 2.060916039753609 a27.272907707575257,27.272907707575257 0 0,0 -0.15761121151421728,0.44086660974148273 l -5.8884423814006785 -2.162317605876013" fill="#ff1f03" stroke="none" /><path d="M 119.58574465831526 107.57618678355244 l 9.757238324651937 3.7743093933278167 a31.461792920939466,31.461792920939466 0 0,0 -0.19917011613576663,0.5020388002116335 l -9.691009533550044 -3.9412492107530146" fill="#ff5d08" stroke="none" /><path d="M 119.4528033332814 107.91128576633889 l 11.640794320180627 4.73420970933081 a33.56665564009262,33.56665564009262 0 0,0 -0.22165845822021232,0.5318996078001142 l -11.557810017423929 -4.933341826572202" fill="#ff7c0b" stroke="none" /><line stroke="#e1ed5e" stroke-width="0.3" x1="174.33088141563837" x2="178.70328620479359" y1="141.23008692659167" y2="143.65538615756765" /><path d="M 175.20536237346943 141.71514677278685 a86.0,86.0 0 0,1 -30.301960400862466,31.631185727798858" fill="none" id="id65" stroke="none" /><text fill="#e1ed5e" style="font-size:6.75px; font-family:Arial;" text-anchor="middle"><textPath startOffset="22.145653131862474" xlink:href="#id65">May</textPath></text><path d="M 118.36410011445183 110.18625677009912 l 9.185087453870715 5.094813177767074 a31.503473370823684,31.503473370823684 0 0,0 -0.26637932174265605,0.47066673754564287 l -9.096274767106681 -5.2517366854118395" fill="#ff5e08" stroke="none" /><path d="M 117.81537515405839 111.11811171558189 l 8.91063421532791 5.560894778021772 a31.503473370823684,31.503473370823684 0 0,0 -0.29025546426615584,0.45632979997757944 l -8.813861059435865 -5.713038252678023" fill="#ff5e08" stroke="none" /><path d="M 117.423217284605 111.72311816256416 l 17.3252369029185 11.657192589039978 a41.88190539199471,41.88190539199471 0 0,0 -0.4064743886008712,0.5930582806029456 l -17.12257277750231 -11.952885604712966" fill="#ffed16" stroke="none" /><path d="M 117.21940702142032 112.02048342749411 l 8.646728368678811 6.036087940104553 a31.545153820707906,31.545153820707906 0 0,0 -0.31377649274741937,0.44136593235598487 l -8.54183677740143 -6.183631099170041" fill="#ff5f08" stroke="none" /><path d="M 117.01052211995028 112.31430620078461 l 35.65288394045815 25.809938500883657 a65.01455507773736,65.01455507773736 0 0,0 -0.662213429942095,0.898419699488117 l -35.20456849093223 -26.41816450964065" fill="#34ff5d" stroke="none" /><path d="M 116.57777611688842 112.89097897827486 l 8.258726705932503 6.422035838995016 a31.461792920939466,31.461792920939466 0 0,0 -0.3351932966008493,0.42350578035408576 l -8.14726697869009 -6.562861563263784" fill="#ff5d08" stroke="none" /><path d="M 116.35404254752997 113.17365903436017 l 24.425571320574875 19.67551126038246 a52.364538537876285,52.364538537876285 0 0,0 -0.569908659139671,0.6951958982986308 l -24.084215842196574 -20.091909440379585" fill="#91ff24" stroke="none" /><path d="M 116.1254893667686 113.45245675266167 l 8.033406214473542 6.701753182106679 a31.461792920939466,31.461792920939466 0 0,0 -0.3495336823937408,0.4117497989698835 l -7.9171779685726875 -6.838669763526119" fill="#ff5d08" stroke="none" /><path d="M 115.89218393027572 113.72728997021213 l 15.80281339543791 13.650093830783206 a41.88190539199471,41.88190539199471 0 0,0 -0.47463952874419046,0.5400526553343412 l -15.566162802735134 -13.919358763928841" fill="#ffed16" stroke="none" /><path d="M 115.6541949942343 113.99807769240083 l 17.290558083277652 15.461323656938923 a44.19517036056897,44.19517036056897 0 0,0 -0.5105642829123257,0.5611995846186213 l -17.022596099523447 -15.755860817115217" fill="#f4ff19" stroke="none" /><path d="M 115.41159269507618 114.26474011684316 l 10.70603528271915 9.90934642585863 a35.588157459477344,35.588157459477344 0 0,0 -0.41882883353262995,0.44478170714665605 l -10.53435061545026 -10.091669592949781" fill="#ff980e" stroke="none" /><path d="M 115.16444852881244 114.52719865689866 l 15.079170452401653 14.445504188765256 a41.88190539199471,41.88190539199471 0 0,0 -0.5018114375990023,0.5149027421513767 l -14.828972213651845 -14.702229622984369" fill="#ffed16" stroke="none" /><path d="M 114.91283532996324 114.78537596483092 l 14.843771587118564 14.716902506839645 a41.90274561693682,41.90274561693682 0 0,0 -0.5108305450797394,0.5064644982800901 l -14.58894912190886 -14.969547015348397" fill="#ffed16" stroke="none" /><path d="M 114.13192950727249 115.5334660781643 l 5.70793447845839 6.274019874772944 a29.481971551438967,29.481971551438967 0 0,0 -0.3772779444795184,0.33736426436483813 l -5.599391507155493 -6.371079669021168" fill="#ff4006" stroke="none" /><path d="M 113.86319453409587 115.77377054828091 l 7.030194250998667 7.999070542677685 a31.64935494541846,31.64935494541846 0 0,0 -0.4111711181609097,0.3551598188854603 l -6.891843653074902 -8.118574494027863" fill="#ff6008" stroke="none" /><path d="M 113.59037401385872 116.0094264158162 l 6.770460888147948 7.975585902156531 a31.461792920939466,31.461792920939466 0 0,0 -0.41473484637141167,0.34598655939898776 l -6.632551707614641 -8.09063464546739" fill="#ff5d08" stroke="none" /><path d="M 112.7482090630111 116.68781488649013 l 10.146275555939372 13.281800402545567 a37.71386040357261,37.71386040357261 0 0,0 -0.5178418535241315,0.3885981809406759 l -9.916780713504474 -13.454017610750258" fill="#ffb510" stroke="none" /><path d="M 111.27062007382361 117.71928675628689 l 11.229608885992961 17.654810357239878 a41.92358584187893,41.92358584187893 0 0,0 -0.6105588762004865,0.38103389548834266 l -10.92488588100276 -17.844980049569767" fill="#ffed16" stroke="none" /><line stroke="#e1ed5e" stroke-width="0.3" x1="143.1302829299769" x2="145.66735839644613" y1="173.24464959558577" y2="177.55315839532614" /><path d="M 143.63769802327073 174.10635135553383 a86.0,86.0 0 0,1 -40.68552437913181,11.842963189579606" fill="none" id="id66" stroke="none" /><text fill="#e1ed5e" style="font-size:6.75px; font-family:Arial;" text-anchor="middle"><textPath startOffset="21.407464694133747" xlink:href="#id66">June</textPath></text><path d="M 110.65571695917076 118.09573695890943 l 10.733264353514711 18.227429387985183 a42.15282831624214,42.15282831624214 0 0,0 -0.6266871667294415,0.3618180044089283 l -10.41878471892487 -18.408994289670282" fill="#fff016" stroke="none" /><path d="M 110.02825361518725 118.45085714620011 l 9.991763112452537 18.383718731179208 a41.92358584187893,41.92358584187893 0 0,0 -0.6352644712961126,0.338242549551538 l -9.67470982536987 -18.552531748453315" fill="#ffed16" stroke="none" /><path d="M 109.71004243097381 118.62028667847754 l 10.07942876228773 19.32863367418542 a42.798875289447565,42.798875289447565 0 0,0 -0.6543597046055637,0.3341207276690889 l -9.746141835968585 -19.498812353527345" fill="#fff917" stroke="none" /><path d="M 109.06512990194946 118.94263497670748 l 12.342730624023812 25.791559895510424 a49.59278862057559,49.59278862057559 0 0,0 -0.7710764378667937,0.3609027068534439 l -11.898165472285513 -25.9996388339344" fill="#b1ff20" stroke="none" /><path d="M 108.4095320186766 119.2426549942271 l 5.908649026685109 13.520145288699425 a35.754879259014224,35.754879259014224 0 0,0 -0.5645268501812076,0.2409629435008429 l -5.67568710133347 -13.619582881859671" fill="#ff9a0e" stroke="none" /><path d="M 108.07796709384702 119.3841803445677 l 8.03254021968381 19.275172383648858 a41.88190539199471,41.88190539199471 0 0,0 -0.6660131172619358,0.2708617367130178 l -7.700472641231433 -19.410221376941166" fill="#ffed16" stroke="none" /><path d="M 107.407793817531 119.65005319985036 l 4.2932367741694675 11.388320610697264 a33.17069136619252,33.17069136619252 0 0,0 -0.5345391335929683,0.1962901739938316 l -4.097108488922372 -11.460341633699818" fill="#ff760a" stroke="none" /><path d="M 106.38641147887787 120.00534299687104 l 2.5351286055750752 7.941254249502228 a29.336089976844193,29.336089976844193 0 0,0 -0.48105511325938816,0.14903210376862086 l -2.3984328594440627 -7.983602941077493" fill="#ff3e05" stroke="none" /><path d="M 105.69591212413111 120.21278271476187 l 3.504596940418082 12.436578183743656 a33.9209394641085,33.9209394641085 0 0,0 -0.561825411589773,0.15312801425542652 l -3.290590127893614 -12.494906692143225" fill="#ff810b" stroke="none" /><path d="M 105.3480935250658 120.30758222061773 l 1.077402896713554 4.09107428791141 a25.230565663248427,25.230565663248427 0 0,0 -0.41978219484133533,0.1067069923831622 l -1.0070154086468213 -4.108966512129842" fill="#ff0000" stroke="none" /><path d="M 104.9986988182912 120.39639698878246 l 2.7978162092453576 11.416044890843509 a32.75388686735032,32.75388686735032 0 0,0 -0.5472517019902315,0.12914991158056516 l -2.601432353515247 -11.462390946070299" fill="#ff700a" stroke="none" /><path d="M 103.94208987418118 120.62667999033965 l 2.4646211915985514 12.89593952422823 a34.129341713529605,34.129341713529605 0 0,0 -0.5764043844074284,0.10504007987932865 l -2.242882073640066 -12.936347778038922" fill="#ff840c" stroke="none" /><path d="M 103.58742460773223 120.69131181640829 l 3.57081066644601 20.595487018052445 a41.90274561693682,41.90274561693682 0 0,0 -0.7097975857042237,0.11679692261796704 l -3.2167355776887145 -20.653749939166083" fill="#ffed16" stroke="none" /><path d="M 101.44090949804482 120.95050786540614 l 0.8608278377336879 12.516247834906874 a33.545815415150514,33.545815415150514 0 0,0 -0.5748405304506536,0.03458097885695123 l -0.6458429551505691 -12.529180791588518" fill="#ff7b0b" stroke="none" /><path d="M 100.72087961077811 120.9876233191556 l 0.5730313280515386 16.68318188419813 a37.693020178630505,37.693020178630505 0 0,0 -0.6468601249924394,0.016660822248976276 l -0.2865578889883554 -16.69056042379715" fill="#ffb510" stroke="none" /><line stroke="#e1ed5e" stroke-width="0.3" x1="101.45913802915013" x2="101.54496967792366" y1="184.9874750549273" y2="189.98673829345242" /><path d="M 101.47630435890484 185.9873277026323 a86.0,86.0 0 0,1 -42.54439059252881,-10.42667462771756" fill="none" id="id67" stroke="none" /><text fill="#e1ed5e" style="font-size:6.75px; font-family:Arial;" text-anchor="middle"><textPath startOffset="22.145653131862474" xlink:href="#id67">July</textPath></text><path d="M 99.63950707515114 120.99690560180557 l -0.40998169885224783 23.87937858385959 a44.88289778365862,44.88289778365862 0 0,0 -0.7702475612930612,-0.019838844922707093 l 0.8198425742160528 -23.868822021586837" fill="#ebff1a" stroke="none" /><path d="M 98.91894614982273 120.97215588758144 l -1.6156802167055546 31.343764571648347 a52.38537876281839,52.38537876281839 0 0,0 -0.8976749720705333,-0.05400189719616261 l 2.1534995409085345 -31.31141069662749" fill="#91ff24" stroke="none" /><path d="M 98.55909050195518 120.95050786540614 l -1.0896192896230432 15.842825332556538 a36.88025140588819,36.88025140588819 0 0,0 -0.6312336112266859,-0.0488614737093153 l 1.361421895624965 -15.821786091852168" fill="#ffaa0f" stroke="none" /><path d="M 97.48249496171623 120.84855314841334 l -1.7488457096910084 14.48295124434933 a35.588157459477344,35.588157459477344 0 0,0 -0.6058835985621774,-0.0784437620461019 l 1.9972071301439798 -14.450795886102831" fill="#ff980e" stroke="none" /><path d="M 95.35216902796893 120.47920084513623 l -2.3062343559532295 10.161694101126148 a31.42011247105524,31.42011247105524 0 0,0 -0.5249670091414115,-0.12389078474631594 l 2.4803335188345286 -10.120607172733605" fill="#ff5d08" stroke="none" /><path d="M 95.00130118170881 120.39639698878247 l -1.4882001113007173 6.072364303640163 a27.252067482633144,27.252067482633144 0 0,0 -0.4534156250998476,-0.11525647883237287 l 1.5922210296259436 -6.045922592972527" fill="#ff1f03" stroke="none" /><path d="M 94.6519064749342 120.30758222061772 l -2.6537017160432392 10.076537654954212 a31.42011247105524,31.42011247105524 0 0,0 -0.5204047381979404,-0.14183862553292587 l 2.8262878551758748 -10.029498535277142" fill="#ff5d08" stroke="none" /><path d="M 94.30408787586889 120.21278271476187 l -2.8262878551758748 10.029498535277142 a31.42011247105524,31.42011247105524 0 0,0 -0.5178932067475992,-0.15075116462776061 l 2.9980410743050805 -9.979503676346864" fill="#ff5d08" stroke="none" /><path d="M 93.61358852112213 120.00534299687104 l -1.3372803394408521 4.1890116166124285 a25.397287462785314,25.397287462785314 0 0,0 -0.4141901657822857,-0.13615253435468383 l 1.4089932428708813 -4.1654381608557225" fill="#ff0300" stroke="none" /><path d="M 93.27111125876986 119.89276391827306 l -19.832748489699128 58.63199686133409 a82.89546807806815,82.89546807806815 0 0,0 -1.3440680192480168,-0.4675366272441317 l 20.836322280992167 -58.28290180152136" fill="#4cddff" stroke="none" /><path d="M 91.92203290615298 119.3841803445677 l -2.0121433085235885 4.828411445405054 a26.230896460469733,26.230896460469733 0 0,0 -0.4141545339584691,-0.17677794339599434 l 2.0947329176524887 -4.793158852349656" fill="#ff0f01" stroke="none" /><path d="M 91.26138138417905 119.09545874513695 l -9.556689759809485 20.883091833087256 a43.965927886205755,43.965927886205755 0 0,0 -0.6835891266646842,-0.3199542277175446 l 9.91376760034566 -20.715961373799185" fill="#f6ff19" stroke="none" /><path d="M 90.93487009805054 118.94263497670748 l -5.649588069888453 11.805466191239466 a34.08766126364539,34.08766126364539 0 0,0 -0.5256637965170445,-0.2571285042252517 l 5.851412115667567 -11.706743936916993" fill="#ff830c" stroke="none" /><path d="M 90.6110303473126 118.78422872680471 l -3.7270140864124617 7.456524800584069 a29.336089976844193,29.336089976844193 0 0,0 -0.4485247577583664,-0.22901993717684832 l 3.8544660658844103 -7.391446911734384" fill="#ff3e05" stroke="none" /><path d="M 89.97174638481275 118.45085714620012 l -5.274536304382312 9.704552716658347 a32.04531921931856,32.04531921931856 0 0,0 -0.48107014887062477,-0.2668415021855397 l 5.440350641409039 -9.612578299039658" fill="#ff6609" stroke="none" /><line stroke="#e1ed5e" stroke-width="0.3" x1="58.13341422392154" x2="55.67067388415222" y1="173.97424548756322" y2="178.32567169271397" /><path d="M 57.64086615596768 174.84453072859336 a86.0,86.0 0 0,1 -31.369924170532247,-30.572349798747897" fill="none" id="id68" stroke="none" /><text fill="#e1ed5e" style="font-size:6.75px; font-family:Arial;" text-anchor="middle"><textPath startOffset="22.145653131862474" xlink:href="#id68">August</textPath></text><path d="M 89.65649057296885 118.27599006163327 l -6.158887518576269 10.882164112120366 a33.50413496526629,33.50413496526629 0 0,0 -0.4981068235227562,-0.2875821086460549 l 6.344786809959425 -10.77483510619814" fill="#ff7b0b" stroke="none" /><path d="M 89.34428304082925 118.09573695890944 l -4.229857873306283 7.183223404132093 a29.336089976844193,29.336089976844193 0 0,0 -0.4317535458345963,-0.25925559898670697 l 4.352544175698307 -7.109553804609467" fill="#ff3e05" stroke="none" /><path d="M 88.72937992617639 117.7192867562869 l -11.218424016584597 17.63722588477251 a41.90274561693682,41.90274561693682 0 0,0 -0.6036277427144287,-0.3912642100040051 l 11.519537391556037 -17.442047833064606" fill="#ffed16" stroke="none" /><path d="M 88.1277618465304 117.32195027204791 l -4.712764070183099 6.876063621057723 a29.336089976844193,29.336089976844193 0 0,0 -0.4129472477582496,-0.2882692500347139 l 4.830106409115114 -6.79414955521788" fill="#ff3e05" stroke="none" /><path d="M 87.83215693770417 117.11559508785305 l -10.505481439825376 14.777275282598891 a39.130995699636124,39.130995699636124 0 0,0 -0.5441425632032808,-0.39391725268128436 l 10.75760501340261 -14.594757258544542" fill="#ffc812" stroke="none" /><path d="M 86.96720088162412 116.46651593811092 l -15.791975908240442 19.952645676910457 a46.44591465431691,46.44591465431691 0 0,0 -0.6209359409211774,-0.5001820402571144 l 16.13216261951688 -19.67861534285993" fill="#d7ff1c" stroke="none" /><path d="M 86.13680546590413 115.77377054828092 l -4.3336813876019145 4.930933896171178 a27.564670856764803,27.564670856764803 0 0,0 -0.35274243253882376,-0.3154244582939924 l 4.41768884696411 -4.855813907993803" fill="#ff2403" stroke="none" /><path d="M 85.08716467003676 114.78537596483092 l -14.843771587118562 14.716902506839647 a41.90274561693682,41.90274561693682 0 0,0 -0.5020611364400653,-0.5151589551595794 l 15.094219524709438 -14.45992085961233" fill="#ffed16" stroke="none" /><path d="M 84.83555147118756 114.52719865689866 l -7.780370383125401 7.453418827935766 a31.77439629507112,31.77439629507112 0 0,0 -0.373945556232345,-0.39711722203569366 l 7.907171773093999 -7.318760145955583" fill="#ff6209" stroke="none" /><path d="M 84.1078160697243 113.72728997021213 l -7.885635426865221 6.81142406725709 a31.42011247105524,31.42011247105524 0 0,0 -0.3490706216531034,-0.4112043145817617 l 8.001400612025437 -6.675052970225774" fill="#ff5d08" stroke="none" /><path d="M 83.64595745247003 113.17365903436017 l -8.114807747699288 6.536714704446 a31.42011247105524,31.42011247105524 0 0,0 -0.33474923394251294,-0.4229447216916638 l 8.225823412283363 -6.396450038839656" fill="#ff5d08" stroke="none" /><path d="M 83.20337586046588 112.60449989151573 l -16.718836267237233 12.546126421955284 a41.90274561693682,41.90274561693682 0 0,0 -0.42680536482644227,-0.5790434477307701 l 16.931743651647505 -12.257276664955633" fill="#ffed16" stroke="none" /><path d="M 82.576782715395 111.72311816256416 l -10.374393355041015 6.980354843736515 a33.50413496526629,33.50413496526629 0 0,0 -0.3169739434619038,-0.4799389503045678 l 10.492691737423645 -6.8012360150928854" fill="#ff7b0b" stroke="none" /><path d="M 82.18462484594161 111.11811171558189 l -8.857594725950957 5.5277942138668825 a31.440952695997353,31.440952695997353 0 0,0 -0.2818187869251864,-0.4603298089382252 l 8.951181477331549 -5.3749272888041" fill="#ff5d08" stroke="none" /><path d="M 81.99639281039703 110.81064883170644 l -8.951181477331549 5.3749272888041 a31.440952695997353,31.440952695997353 0 0,0 -0.27387508698400953,-0.46509977251186 l 9.042130274445329 -5.220476347998681" fill="#ff5d08" stroke="none" /><line stroke="#e1ed5e" stroke-width="0.3" x1="26.387840678322732" x2="22.057713659400548" y1="142.50000000000003" y2="145.00000000000006" /><path d="M 25.521815274538298 143.00000000000003 a86.0,86.0 0 0,1 -11.493303480769221,-40.785679425670985" fill="none" id="id69" stroke="none" /><text fill="#e1ed5e" style="font-size:6.75px; font-family:Arial;" text-anchor="middle"><textPath startOffset="21.40746469413373" xlink:href="#id69">September</textPath></text><path d="M 81.81346652052679 110.50000000000001 l -9.294804573531627 5.366357922593456 a31.732715845186902,31.732715845186902 0 0,0 -0.26831769387441085,-0.4740916553712249 l 9.385555632427415 -5.20600949712311" fill="#ff6109" stroke="none" /><path d="M 81.4637452351635 109.86951160357371 l -9.197612354368092 4.8972105211249 a31.42011247105524,31.42011247105524 0 0,0 -0.2494037724202132,-0.47826461873580334 l 9.280324195763253 -4.738599659284594" fill="#ff5d08" stroke="none" /><path d="M 81.1358732173502 109.22738970284198 l -9.360301083021737 4.578592310374779 a31.42011247105524,31.42011247105524 0 0,0 -0.23283910560612572,-0.48654417901406927 l 9.437519446587775 -4.417235629295605" fill="#ff5d08" stroke="none" /><path d="M 80.28708602549918 107.23885506374661 l -5.868879449901007 2.1551338264544975 a27.252067482633144,27.252067482633144 0 0,0 -0.15749077503063535,-0.4405297274620063 l 5.905010394975585 -2.05406914261157" fill="#ff1f03" stroke="none" /><path d="M 80.05021161711548 106.5578916946017 l -19.798003687943613 6.507997050547492 a41.84022494211048,41.84022494211048 0 0,0 -0.21843642635580351,-0.6842489944018352 l 19.906804830076673 -6.167179022454265" fill="#ffec16" stroke="none" /><path d="M 79.64726062577567 105.17358676015961 l -20.258482559391666 5.1496270464175495 a41.90274561693682,41.90274561693682 0 0,0 -0.17122753557847087,-0.6986667766999481 l 20.34389762148643 -4.801104445109502" fill="#ffed16" stroke="none" /><path d="M 79.48165901384964 104.47187691870673 l -10.181115275959492 2.218926688078099 a31.42011247105524,31.42011247105524 0 0,0 -0.11033290570340354,-0.5279828947522641 l 10.217705892487261 -2.043827342040426" fill="#ff5d08" stroke="none" /><path d="M 79.2786578344484 103.40968896794605 l -20.625378291811046 3.393898149040574 a41.90274561693682,41.90274561693682 0 0,0 -0.11070008581606691,-0.7107739618225253 l 20.68059986976538 -3.0393360052865988" fill="#ffed16" stroke="none" /><line stroke="#e1ed5e" stroke-width="0.3" x1="15.003131293944662" x2="10.003315487706104" y1="100.72959589197737" y2="100.7725132973878" /><path d="M 14.003168132696942 100.73817937305945 a86.0,86.0 0 0,1 10.791469493833604,-42.45332614584628" fill="none" id="id70" stroke="none" /><text fill="#e1ed5e" style="font-size:6.75px; font-family:Arial;" text-anchor="middle"><textPath startOffset="22.145653131862435" xlink:href="#id70">October</textPath></text><path d="M 79.00696218219943 99.45929381324524 l -11.04165733718257 -0.2843939255508007 a32.04531921931856,32.04531921931856 0 0,0 0.01888432645832908,-0.5497965602268041 l 11.035148323727391 0.47389675034174333" fill="#ff6609" stroke="none" /><path d="M 79.01933749520258 99.09900007780938 l -6.2463103719211635 -0.268243443589666 a27.252067482633144,27.252067482633144 0 0,0 0.024083574119045503,-0.4672149039309159 l 6.240785208345548 0.3754301408972939" fill="#ff1f03" stroke="none" /><path d="M 79.03789590574601 98.7389718711861 l -10.422111297937066 -0.626968335298481 a31.440952695997353,31.440952695997353 0 0,0 0.03703450604264686,-0.5384735899032501 l 10.409812830729356 0.8057853493560561" fill="#ff5d08" stroke="none" /><path d="M 79.06263194458094 98.37931529534042 l -29.92042011227599 -2.316029746652137 a51.009923916639096,51.009923916639096 0 0,0 0.07507295022509831,-0.8724614783726022 l 29.87625353935315 2.82931227240042" fill="#a1ff22" stroke="none" /><path d="M 79.64726062577567 94.8264132398404 l -12.118733335628113 -3.0805346239785885 a33.50413496526629,33.50413496526629 0 0,0 0.14647771554045927,-0.5561997444293946 l 12.064066139282927 3.2881148727807674" fill="#ff7b0b" stroke="none" /><path d="M 79.73907114497095 94.47779374421319 l -12.184706800675755 -3.320996021508575 a33.62917631491895,33.62917631491895 0 0,0 0.15658626525535835,-0.5556694146164449 l 12.125902043345816 3.529673360028033" fill="#ff7c0b" stroke="none" /><path d="M 80.05021161711548 93.44210830539832 l -10.037587869787416 -3.2995545046275754 a31.565994045650015,31.565994045650015 0 0,0 0.17363488070630945,-0.5133206719118126 l 9.979467567508742 3.4713768510135496" fill="#ff5f08" stroke="none" /><path d="M 80.41425534168474 92.42381321644754 l -19.942084703372274 -7.714026768036538 a42.382070790605354,42.382070790605354 0 0,0 0.26830136421820444,-0.676294705253037 l 19.806724664187936 8.055222490503159" fill="#fff316" stroke="none" /><path d="M 80.68587082218212 91.75594674310238 l -11.500308475048683 -4.908797837385277 a33.50413496526629,33.50413496526629 0 0,0 0.23032675720546422,-0.5270326951607655 l 11.414347835826243 5.10549260232191" fill="#ff7b0b" stroke="none" /><path d="M 81.29705330413844 90.45014215332179 l -7.6098658405258695 -3.8856517206133647 a29.544492226265298,29.544492226265298 0 0,0 0.23451564096909708,-0.4497146636045712 l 7.542042130581833 4.015712627322422" fill="#ff4106" stroke="none" /><line stroke="#e1ed5e" stroke-width="0.3" x1="26.387840678322718" x2="22.05771365940052" y1="57.49999999999999" y2="54.99999999999999" /><path d="M 25.521815274538284 56.99999999999999 a86.0,86.0 0 0,1 29.574782752854787,-30.34633250058573" fill="none" id="id71" stroke="none" /><text fill="#e1ed5e" style="font-size:6.75px; font-family:Arial;" text-anchor="middle"><textPath startOffset="21.40746469413373" xlink:href="#id71">November</textPath></text><path d="M 81.99639281039701 89.18935116829357 l -17.93809621405366 -10.771311373172269 a41.92358584187893,41.92358584187893 0 0,0 0.3757791381117113,-0.6138069812068749 l 17.750549111486556 11.077655470503688" fill="#ffed16" stroke="none" /><path d="M 82.18462484594161 88.88188828441811 l -13.878666386969066 -8.661314287196607 a37.35957657955673,37.35957657955673 0 0,0 0.3442103388805703,-0.5411558245379101 l 13.727938356462607 8.898283786413188" fill="#ffb010" stroke="none" /><path d="M 82.78059297857968 87.97951657250589 l -10.526451927087248 -7.34828097056207 a33.83757856434006,33.83757856434006 0 0,0 0.3365790125903093,-0.47344053215280407 l 10.398757815966967 7.527898729424394" fill="#ff7f0b" stroke="none" /><path d="M 83.42222388311158 87.10902102172516 l -17.27422916579507 -13.432545081563275 a42.88223618921601,42.88223618921601 0 0,0 0.456866464984995,-0.577235853858638 l 17.041096270168513 13.727100879336595" fill="#fffa17" stroke="none" /><path d="M 86.96720088162412 83.53348406188908 l -14.524479070396405 -18.35120482814942 a44.40357260999008,44.40357260999008 0 0,0 0.6017531041652386,-0.46792685347000185 l 14.207316021595922 18.597832733240224" fill="#f1ff19" stroke="none" /><path d="M 87.54013794807813 83.09580414077388 l -3.7095189701388303 -5.032674916739497 a27.252067482633144,27.252067482633144 0 0,0 0.37895815292852264,-0.27433647830083013 l 3.6225798068363395 5.095612166413406" fill="#ff1f03" stroke="none" /><path d="M 87.83215693770416 82.88440491214696 l -4.709353748887241 -6.624295816337427 a29.127687727423087,29.127687727423087 0 0,0 0.4100136892849492,-0.286221398388721 l 4.594944968428527 6.7041620305312755" fill="#ff3b05" stroke="none" /><path d="M 88.12776184653039 82.6780497279521 l -3.5345730526373282 -5.157047715793289 a27.252067482633144,27.252067482633144 0 0,0 0.38815212100413854,-0.2611660696903604 l 3.4455246435362006 5.216963459540759" fill="#ff1f03" stroke="none" /><path d="M 88.72937992617638 82.28071324371311 l -7.046467727266505 -11.078217654443343 a34.129341713529605,34.129341713529605 0 0,0 0.49704652175197184,-0.3101937909750359 l 6.855257076724834 11.197547242259914" fill="#ff840c" stroke="none" /><path d="M 89.03521579738668 82.08984904055464 l -13.068513887534172 -21.346435298339934 a46.0291101554747,46.0291101554747 0 0,0 0.6774328663746083,-0.4067789720307548 l 12.700148264602129 21.567628270906614" fill="#ddff1b" stroke="none" /><line stroke="#e1ed5e" stroke-width="0.3" x1="56.869717070023135" x2="54.33264160355391" y1="26.7553504044142" y2="22.446841604673864" /><path d="M 56.362301976729285 25.89364864446614 a86.0,86.0 0 0,1 42.16139366436587,-11.88097634709845" fill="none" id="id72" stroke="none" /><text fill="#e1ed5e" style="font-size:6.75px; font-family:Arial;" text-anchor="middle"><textPath startOffset="22.145653131862474" xlink:href="#id72">December</textPath></text><path d="M 90.28995756902619 81.37971332152246 l -2.168137162059983 -4.1576888878505915 a25.68905061197486,25.68905061197486 0 0,0 0.3927645167393889,-0.20054836080511418 l 2.096445423607012 4.19429520032854" fill="#ff0701" stroke="none" /><path d="M 91.5904679813234 80.7573450057729 l -25.22859605602979 -57.7279649826813 a84.0,84.0 0 0,0 1.3262596993182754,-0.5661014013623844 l 24.233901281541083 58.15254103370309" fill="#4dd2ff" stroke="none" /><path d="M 92.592206182469 80.34994680014964 l -2.2054298497445903 -5.850164697275992 a27.252067482633144,27.252067482633144 0 0,0 0.43916167980842197,-0.1612662518487542 l 2.104679018282041 5.887161798133468" fill="#ff1f03" stroke="none" /><path d="M 93.95794788825049 79.88797359093562 l -12.795639305134085 -42.592521690648425 a65.47304002646378,65.47304002646378 0 0,0 1.07918272686179,-0.31413436361188996 l 12.06259656589067 42.80589974856284" fill="#35ff63" stroke="none" /><path d="M 94.6519064749342 79.69241777938228 l -2.122961372834591 -8.06123012396337 a29.336089976844193,29.336089976844193 0 0,0 0.4880892645415905,-0.1240703823882515 l 1.9842668150676221 8.096485738186884" fill="#ff3e05" stroke="none" /><path d="M 95.00130118170881 79.60360301121753 l -1.9842668150676221 -8.096485738186884 a29.336089976844193,29.336089976844193 0 0,0 0.49014717656512635,-0.11567339906780073 l 1.8449874847625898 8.129355280900917" fill="#ff3e05" stroke="none" /></svg>