<?xml version="1.0" encoding="utf-8" ?>
<svg baseProfile="full" height="200mm" version="1.1" viewBox="0,0,200,200" width="200mm" xmlns="http://www.w3.org/2000/svg" xmlns:ev="http://www.w3.org/2001/xml-events" xmlns:xlink="http://www.w3.org/1999/xlink"><defs /><rect fill="#1a1a1a" height="200" width="200" x="0" y="0" /><text alignment-baseline="middle" fill="#e1ed5e" style="dominant-baseline: central; font-size:9.0px; font-family:Arial;" text-anchor="middle" x="100.0" y="100.0">2025</text><line stroke="#e1ed5e" stroke-width="0.3" x1="100.0" x2="100.0" y1="15.0" y2="10.0" /><path d="M 100.0 14.0 a86.0,86.0 0 0,1 42.46469731375804,11.215312516191453" fill="none" id="id73" stroke="none" /><text fill="#e1ed5e" style="font-size:6.75px; font-family:Arial;" text-anchor="middle"><textPath startOffset="22.20632615414155" xlink:href="#id73">January</textPath></text><path d="M 100.72285384407766 79.0124445844662 l 0.26905229928448904 -7.811745191886029 a28.81637717121588,28.81637717121588 0 0,0 0.49558565679578076,0.02134096087374763 l -0.40347878846960133 7.805956504488087" fill="#ff5a08" stroke="none" /><path d="M 101.08401301168833 79.027996857942 l 0.40347878846960133 -7.805956504488087 a28.81637717121588,28.81637717121588 0 0,0 0.4951448808726913,0.029868491396257673 l -0.5377857181819046 7.797854743711524" fill="#ff5a08" stroke="none" /><path d="M 102.52436894288641 79.15227682838746 l 1.5409299254343818 -12.725905459594749 a33.81885856079404,33.81885856079404 0 0,0 0.5773125091771907,0.07495173267115454 l -1.7597571631194184 12.697495403759458" fill="#ff9e0e" stroke="none" /><path d="M 102.88285421437855 79.19881850522331 l 1.2876271925264042 -9.290850295433753 a30.379652605459057,30.379652605459057 0 0,0 0.5173669588339793,0.07624644102768015 l -1.4473631317890392 9.267309370245103" fill="#ff6f0a" stroke="none" /><path d="M 104.66035177308747 79.52364482259891 l 0.7944569896057313 -3.490634244882024 a24.579900744416875,24.579900744416875 0 0,0 0.41174413612848054,0.09744653410211479 l -0.8544248126967353 3.4764417986390406" fill="#ff1d03" stroke="none" /><path d="M 106.0581310904928 79.89281104454417 l 0.9064647760712538 -3.008594277950339 a24.142183622828785,24.142183622828785 0 0,0 0.3968683295859162,0.12330892185838267 l -0.9581184783678883 2.992545221209436" fill="#ff1702" stroke="none" /><path d="M 106.40334571778207 80.00007090966166 l 5.729643835811948 -17.895718188526075 a39.79057071960298,39.79057071960298 0 0,0 0.6505136400389331,0.21446411949292118 l -6.036840298093299 17.79444034477392" fill="#ffea16" stroke="none" /><line stroke="#e1ed5e" stroke-width="0.3" x1="143.23703022742887" x2="145.7803849466894" y1="26.81831364943548" y2="22.513508569990506" /><path d="M 143.74570117128098 25.957352633546492 a86.0,86.0 0 0,1 28.547481713284135,27.462654790039103" fill="none" id="id74" stroke="none" /><text fill="#e1ed5e" style="font-size:6.75px; font-family:Arial;" text-anchor="middle"><textPath startOffset="19.985693538727396" xlink:href="#id74">February</textPath></text><path d="M 110.68208982089419 81.91981866633111 l 2.3855783719118544 -4.037757617940941 a25.68982630272953,25.68982630272953 0 0,0 0.37878784455261716,0.2282154380568313 l -2.454728282682109 3.9960955704254952" fill="#ff2d04" stroke="none" /><path d="M 111.60114157652 82.49532879139004 l 5.207559581122754 -7.857555884956683 a30.426550868486352,30.426550868486352 0 0,0 0.43407865740947943,0.29309184716825437 l -5.342042932938776 7.766752125489758" fill="#ff700a" stroke="none" /><path d="M 111.90073688211348 82.69761687909136 l 5.342042932938776 -7.766752125489758 a30.426550868486352,30.426550868486352 0 0,0 0.42896924962061095,0.30052037297800993 l -5.474943322143038 7.673646909747812" fill="#ff700a" stroke="none" /><path d="M 112.48926042617603 83.11751280151076 l 13.97371594581333 -18.889115329525563 a44.49602977667494,44.49602977667494 0 0,0 0.6118285590712575,0.46081658615622073 l -14.296790658642971 18.645782153863497" fill="#daff1b" stroke="none" /><path d="M 114.42810811169701 84.74124197986012 l 5.381004092278066 -5.690797345972764 a28.832009925558314,28.832009925558314 0 0,0 0.35767722409242925,0.3440852061896237 l -5.478164559982914 5.597329053020839" fill="#ff5a08" stroke="none" /><path d="M 114.94478906791727 85.2469230424477 l 28.180012934765088 -27.81851905718112 a60.59776674937965,60.59776674937965 0 0,0 0.7264106395524925,0.7486300173567545 l -28.654687838020692 27.32932484427425" fill="#30ff33" stroke="none" /><path d="M 115.9244219780498 86.31012108654704 l 7.112645052230685 -6.114586115189909 a30.379652605459057,30.379652605459057 0 0,0 0.33748811994295447,0.3994794847797292 l -7.216843785660757 5.991247680781074" fill="#ff6f0a" stroke="none" /><path d="M 117.04232023915458 87.72973835380427 l 7.611954449250185 -5.4805138866382945 a30.379652605459057,30.379652605459057 0 0,0 0.30189762445244733,0.4270127799170337 l -7.705164693506515 5.3486746063894675" fill="#ff6f0a" stroke="none" /><line stroke="#e1ed5e" stroke-width="0.3" x1="172.23445277983987" x2="176.4835382374775" y1="55.19839476539836" y2="52.563006222186495" /><path d="M 173.08426987136738 54.67131705675599 a86.0,86.0 0 0,1 12.851231095245387,41.99856678651699" fill="none" id="id75" stroke="none" /><text fill="#e1ed5e" style="font-size:6.75px; font-family:Arial;" text-anchor="middle"><textPath startOffset="22.20632615414155" xlink:href="#id75">March</textPath></text><path d="M 118.3937258080291 89.86733742301442 l 4.833487749554051 -2.662652523331946 a26.518362282878414,26.518362282878414 0 0,0 0.2168089536171793,0.40171406347918553 l -4.878604802389694 2.5790574765203016" fill="#ff3905" stroke="none" /><path d="M 118.73160827565052 90.50648371742162 l 5.828644361703661 -2.9540618904102494 a27.534491315136478,27.534491315136478 0 0,0 0.21062572991419146,0.4246086189507566 l -5.878630104571261 2.853293682960543" fill="#ff4806" stroke="none" /><path d="M 118.89224826269711 90.83032412892265 l 8.438225030485063 -4.095636865493602 a30.379652605459057,30.379652605459057 0 0,0 0.22429124811477952,0.47241456992944164 l -8.507474472441597 3.9497798799236197" fill="#ff6f0a" stroke="none" /><path d="M 119.04729006885535 91.15688171328212 l 21.282865305224732 -9.881032666275589 a44.46476426799008,44.46476426799008 0 0,0 0.3163301313527941,0.6969915132880096 l -21.449797753540874 9.513219144145516" fill="#dbff1b" stroke="none" /><path d="M 119.47837535516314 92.15188598940014 l 7.2500156408795755 -2.921134247121532 a28.81637717121588,28.81637717121588 0 0,0 0.18141480624173612,0.46168089402638024 l -7.299223997003012 2.7959043481993673" fill="#ff5a08" stroke="none" /><path d="M 119.61058180528143 92.48833698450437 l 11.678758395204824 -4.473446957118989 a33.50620347394541,33.50620347394541 0 0,0 0.20166811313512398,0.5403702801244137 l -11.754031096841572 4.271753539965243" fill="#ff9a0e" stroke="none" /><path d="M 119.85752413597 93.16781622104841 l 4.449465085553573 -1.5308838591546594 a25.70545905707196,25.70545905707196 0 0,0 0.1403551190629921,0.41964394126159427 l -4.475157498388335 1.4540668149707512" fill="#ff2e04" stroke="none" /><path d="M 120.28053869075195 94.5502522615342 l 9.058305122420228 -2.4341305035331104 a30.379652605459057,30.379652605459057 0 0,0 0.1313611377657904,0.5061880493921097 l -9.09886259205632 2.2778460285921502" fill="#ff6f0a" stroke="none" /><path d="M 120.37134235888165 94.90015583598534 l 9.09886259205632 -2.2778460285921502 a30.379652605459057,30.379652605459057 0 0,0 0.12262848001970787,0.5083742182197674 l -9.136723872336848 2.120886578712977" fill="#ff6f0a" stroke="none" /><path d="M 120.45610955862082 95.25157060432595 l 9.151951745457412 -2.124421389677499 a30.39528535980149,30.39528535980149 0 0,0 0.11391807459481756,0.5106723913188737 l -9.187164207054266 1.9665708288086616" fill="#ff6f0a" stroke="none" /><path d="M 120.78858239683441 97.02765380044208 l 9.300698278285969 -1.3298114634746694 a30.39528535980149,30.39528535980149 0 0,0 0.0695965204703825,0.5185749158155863 l -9.322210797814188 1.1695182055944187" fill="#ff6f0a" stroke="none" /><path d="M 120.83666639777658 97.38593545837742 l 9.880612775719863 -1.2395725407048996 a30.958064516129035,30.958064516129035 0 0,0 0.0617829312172899,0.5293184244694914 l -9.900486059940743 1.0693103779105555" fill="#ff770b" stroke="none" /><line stroke="#e1ed5e" stroke-width="0.3" x1="184.98032266829074" x2="189.97916517819016" y1="98.17113171792111" y2="98.06355123074" /><path d="M 185.9800911702706 98.14961562048488 a86.0,86.0 0 0,1 -9.607161424134198,41.387399972396054" fill="none" id="id76" stroke="none" /><text fill="#e1ed5e" style="font-size:6.75px; font-family:Arial;" text-anchor="middle"><textPath startOffset="21.466115282336823" xlink:href="#id76">April</textPath></text><path d="M 120.99980553446 99.90962569577887 l 12.506087663201983 -0.05382092559074744 a33.50620347394541,33.50620347394541 0 0,0 -0.002482175788708592,0.5767702370100019 l -12.505161190123772 -0.16145878962293914" fill="#ff9a0e" stroke="none" /><path d="M 120.9764740272857 100.99374915477107 l 9.415990450461498 0.4460774741887978 a30.426550868486352,30.426550868486352 0 0,0 -0.02928722014087256,0.5229429896569388 l -9.406916879433098 -0.6080921801811598" fill="#ff700a" stroke="none" /><path d="M 120.8583938346157 102.4346265915055 l 4.658202097060578 0.543713134579394 a25.68982630272953,25.68982630272953 0 0,0 -0.05504778149206917,0.43878498048713227 l -4.648152806321661 -0.6238158693539212" fill="#ff2d04" stroke="none" /><path d="M 120.49622156327973 104.57218783832717 l 10.680413221560157 2.3825296428007565 a31.94292803970223,31.94292803970223 0 0,0 -0.12433318383268266,0.5356241018494533 l -10.637819471796922 -2.566022401998775" fill="#ff850c" stroke="none" /><path d="M 120.32669344350535 105.2749913415812 l 1.5131533580773224 0.3926792561971124 a22.563275434243177,22.563275434243177 0 0,0 -0.10079544154841306,0.375097334826272 l -1.5061698401871322 -0.41866752419893266" fill="#ff0000" stroke="none" /><path d="M 119.67450827220406 107.3425965602758 l 13.1814323411789 4.919357496958968 a35.069478908188586,35.069478908188586 0 0,0 -0.21593734450017357,0.5637442668022188 l -13.094800717085219 -5.14552533059433" fill="#ffae10" stroke="none" /><path d="M 119.41010516605496 108.01547362559984 l 2.9042911700077285 1.199337616932184 a24.142183622828785,24.142183622828785 0 0,0 -0.16192394643574015,0.3827403778135644 l -2.8832162423796794 -1.249152520411912" fill="#ff1702" stroke="none" /><path d="M 118.64920377521936 109.65438752849418 l 13.924430312564525 7.20844964596501 a36.679652605459054,36.679652605459054 0 0,0 -0.2950921574702178,0.558203153550546 l -13.798285646869415 -7.447067814601691" fill="#ffc312" stroke="none" /><line stroke="#e1ed5e" stroke-width="0.3" x1="174.80103733775053" x2="179.2010983576182" y1="140.37084112569926" y2="142.7455964860345" /><path d="M 175.68104954172406 140.8457921977663 a86.0,86.0 0 0,1 -30.038265399797805,32.042727171017184" fill="none" id="id77" stroke="none" /><text fill="#e1ed5e" style="font-size:6.75px; font-family:Arial;" text-anchor="middle"><textPath startOffset="22.206326154141568" xlink:href="#id77">May</textPath></text><path d="M 118.12598468904814 110.60418214915192 l 4.425798742933839 2.5892097356738213 a26.12754342431762,26.12754342431762 0 0,0 -0.23044384348612626,0.38623713678785954 l -4.380574023749486 -2.6650089663477847" fill="#ff3404" stroke="none" /><path d="M 117.35343817320211 111.8261652097733 l 6.639950784882787 4.525048822201094 a29.035235732009923,29.035235732009923 0 0,0 -0.28501415019666926,0.410584140718096 l -6.561075727523981 -4.63867422510621" fill="#ff5d08" stroke="none" /><path d="M 117.14729908036423 112.12312394758627 l 3.9570690185455937 2.7976439879045247 a25.846153846153847,25.846153846153847 0 0,0 -0.25996333246079656,0.36106633175245395 l -3.9083258937091943 -2.86534392510811" fill="#ff3004" stroke="none" /><path d="M 112.92097659922987 116.55440617244103 l 5.347937709060903 6.851798882290731 a29.69181141439206,29.69181141439206 0 0,0 -0.40560608065609743,0.31100144671653535 l -5.2292028999113125 -6.942839670834638" fill="#ff6609" stroke="none" /><path d="M 112.04921762599082 117.19931262002967 l 4.484820456324127 6.40172926303834 a28.81637717121588,28.81637717121588 0 0,0 -0.4087028357408078,0.2811095371739527 l -4.373960735960436 -6.477979589577386" fill="#ff5a08" stroke="none" /><line stroke="#e1ed5e" stroke-width="0.3" x1="143.8653032363475" x2="146.44561519142675" y1="172.8068346515853" y2="177.08958963109032" /><path d="M 144.38136562736335 173.6633856474863 a86.0,86.0 0 0,1 -40.68145358897372,12.25698825130547" fill="none" id="id78" stroke="none" /><text fill="#e1ed5e" style="font-size:6.75px; font-family:Arial;" text-anchor="middle"><textPath startOffset="21.466115282336833" xlink:href="#id78">June</textPath></text><path d="M 110.8373102113329 117.98757091392108 l 4.977633052401295 8.261785052523056 a30.6454094292804,30.6454094292804 0 0,0 -0.4541826676134206,0.26833912564279383 l -4.834682513759493 -8.346242750459599" fill="#ff730a" stroke="none" /><path d="M 110.21172684928248 118.3499491758327 l 2.409764822250038 4.33022373851536 a25.95558312655087,25.95558312655087 0 0,0 -0.3922719042387744,0.21389791900361865 l -2.3348701061426147 -4.3710623092787495" fill="#ff3104" stroke="none" /><path d="M 108.92500713936063 119.00905698771935 l 6.643925910194015 14.150662770014401 a36.63275434243176,36.63275434243176 0 0,0 -0.573096771651375,0.26308061924353776 l -6.399361142775221 -14.262930459592013" fill="#ffc212" stroke="none" /><path d="M 106.91757812671514 119.82793768551818 l 2.5799305023456216 7.394885940777627 a28.832009925558314,28.832009925558314 0 0,0 -0.47000331703680476,0.159450643546572 l -2.45225745237159 -7.438199571222322" fill="#ff5a08" stroke="none" /><path d="M 101.98527174616119 120.90594882070398 l 0.9221907466039079 9.711150419939912 a30.75483870967742,30.75483870967742 0 0,0 -0.5274538056301292,0.04551093375963487 l -0.7548926232322369 -9.72558560597821" fill="#ff740a" stroke="none" /><path d="M 101.62511606390274 120.93702456842531 l 0.6206088392918874 7.995553551068628 a29.019602977667496,29.019602977667496 0 0,0 -0.49835950005512086,0.0343697889302253 l -0.48288657845783617 -8.00505168451514" fill="#ff5c08" stroke="none" /><line stroke="#e1ed5e" stroke-width="0.3" x1="102.19456741930631" x2="102.32365962044197" y1="184.97166512339345" y2="189.96999836594603" /><path d="M 102.22038585953345 185.97133177190398 a86.0,86.0 0 0,1 -42.740103519485714,-10.115201625700543" fill="none" id="id79" stroke="none" /><text fill="#e1ed5e" style="font-size:6.75px; font-family:Arial;" text-anchor="middle"><textPath startOffset="22.20632615414155" xlink:href="#id79">July</textPath></text><path d="M 99.09653310690486 120.98055641714683 l -0.2132002519437905 4.950994826974353 a25.95558312655087,25.95558312655087 0 0,0 -0.4462035809509707,-0.023063628416246245 l 0.2983919013082501 -4.946591391795905" fill="#ff3104" stroke="none" /><path d="M 96.93821686468263 120.77559828337769 l -1.26725912399736 8.598932490489824 a29.69181141439206,29.69181141439206 0 0,0 -0.5049928657961958,-0.07886949993453879 l 1.4150878534020732 -8.57584468320818" fill="#ff6609" stroke="none" /><path d="M 95.51606077576429 120.51570834832081 l -1.678973769074862 7.681936451021369 a28.863275434243178,28.863275434243178 0 0,0 -0.4844630006235568,-0.11026220166580475 l 1.8109569190912815 -7.651897515777878" fill="#ff5a08" stroke="none" /><path d="M 92.40401165467489 119.57807347666478 l -3.4606041196071735 8.919439926341571 a30.567245657568236,30.567245657568236 0 0,0 -0.48889969427753355,-0.1945432780928073 l 3.6136248899265655 -8.858549803842697" fill="#ff720a" stroke="none" /><line stroke="#e1ed5e" stroke-width="0.3" x1="58.666819895761336" x2="56.23545636021788" y1="174.27360380694188" y2="178.64263932499728" /><path d="M 58.180547188652646 175.14741091055294 a86.0,86.0 0 0,1 -31.652253787137756,-30.449443065178592" fill="none" id="id80" stroke="none" /><text fill="#e1ed5e" style="font-size:6.75px; font-family:Arial;" text-anchor="middle"><textPath startOffset="22.20632615414155" xlink:href="#id80">August</textPath></text><path d="M 89.7882731507175 118.34994917583269 l -2.440171949344675 4.3848637856890536 a26.018114143920595,26.018114143920595 0 0,0 -0.38946791731077224,-0.22115004793731932 l 2.5152886335766547 -4.342210571957101" fill="#ff3204" stroke="none" /><path d="M 89.4739219176387 118.17145234162733 l -2.6720044362917115 4.612753286720784 a26.33076923076923,26.33076923076923 0 0,0 -0.39023720786441324,-0.23055902089322178 l 2.751009515184507 -4.566075693533812" fill="#ff3705" stroke="none" /><path d="M 89.1626897886671 117.98757091392108 l -2.6945371790956747 4.472343934429012 a26.221339950372208,26.221339950372208 0 0,0 -0.384605624302884,-0.2362561873249631 l 2.7711220033308677 -4.425299280275671" fill="#ff3505" stroke="none" /><path d="M 87.36589467227662 116.77436683061367 l -5.746480165190306 7.629631364892021 a30.551612903225806,30.551612903225806 0 0,0 -0.41735143048205636,-0.3200072801156696 l 5.876960324165849 -7.529584742948985" fill="#ff720a" stroke="none" /><path d="M 85.44109423537348 115.13401014063109 l -7.608202367320957 7.908740783168507 a31.9741935483871,31.9741935483871 0 0,0 -0.39335878218911335,-0.38498435942111975 l 7.743211101885865 -7.7766063208248175" fill="#ff850c" stroke="none" /><path d="M 84.43433777217949 114.09645910891817 l -6.00224295335808 5.4357065645803555 a29.09776674937965,29.09776674937965 0 0,0 -0.3330186063433446,-0.37414993453275797 l 6.094920409349763 -5.331582460306733" fill="#ff5e08" stroke="none" /><path d="M 83.95833913139862 113.55231037782056 l -6.639575763976952 5.6092440968249875 a29.69181141439206,29.69181141439206 0 0,0 -0.3264741917138039,-0.3932591952768707 l 6.735145955584293 -5.494123644434356" fill="#ff6609" stroke="none" /><path d="M 83.72743513129214 113.27417163493432 l -14.972374822126232 12.213555439785727 a40.32208436724566,40.32208436724566 0 0,0 -0.4341000487641405,-0.5416065567671035 l 15.180392782945233 -11.954021049440364" fill="#fff116" stroke="none" /><path d="M 83.50135304334701 112.99209946851258 l -9.862342560440958 7.766245066909881 a33.55310173697271,33.55310173697271 0 0,0 -0.3534151126384262,-0.4568366739217782 l 9.994564490297453 -7.59533039887485" fill="#ff9a0e" stroke="none" /><path d="M 82.24976979558568 111.22182372390057 l -53.25069061324296 33.6654711717017 a84.0,84.0 0 0,0 -0.7621414413281764,-1.2288146745389432 l 53.82229669423909 -32.743860165797486" fill="#4dd2ff" stroke="none" /><line stroke="#e1ed5e" stroke-width="0.3" x1="26.63291911575756" x2="22.317208475507996" y1="142.92168965132927" y2="145.44649492493687" /><path d="M 25.769776987707644 143.4266507060508 a86.0,86.0 0 0,1 -11.730757126820373,-40.83630448921669" fill="none" id="id81" stroke="none" /><text fill="#e1ed5e" style="font-size:6.75px; font-family:Arial;" text-anchor="middle"><textPath startOffset="21.46611528233685" xlink:href="#id81">September</textPath></text><path d="M 81.02952815118164 109.00673069616217 l -15.562377154390452 7.388648059928566 a38.2272952853598,38.2272952853598 0 0,0 -0.27710307961861824,-0.5968553812512467 l 15.687254850848896 -7.119672611398492" fill="#ffd714" stroke="none" /><path d="M 79.35854240842038 103.8639653848113 l -7.729022209849544 1.4468297185310786 a28.863275434243178,28.863275434243178 0 0,0 -0.08721321485936322,-0.48913802473665746 l 7.752781867048096 -1.3135729430612075" fill="#ff5a08" stroke="none" /><path d="M 79.18660465613746 102.79330883721812 l -7.777909029244912 1.0438518880522318 a28.847642679900744,28.847642679900744 0 0,0 -0.06181430392294014,-0.49272082190196176 l 7.7947248424147 -0.9098133118628614" fill="#ff5a08" stroke="none" /><line stroke="#e1ed5e" stroke-width="0.3" x1="15.007084014347285" x2="10.007500721073583" y1="101.09737516637583" y2="101.16192664675087" /><path d="M 14.007167355692545 101.11028546245083 a86.0,86.0 0 0,1 10.666146001902534,-42.60595125391555" fill="none" id="id82" stroke="none" /><text fill="#e1ed5e" style="font-size:6.75px; font-family:Arial;" text-anchor="middle"><textPath startOffset="22.20632615414155" xlink:href="#id82">October</textPath></text><path d="M 79.16333360222342 97.38593545837743 l -15.57321071714716 -1.9537375680811806 a36.69528535980149,36.69528535980149 0 0,0 0.08402172075303571,-0.6260594131961956 l 15.537272997336292 2.2215153233420355" fill="#ffc312" stroke="none" /><line stroke="#e1ed5e" stroke-width="0.3" x1="26.266209847984243" x2="21.928928074336255" y1="57.711370442889674" y2="55.22380399835377" /><path d="M 25.398753493254645 57.213857153982495 a86.0,86.0 0 0,1 29.58750427330803,-30.492523968695096" fill="none" id="id83" stroke="none" /><text fill="#e1ed5e" style="font-size:6.75px; font-family:Arial;" text-anchor="middle"><textPath startOffset="21.46611528233685" xlink:href="#id83">November</textPath></text><line stroke="#e1ed5e" stroke-width="0.3" x1="56.762969772571076" x2="54.21961505331055" y1="26.818313649435495" y2="22.513508569990535" /><path d="M 56.25429882871897 25.957352633546506 a86.0,86.0 0 0,1 42.265352541879196,-11.944610805530505" fill="none" id="id84" stroke="none" /><text fill="#e1ed5e" style="font-size:6.75px; font-family:Arial;" text-anchor="middle"><textPath startOffset="22.20632615414155" xlink:href="#id84">December</textPath></text></svg>