<?xml version="1.0" encoding="utf-8" ?>
<svg baseProfile="full" height="200mm" version="1.1" viewBox="0,0,200,200" width="200mm" xmlns="http://www.w3.org/2000/svg" xmlns:ev="http://www.w3.org/2001/xml-events" xmlns:xlink="http://www.w3.org/1999/xlink"><defs /><rect fill="#1a1a1a" height="200" width="200" x="0" y="0" /><text alignment-baseline="middle" fill="#e1ed5e" style="dominant-baseline: central; font-size:9.0px; font-family:Arial;" text-anchor="middle" x="100.0" y="100.0">2025</text><line stroke="#e1ed5e" stroke-width="0.3" x1="100.0" x2="100.0" y1="15.0" y2="10.0" /><path d="M 100.0 14.0 a86.0,86.0 0 0,1 42.46469731375804,11.215312516191453" fill="none" id="id73" stroke="none" /><text fill="#e1ed5e" style="font-size:6.75px; font-family:Arial;" text-anchor="middle"><textPath startOffset="22.20632615414155" xlink:href="#id73">January</textPath></text><path d="M 100.72285384407766 79.0124445844662 l 0.42806188950512863 -12.428477348322424 a33.43584682195026,33.43584682195026 0 0,0 0.57503155269397,0.024762068270004937 l -0.6419342745884301 12.419267553528226" fill="#ff700a" stroke="none" /><path d="M 101.08401301168833 79.027996857942 l 0.6419342745884301 -12.419267553528226 a33.43584682195026,33.43584682195026 0 0,0 0.5745201172640526,0.03465662241975272 l -0.8556164406920946 12.406377661728168" fill="#ff700a" stroke="none" /><path d="M 102.52436894288641 79.15227682838746 l 2.451617686340529 -20.246900514080878 a41.39478878799842,41.39478878799842 0 0,0 0.7066391474774277,0.09174204202189715 l -2.799771562325803 20.201700148894844" fill="#ffdf14" stroke="none" /><path d="M 102.88285421437855 79.19881850522331 l 2.0486133382871725 -14.781731816264516 a35.923016186340305,35.923016186340305 0 0,0 0.6117707097523231,0.09015909993309179 l -2.3027530284681514 14.744278232170455" fill="#ff940d" stroke="none" /><path d="M 104.66035177308747 79.52364482259891 l 1.2639801295345816 -5.5535949494175085 a26.695617844453217,26.695617844453217 0 0,0 0.44718504855139135,0.10583425302266204 l -1.3593888650484964 5.531014784253977" fill="#ff0b01" stroke="none" /><path d="M 106.0581310904928 79.89281104454417 l 1.4421843851429734 -4.7866699329411215 a25.999210422424003,25.999210422424003 0 0,0 0.42739560646631963,0.1327938953842935 l -1.5243653643200112 4.761135902674308" fill="#ff0000" stroke="none" /><path d="M 106.40334571778207 80.00007090966166 l 9.11585655677937 -28.4720664428583 a50.895775759968416,50.895775759968416 0 0,0 0.8320663854140541,0.2743192052003746 l -9.604605764435842 28.310933513398687" fill="#a7ff21" stroke="none" /><line stroke="#e1ed5e" stroke-width="0.3" x1="143.23703022742887" x2="145.7803849466894" y1="26.81831364943548" y2="22.513508569990506" /><path d="M 143.74570117128098 25.957352633546492 a86.0,86.0 0 0,1 28.547481713284135,27.462654790039103" fill="none" id="id74" stroke="none" /><text fill="#e1ed5e" style="font-size:6.75px; font-family:Arial;" text-anchor="middle"><textPath startOffset="19.985693538727396" xlink:href="#id74">February</textPath></text><path d="M 110.68208982089419 81.91981866633111 l 3.7954523643129776 -6.424067587959728 a28.461508093170153,28.461508093170153 0 0,0 0.4196553599190092,0.25283765879533204 l -3.9054697904496245 6.357783319705781" fill="#ff2603" stroke="none" /><path d="M 111.60114157652 82.49532879139004 l 8.2852211259079 -12.501362106741192 a35.99763126727201,35.99763126727201 0 0,0 0.5135581590551896,0.3467567614682884 l -8.49918397936963 12.356893432974234" fill="#ff950d" stroke="none" /><path d="M 111.90073688211348 82.69761687909136 l 8.49918397936963 -12.356893432974234 a35.99763126727201,35.99763126727201 0 0,0 0.507513222237579,0.35554544521081394 l -8.71062834119086 12.208763144999484" fill="#ff950d" stroke="none" /><path d="M 112.48926042617603 83.11751280151076 l 22.232165519789863 -30.05256011764233 a58.38215554678247,58.38215554678247 0 0,0 0.8027653317147522,0.6046262047768745 l -22.746177005262997 29.665417323359605" fill="#52ff2b" stroke="none" /><path d="M 114.42810811169701 84.74124197986012 l 8.561171137734151 -9.054051837453708 a33.46071851559416,33.46071851559416 0 0,0 0.4150989454324043,0.39932485662350947 l -8.715753326778975 8.905343894067896" fill="#ff700a" stroke="none" /><path d="M 114.94478906791727 85.2469230424477 l 44.8343672037518 -44.25923087265689 a84.0,84.0 0 0,0 1.0069429451875638,1.0377432177995427 l -45.58957441264248 43.480923459307235" fill="#4dd2ff" stroke="none" /><path d="M 115.9244219780498 86.31012108654704 l 11.316209854121459 -9.72829926735702 a35.923016186340305,35.923016186340305 0 0,0 0.3990694479906518,0.472372353437458 l -11.481989915599227 9.532067964290455" fill="#ff940d" stroke="none" /><path d="M 117.04232023915458 87.72973835380427 l 12.110610513414228 -8.71949110270522 a35.923016186340305,35.923016186340305 0 0,0 0.35698476841286036,0.5049296383980814 l -12.258907901630971 8.509734963975346" fill="#ff940d" stroke="none" /><line stroke="#e1ed5e" stroke-width="0.3" x1="172.23445277983987" x2="176.4835382374775" y1="55.19839476539836" y2="52.563006222186495" /><path d="M 173.08426987136738 54.67131705675599 a86.0,86.0 0 0,1 12.851231095245387,41.99856678651699" fill="none" id="id75" stroke="none" /><text fill="#e1ed5e" style="font-size:6.75px; font-family:Arial;" text-anchor="middle"><textPath startOffset="22.20632615414155" xlink:href="#id75">March</textPath></text><path d="M 118.3937258080291 89.86733742301442 l 7.69007328492018 -4.236277011065036 a29.77970785629688,29.77970785629688 0 0,0 0.24347307840792512,0.45111863713770556 l -7.7618544625465695 4.103277390594872" fill="#ff3a05" stroke="none" /><path d="M 118.73160827565052 90.50648371742162 l 9.273366276220194 -4.699908968951166 a31.396367943150416,31.396367943150416 0 0,0 0.24016724474751025,0.48416251020705764 l -9.352893533921113 4.539586870245159" fill="#ff5207" stroke="none" /><path d="M 118.89224826269711 90.83032412892265 l 13.425206029551834 -6.516153402265776 a35.923016186340305,35.923016186340305 0 0,0 0.2652175862943823,0.5586158756531933 l -13.535381809687971 6.284095110972043" fill="#ff940d" stroke="none" /><path d="M 119.04729006885535 91.15688171328212 l 33.86101349390275 -15.72071126928173 a58.33241215949467,58.33241215949467 0 0,0 0.41498701059845666,0.9143688692409184 l -34.12660282146455 15.13552039119875" fill="#53ff2b" stroke="none" /><path d="M 119.47837535516314 92.15188598940014 l 11.534766297964744 -4.647521127477211 a33.43584682195026,33.43584682195026 0 0,0 0.21049688642996534,0.5356916159712994 l -11.613056734276409 4.448280506610128" fill="#ff700a" stroke="none" /><path d="M 119.61058180528143 92.48833698450437 l 18.580890774842253 -7.117248810576203 a40.89735491512041,40.89735491512041 0 0,0 0.24615419065198682,0.659570850783379 l -18.700649553995866 6.796354822763491" fill="#ffd814" stroke="none" /><path d="M 119.85752413597 93.16781622104841 l 7.079093681318953 -2.435634406787714 a28.486379786814055,28.486379786814055 0 0,0 0.155539304619107,0.46504272339476077 l -7.11997027970983 2.313418580470639" fill="#ff2603" stroke="none" /><path d="M 120.28053869075195 94.5502522615342 l 14.411752721418678 -3.8726987482188844 a35.923016186340305,35.923016186340305 0 0,0 0.15533055428581857,0.5985519889841417 l -14.476279607574797 3.6240503336858922" fill="#ff940d" stroke="none" /><path d="M 120.37134235888165 94.90015583598534 l 14.476279607574797 -3.6240503336858922 a35.923016186340305,35.923016186340305 0 0,0 0.14500445182387262,0.6011370672008658 l -14.536516859659491 3.37432803482562" fill="#ff940d" stroke="none" /><path d="M 120.45610955862082 95.25157060432595 l 14.560744387758925 -3.379951914883663 a35.94788787998421,35.94788787998421 0 0,0 0.13472859769410384,0.6039618858394618 l -14.616767372455065 3.128811859494238" fill="#ff940d" stroke="none" /><path d="M 120.78858239683441 97.02765380044208 l 14.797399945318771 -2.1157284634042304 a35.94788787998421,35.94788787998421 0 0,0 0.08231039403285521,0.6133080413768714 l -14.831626338409462 1.8607020799626948" fill="#ff940d" stroke="none" /><path d="M 120.83666639777658 97.38593545837742 l 15.720043223904868 -1.9721584441534714 a36.84326885116462,36.84326885116462 0 0,0 0.07352801865457989,0.6299431610281699 l -15.751661595563037 1.7012715448004487" fill="#ffa10e" stroke="none" /><line stroke="#e1ed5e" stroke-width="0.3" x1="184.98032266829074" x2="189.97916517819016" y1="98.17113171792111" y2="98.06355123074" /><path d="M 185.9800911702706 98.14961562048488 a86.0,86.0 0 0,1 -9.607161424134198,41.387399972396054" fill="none" id="id76" stroke="none" /><text fill="#e1ed5e" style="font-size:6.75px; font-family:Arial;" text-anchor="middle"><textPath startOffset="21.466115282336823" xlink:href="#id76">April</textPath></text><path d="M 120.99980553446 99.90962569577887 l 19.897170660364775 -0.0856290288711852 a40.89735491512041,40.89735491512041 0 0,0 -0.003029720280648099,0.704000293731237 l -19.895696642794626 -0.2568807430637365" fill="#ffd814" stroke="none" /><path d="M 120.9764740272857 100.99374915477107 l 14.980829654701875 0.7097087331152213 a35.99763126727201,35.99763126727201 0 0,0 -0.034649689872225733,0.6186934890136565 l -14.96639361394212 -0.9674739384643012" fill="#ff950d" stroke="none" /><path d="M 120.8583938346157 102.4346265915055 l 7.411194019405499 0.8650469531602675 a28.461508093170153,28.461508093170153 0 0,0 -0.06098690041672735,0.4861256018678931 l -7.3952056097419225 -0.9924903093155555" fill="#ff2603" stroke="none" /><path d="M 120.49622156327973 104.57218783832717 l 16.99252478598004 3.790601839908035 a38.41018555073036,38.41018555073036 0 0,0 -0.14950603949615032,0.6440681052128302 l -16.92475818055334 -4.0825386024694295" fill="#ffb610" stroke="none" /><line stroke="#e1ed5e" stroke-width="0.3" x1="174.80103733775053" x2="179.2010983576182" y1="140.37084112569926" y2="142.7455964860345" /><path d="M 175.68104954172406 140.8457921977663 a86.0,86.0 0 0,1 -30.038265399797805,32.042727171017184" fill="none" id="id77" stroke="none" /><text fill="#e1ed5e" style="font-size:6.75px; font-family:Arial;" text-anchor="middle"><textPath startOffset="22.206326154141568" xlink:href="#id77">May</textPath></text><line stroke="#e1ed5e" stroke-width="0.3" x1="143.8653032363475" x2="146.44561519142675" y1="172.8068346515853" y2="177.08958963109032" /><path d="M 144.38136562736335 173.6633856474863 a86.0,86.0 0 0,1 -40.68145358897372,12.25698825130547" fill="none" id="id78" stroke="none" /><text fill="#e1ed5e" style="font-size:6.75px; font-family:Arial;" text-anchor="middle"><textPath startOffset="21.466115282336833" xlink:href="#id78">June</textPath></text><line stroke="#e1ed5e" stroke-width="0.3" x1="102.19456741930631" x2="102.32365962044197" y1="184.97166512339345" y2="189.96999836594603" /><path d="M 102.22038585953345 185.97133177190398 a86.0,86.0 0 0,1 -42.740103519485714,-10.115201625700543" fill="none" id="id79" stroke="none" /><text fill="#e1ed5e" style="font-size:6.75px; font-family:Arial;" text-anchor="middle"><textPath startOffset="22.20632615414155" xlink:href="#id79">July</textPath></text><line stroke="#e1ed5e" stroke-width="0.3" x1="58.666819895761336" x2="56.23545636021788" y1="174.27360380694188" y2="178.64263932499728" /><path d="M 58.180547188652646 175.14741091055294 a86.0,86.0 0 0,1 -31.652253787137756,-30.449443065178592" fill="none" id="id80" stroke="none" /><text fill="#e1ed5e" style="font-size:6.75px; font-family:Arial;" text-anchor="middle"><textPath startOffset="22.20632615414155" xlink:href="#id80">August</textPath></text><line stroke="#e1ed5e" stroke-width="0.3" x1="26.63291911575756" x2="22.317208475507996" y1="142.92168965132927" y2="145.44649492493687" /><path d="M 25.769776987707644 143.4266507060508 a86.0,86.0 0 0,1 -11.730757126820373,-40.83630448921669" fill="none" id="id81" stroke="none" /><text fill="#e1ed5e" style="font-size:6.75px; font-family:Arial;" text-anchor="middle"><textPath startOffset="21.46611528233685" xlink:href="#id81">September</textPath></text><line stroke="#e1ed5e" stroke-width="0.3" x1="15.007084014347285" x2="10.007500721073583" y1="101.09737516637583" y2="101.16192664675087" /><path d="M 14.007167355692545 101.11028546245083 a86.0,86.0 0 0,1 10.666146001902534,-42.60595125391555" fill="none" id="id82" stroke="none" /><text fill="#e1ed5e" style="font-size:6.75px; font-family:Arial;" text-anchor="middle"><textPath startOffset="22.20632615414155" xlink:href="#id82">October</textPath></text><line stroke="#e1ed5e" stroke-width="0.3" x1="26.266209847984243" x2="21.928928074336255" y1="57.711370442889674" y2="55.22380399835377" /><path d="M 25.398753493254645 57.213857153982495 a86.0,86.0 0 0,1 29.58750427330803,-30.492523968695096" fill="none" id="id83" stroke="none" /><text fill="#e1ed5e" style="font-size:6.75px; font-family:Arial;" text-anchor="middle"><textPath startOffset="21.46611528233685" xlink:href="#id83">November</textPath></text><line stroke="#e1ed5e" stroke-width="0.3" x1="56.762969772571076" x2="54.21961505331055" y1="26.818313649435495" y2="22.513508569990535" /><path d="M 56.25429882871897 25.957352633546506 a86.0,86.0 0 0,1 42.265352541879196,-11.944610805530505" fill="none" id="id84" stroke="none" /><text fill="#e1ed5e" style="font-size:6.75px; font-family:Arial;" text-anchor="middle"><textPath startOffset="22.20632615414155" xlink:href="#id84">December</textPath></text></svg>