<?xml version="1.0" encoding="utf-8" ?>
<svg baseProfile="full" height="200mm" version="1.1" viewBox="0,0,200,200" width="200mm" xmlns="http://www.w3.org/2000/svg" xmlns:ev="http://www.w3.org/2001/xml-events" xmlns:xlink="http://www.w3.org/1999/xlink"><defs /><rect fill="#1a1a1a" height="200" width="200" x="0" y="0" /><text alignment-baseline="middle" fill="#e1ed5e" style="dominant-baseline: central; font-size:9.0px; font-family:Arial;" text-anchor="middle" x="100.0" y="100.0">2024</text><line stroke="#e1ed5e" stroke-width="0.3" x1="100.0" x2="100.0" y1="15.0" y2="10.0" /><path d="M 100.0 14.0 a86.0,86.0 0 0,1 42.35913384403234,11.155469271406648" fill="none" id="id61" stroke="none" /><text fill="#e1ed5e" style="font-size:6.75px; font-family:Arial;" text-anchor="middle"><textPath startOffset="22.145653131862478" xlink:href="#id61">January</textPath></text><path d="M 104.29559338865022 79.4440306129975 l 2.1955255097545554 -10.506384353356841 a31.733333333333334,31.733333333333334 0 0,0 0.5322701259977529,0.1160057965979361 l -2.3755580523714426 10.467147098625187" fill="#ff6008" stroke="none" /><path d="M 106.72888874123014 80.10723608172694 l 3.4188192291300585 -10.107131566556918 a31.66969696969697,31.66969696969697 0 0,0 0.5134928104411997,0.17861945472231763 l -3.5918178116162762 10.046953679266009" fill="#ff5f08" stroke="none" /><path d="M 109.06512990194946 81.05736502329252 l 4.679072100905226 -9.777461083936895 a31.83939393939394,31.83939393939394 0 0,0 0.49099339985619933,0.24016947586269805 l -4.846225750023492 9.695697857976976" fill="#ff6209" stroke="none" /><line stroke="#e1ed5e" stroke-width="0.3" x1="143.13028292997686" x2="145.6673583964461" y1="26.7553504044142" y2="22.446841604673864" /><path d="M 143.63769802327073 25.89364864446614 a86.0,86.0 0 0,1 29.32050498858742,28.57503671076993" fill="none" id="id62" stroke="none" /><text fill="#e1ed5e" style="font-size:6.75px; font-family:Arial;" text-anchor="middle"><textPath startOffset="20.669276256404974" xlink:href="#id62">February</textPath></text><path d="M 111.27062007382361 82.28071324371311 l 5.726385754680077 -9.002829533749809 a31.66969696969697,31.66969696969697 0 0,0 0.45621611216190716,0.2957137720566518 l -5.880087499098991 8.903201919989263" fill="#ff5f08" stroke="none" /><path d="M 111.5731344415666 82.4767994020092 l 2.8406784538390757 -4.301149237688651 a26.154545454545456,26.154545454545456 0 0,0 0.37252007755191696,0.2506481332197702 l -2.9140948194879934 4.251751430411762" fill="#ff0d01" stroke="none" /><path d="M 112.16784306229584 82.88440491214696 l 12.610310082742961 -17.73798036377497 a42.763636363636365,42.763636363636365 0 0,0 0.5946568516021018,0.43048570193119334 l -12.912947944719031 17.5188938904707" fill="#fff717" stroke="none" /><path d="M 112.7482090630111 83.31218511350987 l 6.605890150833027 -8.647322259363067 a31.881818181818183,31.881818181818183 0 0,0 0.4320594476901569,0.3359720398120721 l -6.75335954315841 8.532649167930204" fill="#ff6209" stroke="none" /><path d="M 115.41159269507618 85.73525988315684 l 3.502634703426405 -3.241986390191627 a25.772727272727273,25.772727272727273 0 0,0 0.29773918533042304,0.32726752090649375 l -3.5577715895987057 3.181381293727461" fill="#ff0701" stroke="none" /><path d="M 115.6541949942343 86.00192230759917 l 3.462897680542739 -3.096544459228061 a25.645454545454545,25.645454545454545 0 0,0 0.2906349734081459,0.33068924861226356 l -3.515543717909475 3.0366429328045" fill="#ff0500" stroke="none" /><path d="M 117.21940702142032 87.97951657250589 l 3.983074957480055 -2.780495661511265 a25.85757575757576,25.85757575757576 0 0,0 0.25095425335567556,0.3661497555046572 l -4.030218947651056 2.7117111709365593" fill="#ff0801" stroke="none" /><path d="M 117.42321728460499 88.27688183743584 l 8.922799154843164 -6.003657483252555 a31.754545454545454,31.754545454545454 0 0,0 0.3004215302380562,0.45487648699639305 l -9.024545124001945 5.849601117917103" fill="#ff6108" stroke="none" /><path d="M 117.62189284568427 88.57770195909679 l 12.6557230437187 -8.203286774830492 a36.08181818181818,36.08181818181818 0 0,0 0.3324377843882436,0.5226474135066455 l -12.794678519732834 7.984825686645174" fill="#ff9e0e" stroke="none" /><line stroke="#e1ed5e" stroke-width="0.3" x1="172.87174338648825" x2="177.1583165268699" y1="56.24261187166439" y2="53.66864786411523" /><path d="M 173.72905801456457 55.72781907015455 a86.0,86.0 0 0,1 12.242430191666344,42.057860355516425" fill="none" id="id63" stroke="none" /><text fill="#e1ed5e" style="font-size:6.75px; font-family:Arial;" text-anchor="middle"><textPath startOffset="22.145653131862474" xlink:href="#id63">March</textPath></text><path d="M 118.00360718960297 89.18935116829356 l 9.201843674685968 -5.525442736205517 a31.733333333333334,31.733333333333334 0 0,0 0.27642194913723994,0.46942490124529246 l -9.295339333952976 5.366666666666668" fill="#ff6008" stroke="none" /><path d="M 118.36410011445183 89.81374322990088 l 41.217202479103 -22.86248741733358 a68.13333333333333,68.13333333333333 0 0,0 0.5585461990257815,1.0276620958379536 l -41.60359402774412 22.151570488021022" fill="#38ff82" stroke="none" /><path d="M 118.70294669586156 90.45014215332178 l 5.780910796902662 -2.9517742435187238 a27.490909090909092,27.490909090909092 0 0,0 0.21099938634099885,0.42214011556745396 l -5.830730096455397 2.852102271787519" fill="#ff2103" stroke="none" /><path d="M 118.8641267826498 90.77261029715802 l 4.020536112261728 -1.966645684141067 a25.475757575757576,25.475757575757576 0 0,0 0.18878839514156134,0.39449513638364714 l -4.053703765363202 1.8973380456923166" fill="#ff0300" stroke="none" /><path d="M 119.0197475246899 91.09779779509293 l 9.663568691837396 -4.523038089967939 a31.66969696969697,31.66969696969697 0 0,0 0.22623554946606894,0.4943655045994712 l -9.739788706158516 4.356483603153784" fill="#ff5f08" stroke="none" /><path d="M 119.16976305983485 91.42560881287824 l 19.460214015286887 -8.704306205108452 a42.31818181818181,42.31818181818181 0 0,0 0.29091960139004464,0.6656809806032126 l -19.606767498693902 8.36896315472939" fill="#fff216" stroke="none" /><path d="M 119.4528033332814 92.08871423366111 l 9.88359603701065 -4.019572465119658 a31.66969696969697,31.66969696969697 0 0,0 0.20048626088442045,0.5053563447476233 l -9.951140972861195 3.849315103158469" fill="#ff5f08" stroke="none" /><path d="M 119.58574465831526 92.42381321644754 l 4.431522023699616 -1.7142079187027766 a25.75151515151515,25.75151515151515 0 0,0 0.15594297964572634,0.4136572806508005 l -4.460295687159783 1.6378823578578183" fill="#ff0701" stroke="none" /><path d="M 119.71291397450082 92.76114493625339 l 5.017832648054755 -1.8426176525900457 a26.345454545454544,26.345454545454544 0 0,0 0.1522514230357803,0.42587432744939524 l -5.048724241134479 1.7562083687597336" fill="#ff1001" stroke="none" /><path d="M 119.94978838288452 93.4421083053983 l 4.675101924069908 -1.5367988617652444 a25.921212121212122,25.921212121212122 0 0,0 0.13532759325271893,0.4239117584132576 l -4.700794233099884 1.4563180696605997" fill="#ff0901" stroke="none" /><path d="M 120.05942366710727 93.78553927170692 l 38.76129037896585 -12.008346841641064 a61.57878787878788,61.57878787878788 0 0,0 0.3041513565954241,1.012420946238515 l -38.96171805556491 11.341188291811825" fill="#30ff32" stroke="none" /><path d="M 120.35273937422433 94.82641323984039 l 4.933997424054381 -1.2542028509477843 a26.09090909090909,26.09090909090909 0 0,0 0.10661549735854729,0.4350276118505487 l -4.95480044792922 1.1693194144891406" fill="#ff0c01" stroke="none" /><path d="M 120.51834098615036 95.52812308129327 l 6.652916622782088 -1.449972213035213 a27.80909090909091,27.80909090909091 0 0,0 0.09765266778712638,0.46730336602508565 l -6.6768270013935815 1.335552395724723" fill="#ff2603" stroke="none" /><path d="M 120.592083275326 95.88100663000786 l 14.622459133893111 -2.9249013526307803 a35.912121212121214,35.912121212121214 0 0,0 0.115728875925564,0.6055423812107056 l -14.670514302100832 2.67345640638676" fill="#ff9c0e" stroke="none" /><path d="M 120.7213421655516 96.59031103205396 l 44.28925254778505 -7.287779652700836 a65.88484848484848,65.88484848484848 0 0,0 0.17405681355408917,1.1175696029504478 l -44.4078308534774 6.5264218678189465" fill="#35ff67" stroke="none" /><path d="M 120.77682067341334 96.94652285012252 l 14.417854346095924 -2.1189280827937695 a35.57272727272727,35.57272727272727 0 0,0 0.08360519771404906,0.6049255627762186 l -14.452104060365185 1.8711142118174655" fill="#ff970d" stroke="none" /><path d="M 120.93736805541906 98.37931529534042 l 4.631599600138155 -0.35851510133378517 a25.645454545454545,25.645454545454545 0 0,0 0.030207950455995055,0.4392169698963737 l -4.637071511759216 0.27895470728307725" fill="#ff0500" stroke="none" /><path d="M 120.98066250479742 99.09900007780936 l 10.744642313062922 -0.4614211722733893 a31.754545454545454,31.754545454545454 0 0,0 0.018712973298705398,0.5448077999469823 l -10.750979973358476 0.2769071077622871" fill="#ff6108" stroke="none" /><line stroke="#e1ed5e" stroke-width="0.3" x1="184.99686870605535" x2="189.99668451229388" y1="99.2704041080226" y2="99.22748670261217" /><path d="M 185.99683186730306 99.26182062694052 a86.0,86.0 0 0,1 -10.086455211305974,41.156179273409016" fill="none" id="id64" stroke="none" /><text fill="#e1ed5e" style="font-size:6.75px; font-family:Arial;" text-anchor="middle"><textPath startOffset="21.40746469413373" xlink:href="#id64">April</textPath></text><path d="M 120.99922638620191 99.81974689727618 l 21.25376246361041 -0.18243798881745027 a42.25454545454545,42.25454545454545 0 0,0 0.0,0.7253821830825518 l -21.25376246361041 -0.1824379888174477" fill="#fff116" stroke="none" /><path d="M 120.99303781780057 100.54070618675476 l 10.666159618539083 0.2747224363006481 a31.66969696969697,31.66969696969697 0 0,0 -0.018662972034049714,0.5433520676826088 l -10.659871959508187 -0.45778076854736766" fill="#ff5f08" stroke="none" /><path d="M 120.98066250479742 100.90099992219065 l 11.147301492447921 0.47871308997199863 a32.157575757575756,32.157575757575756 0 0,0 -0.028418737761450333,0.5513159204453296 l -11.137441165229898 -0.6700008037940589" fill="#ff6609" stroke="none" /><path d="M 120.96210409425399 101.26102812881392 l 5.314634472381568 0.31971521245686085 a26.324242424242424,26.324242424242424 0 0,0 -0.03100749918601312,0.4508422329539997 l -5.308363012030489 -0.41090086956520405" fill="#ff1001" stroke="none" /><path d="M 120.93736805541906 101.62068470465957 l 5.075725589192499 0.3928932617356532 a26.09090909090909,26.09090909090909 0 0,0 -0.03839883240583719,0.44625263810903176 l -5.068233134088921 -0.47996694722034233" fill="#ff0c01" stroke="none" /><path d="M 120.86939407059847 102.33845913500097 l 4.658723322830567 0.5220196654901179 a25.687878787878788,25.687878787878788 0 0,0 -0.05286554902984577,0.43780258307651737 l -4.649075687541057 -0.6019159254900439" fill="#ff0601" stroke="none" /><path d="M 120.7213421655516 103.40968896794604 l 4.66753464941213 0.7680410503555215 a25.73030303030303,25.73030303030303 0 0,0 -0.07545740038577754,0.43521823340134014 l -4.653662431534118 -0.8480523166774496" fill="#ff0701" stroke="none" /><path d="M 120.65975698304385 103.76489593502545 l 4.3406358105789105 0.791008438874034 a25.412121212121214,25.412121212121214 0 0,0 -0.08189202206663963,0.42849366372736286 l -4.326417496230111 -0.8654046676347114" fill="#ff0200" stroke="none" /><path d="M 119.83427380445688 106.89939002012753 l 6.030420621355072 2.097693329351905 a27.384848484848483,27.384848484848483 0 0,0 -0.15825812169017098,0.44267613263861655 l -5.993522329620958 -2.200904418371443" fill="#ff2003" stroke="none" /><path d="M 119.58574465831526 107.57618678355244 l 9.931357392398247 3.8416623892356863 a31.64848484848485,31.64848484848485 0 0,0 -0.20035197671771954,0.5050178609266286 l -9.863946740714404 -4.011581267375879" fill="#ff5f08" stroke="none" /><path d="M 119.4528033332814 107.91128576633889 l 11.84852566663503 4.81869223949732 a33.79090909090909,33.79090909090909 0 0,0 -0.22313932288220054,0.5354531438990348 l -11.764060499216344 -5.0213778928376325" fill="#ff7e0b" stroke="none" /><line stroke="#e1ed5e" stroke-width="0.3" x1="174.33088141563837" x2="178.70328620479359" y1="141.23008692659167" y2="143.65538615756765" /><path d="M 175.20536237346943 141.71514677278685 a86.0,86.0 0 0,1 -30.301960400862466,31.631185727798858" fill="none" id="id65" stroke="none" /><text fill="#e1ed5e" style="font-size:6.75px; font-family:Arial;" text-anchor="middle"><textPath startOffset="22.145653131862474" xlink:href="#id65">May</textPath></text><path d="M 118.36410011445183 110.18625677009912 l 9.348996421902752 5.185730719323187 a31.69090909090909,31.69090909090909 0 0,0 -0.2679641946041018,0.473467056032233 l -9.258598862277273 -5.345454545454543" fill="#ff6008" stroke="none" /><path d="M 117.81537515405839 111.11811171558189 l 9.069645532975176 5.660129600659871 a31.69090909090909,31.69090909090909 0 0,0 -0.29198239263729336,0.45904481821218596 l -8.971145448711994 -5.8149880935507285" fill="#ff6008" stroke="none" /><path d="M 117.423217284605 111.72311816256416 l 17.634407797145663 11.865216564534629 a42.25454545454545,42.25454545454545 0 0,0 -0.41009095380190086,0.5983349573136083 l -17.428127106528443 -12.16618625691828" fill="#fff116" stroke="none" /><path d="M 117.21940702142032 112.02048342749411 l 8.80103025539261 6.143802640719214 a31.733333333333334,31.733333333333334 0 0,0 -0.3156482955547261,0.44399885741674955 l -8.694266861307922 -6.293978724845466" fill="#ff6008" stroke="none" /><path d="M 117.01052211995028 112.31430620078461 l 36.28911385589393 26.270519895007162 a65.8,65.8 0 0,0 -0.6702136719706719,0.9092735642908509 l -35.83279816433943 -26.88959976856689" fill="#35ff66" stroke="none" /><path d="M 116.57777611688842 112.89097897827486 l 8.406104657250488 6.536637825347451 a31.64848484848485,31.64848484848485 0 0,0 -0.33718230856847475,0.426018831999286 l -8.292655918040452 -6.679976601261419" fill="#ff5f08" stroke="none" /><path d="M 116.35404254752997 113.17365903436017 l 24.861448519224858 20.026623077486924 a52.92424242424242,52.92424242424242 0 0,0 -0.5760001878784082,0.7026265728911719 l -24.51400151210782 -20.45045193207659" fill="#8bff24" stroke="none" /><path d="M 116.1254893667686 113.45245675266167 l 8.176763295068524 6.821346757410264 a31.64848484848485,31.64848484848485 0 0,0 -0.3516077891387729,0.41419309150026407 l -8.058460942422636 -6.960706631360085" fill="#ff5f08" stroke="none" /><path d="M 115.89218393027572 113.72728997021213 l 16.084816462763904 13.893681363790447 a42.25454545454545,42.25454545454545 0 0,0 -0.47886258645908847,0.5448577197978828 l -15.84394281234623 -14.167751361399622" fill="#fff116" stroke="none" /><path d="M 115.6541949942343 113.99807769240083 l 17.599110129881595 15.737232799638507 a44.60909090909091,44.60909090909091 0 0,0 -0.515346096090431,0.5664556349517337 l -17.326366332949284 -16.037026010147912" fill="#efff19" stroke="none" /><path d="M 115.41159269507618 114.26474011684316 l 10.897085743993257 10.086179880596168 a35.848484848484844,35.848484848484844 0 0,0 -0.421892566652243,0.4480352855492927 l -10.722337343604753 -10.271756626089958" fill="#ff9b0e" stroke="none" /><path d="M 115.16444852881244 114.52719865689866 l 15.348260026131378 14.703285913345912 a42.25454545454545,42.25454545454545 0 0,0 -0.5062762546541335,0.5194840377788558 l -15.093596970326438 -14.964592643192505" fill="#fff116" stroke="none" /><path d="M 114.91283532996324 114.78537596483092 l 15.10866044035671 14.979527366389311 a42.27575757575758,42.27575757575758 0 0,0 -0.51537788200099,0.5109729693073507 l -14.849290638225755 -15.236680345925324" fill="#fff116" stroke="none" /><path d="M 114.13192950727249 115.5334660781643 l 5.809793241878691 6.385980498800879 a29.633333333333333,29.633333333333333 0 0,0 -0.37921490659367785,0.33909630783122063 l -5.699313308461636 -6.484772336515486" fill="#ff4106" stroke="none" /><path d="M 113.86319453409587 115.77377054828091 l 7.155648895881809 8.141814899163178 a31.83939393939394,31.83939393939394 0 0,0 -0.4136400008848018,0.3572923809802614 l -7.014829415234151 -8.263451412608157" fill="#ff6209" stroke="none" /><path d="M 113.59037401385872 116.0094264158162 l 6.891280560562708 8.117911172464373 a31.64848484848485,31.64848484848485 0 0,0 -0.4171958519499521,0.3480396177813027 l -6.750910374450861 -8.235012974157547" fill="#ff5f08" stroke="none" /><path d="M 112.7482090630111 116.68781488649013 l 10.32733703892415 13.518815695924328 a38.012121212121215,38.012121212121215 0 0,0 -0.5219372160322291,0.3916714173160458 l -10.093746833981154 -13.69410614050439" fill="#ffb811" stroke="none" /><path d="M 111.27062007382361 117.71928675628689 l 11.430002579918087 17.969862528598025 a42.2969696969697,42.2969696969697 0 0,0 -0.6159966941346551,0.3844274960585393 l -11.119841756993717 -18.163425821498112" fill="#fff116" stroke="none" /><line stroke="#e1ed5e" stroke-width="0.3" x1="143.1302829299769" x2="145.66735839644613" y1="173.24464959558577" y2="177.55315839532614" /><path d="M 143.63769802327073 174.10635135553383 a86.0,86.0 0 0,1 -40.68552437913181,11.842963189579606" fill="none" id="id66" stroke="none" /><text fill="#e1ed5e" style="font-size:6.75px; font-family:Arial;" text-anchor="middle"><textPath startOffset="21.407464694133747" xlink:href="#id66">June</textPath></text><path d="M 110.65571695917076 118.09573695890943 l 10.924800720765983 18.552700013427344 a42.53030303030303,42.53030303030303 0 0,0 -0.6322990928685868,0.36505805147603615 l -10.604709160036998 -18.73750496217955" fill="#fff417" stroke="none" /><path d="M 110.02825361518725 118.45085714620011 l 10.170067302674752 18.711778358368598 a42.2969696969697,42.2969696969697 0 0,0 -0.6409223245672847,0.3412550377385843 l -9.847356162320914 -18.88360386382975" fill="#fff116" stroke="none" /><path d="M 109.71004243097381 118.62028667847754 l 10.259297356362227 19.673555419886373 a43.18787878787879,43.18787878787879 0 0,0 -0.660307249081966,0.3371575862566721 l -9.920062885566677 -19.84677095781588" fill="#fffd17" stroke="none" /><path d="M 109.06512990194946 118.94263497670748 l 12.56298810654006 26.25181332125522 a50.1030303030303,50.1030303030303 0 0,0 -0.7790097553893962,0.36461590003070676 l -12.110489637279157 -26.46360545285646" fill="#acff21" stroke="none" /><path d="M 108.4095320186766 119.2426549942271 l 6.014089564871745 13.761413874659379 a36.018181818181816,36.018181818181816 0 0,0 -0.5686840831925332,0.24273741906902238 l -5.776970406508781 -13.862625943387805" fill="#ff9d0e" stroke="none" /><path d="M 108.07796709384702 119.3841803445677 l 8.175881846499715 19.619140106320028 a42.25454545454545,42.25454545454545 0 0,0 -0.6719389023319613,0.27327170191318356 l -7.837888482977313 -19.7565990648125" fill="#fff116" stroke="none" /><path d="M 107.407793817531 119.65005319985036 l 4.369850090341517 11.591546534053146 a33.38787878787879,33.38787878787879 0 0,0 -0.5380390659559637,0.19757539763663814 l -4.170221872731426 -11.664852780698507" fill="#ff780b" stroke="none" /><path d="M 106.38641147887787 120.00534299687104 l 2.5803682742940923 8.08296686742264 a29.484848484848484,29.484848484848484 0 0,0 -0.4834944649580224,0.149787821160368 l -2.4412331764644453 -8.126071276389652" fill="#ff3f05" stroke="none" /><path d="M 105.69591212413111 120.21278271476187 l 3.5671368858194836 12.65851038702259 a34.151515151515156,34.151515151515156 0 0,0 -0.5656443883789303,0.1541688933615468 l -3.3493110965058586 -12.717879774528278" fill="#ff830c" stroke="none" /><path d="M 105.3480935250658 120.30758222061773 l 1.0966292783720788 4.164079990692321 a25.306060606060605,25.306060606060605 0 0,0 -0.421038267860708,0.10702628123285139 l -1.0249857172859733 -4.1822915037604425" fill="#ff0000" stroke="none" /><path d="M 104.9986988182912 120.39639698878246 l 2.8477435692083204 11.619765557245762 a32.96363636363636,32.96363636363636 0 0,0 -0.550756195038614,0.12997696239774353 l -2.6478552204298276 -11.66693866328973" fill="#ff720a" stroke="none" /><path d="M 103.94208987418118 120.62667999033965 l 2.5086026472062017 13.126069084761593 a34.36363636363636,34.36363636363636 0 0,0 -0.58036134509827,0.10576116993049588 l -2.2829065685568746 -13.167198428623452" fill="#ff860c" stroke="none" /><path d="M 103.58742460773223 120.69131181640829 l 3.634532203591344 20.96301591096719 a42.27575757575758,42.27575757575758 0 0,0 -0.7161160973891182,0.11783663131124072 l -3.274138603149153 -21.0223185407741" fill="#fff116" stroke="none" /><path d="M 101.44090949804482 120.95050786540614 l 0.8761894119424032 12.739601752499484 a33.769696969696966,33.769696969696966 0 0,0 -0.5786769610152681,0.03481176899302095 l -0.65736809879467 -12.752765499317196" fill="#ff7e0b" stroke="none" /><path d="M 100.72087961077811 120.9876233191556 l 0.5832571396295625 16.980895230953177 a37.99090909090909,37.99090909090909 0 0,0 -0.651972277272018,0.01679249315764568 l -0.2916715482868007 -16.988405441460866" fill="#ffb811" stroke="none" /><line stroke="#e1ed5e" stroke-width="0.3" x1="101.45913802915013" x2="101.54496967792366" y1="184.9874750549273" y2="189.98673829345242" /><path d="M 101.47630435890484 185.9873277026323 a86.0,86.0 0 0,1 -42.54439059252881,-10.42667462771756" fill="none" id="id67" stroke="none" /><text fill="#e1ed5e" style="font-size:6.75px; font-family:Arial;" text-anchor="middle"><textPath startOffset="22.145653131862474" xlink:href="#id67">July</textPath></text><path d="M 99.63950707515114 120.99690560180557 l -0.41729787058260776 24.30550890875675 a45.30909090909091,45.30909090909091 0 0,0 -0.7775615769140314,-0.02002722802050372 l 0.834472761567383 -24.294763963386195" fill="#e6ff1a" stroke="none" /><path d="M 98.91894614982273 120.97215588758144 l -1.644512220572691 31.90309774413904 a52.945454545454545,52.945454545454545 0 0,0 -0.9072724212903172,-0.05457925590865597 l 2.1919289939954543 -31.870166510405692" fill="#8bff24" stroke="none" /><path d="M 98.55909050195518 120.95050786540614 l -1.10906367425268 16.12554241761563 a37.163636363636364,37.163636363636364 0 0,0 -0.6360839607614004,-0.04923692143905657 l 1.3857166297893166 -16.10412772918152" fill="#ffad10" stroke="none" /><path d="M 97.48249496171623 120.84855314841334 l -1.7800540674733722 14.741401216049832 a35.848484848484844,35.848484848484844 0 0,0 -0.6103156373783415,-0.07901757820336264 l 2.0328475267425077 -14.708672041646073" fill="#ff9b0e" stroke="none" /><path d="M 95.35216902796893 120.47920084513623 l -2.3473893798136745 10.343030729866785 a31.606060606060606,31.606060606060606 0 0,0 -0.5280738292197646,-0.1246239858253748 l 2.524595362773327 -10.301210600395182" fill="#ff5e08" stroke="none" /><path d="M 95.00130118170881 120.39639698878247 l -1.5147572176639963 6.180726360237109 a27.363636363636363,27.363636363636363 0 0,0 -0.45527189064571866,-0.11572833427526336 l 1.6206344015350935 -6.153812794126583" fill="#ff1f03" stroke="none" /><path d="M 94.6519064749342 120.30758222061772 l -2.701057335891823 10.256354656877638 a31.606060606060606,31.606060606060606 0 0,0 -0.5234845581891963,-0.1426780441668938 l 2.876723295015714 -10.208476118566601" fill="#ff5e08" stroke="none" /><path d="M 94.30408787586889 120.21278271476187 l -2.876723295015714 10.208476118566601 a31.606060606060606,31.606060606060606 0 0,0 -0.5209581631832383,-0.15164332877702147 l 3.0515414705805592 -10.157589095487063" fill="#ff5e08" stroke="none" /><path d="M 93.61358852112213 120.00534299687104 l -1.3611442646901328 4.263765022565443 a25.475757575757576,25.475757575757576 0 0,0 -0.4154698909950101,-0.13657320545067891 l 1.4341368933328866 -4.239770895712743" fill="#ff0300" stroke="none" /><path d="M 93.27111125876986 119.89276391827306 l -20.18666622369039 59.67829175481917 a84.0,84.0 0 0,0 -1.3619769118199128,-0.4737662697256382 l 21.208148907555326 -59.32296705252494" fill="#4dd2ff" stroke="none" /><path d="M 91.92203290615298 119.3841803445677 l -2.0480502429854566 4.914575016653022 a26.324242424242424,26.324242424242424 0 0,0 -0.4156283552661565,-0.1774070300734139 l 2.1321136734220443 -4.878693336920205" fill="#ff1001" stroke="none" /><path d="M 91.26138138417905 119.09545874513695 l -9.727230014782517 21.255753067819118 a44.375757575757575,44.375757575757575 0 0,0 -0.6899612228089325,-0.3229366904590489 l 10.090679951462938 -21.08564014578954" fill="#f2ff19" stroke="none" /><path d="M 90.93487009805054 118.94263497670748 l -5.750405634771983 12.016136126638687 a34.32121212121212,34.32121212121212 0 0,0 -0.5292653703979512,-0.2588902144875719 l 5.955831254432003 -11.915652162053894" fill="#ff850c" stroke="none" /><path d="M 90.6110303473126 118.78422872680471 l -3.793523091994907 7.589587364365537 a29.484848484848484,29.484848484848484 0 0,0 -0.45079915335163695,-0.23018125977248244 l 3.923249467060126 -7.523348152920218" fill="#ff3f05" stroke="none" /><path d="M 89.97174638481275 118.45085714620012 l -5.368661026312366 9.877731603521273 a32.24242424242424,32.24242424242424 0 0,0 -0.4840291252552768,-0.2684827965066813 l 5.537434339723745 -9.784115891581443" fill="#ff6809" stroke="none" /><line stroke="#e1ed5e" stroke-width="0.3" x1="58.13341422392154" x2="55.67067388415222" y1="173.97424548756322" y2="178.32567169271397" /><path d="M 57.64086615596768 174.84453072859336 a86.0,86.0 0 0,1 -31.369924170532247,-30.572349798747897" fill="none" id="id68" stroke="none" /><text fill="#e1ed5e" style="font-size:6.75px; font-family:Arial;" text-anchor="middle"><textPath startOffset="22.145653131862474" xlink:href="#id68">August</textPath></text><path d="M 89.65649057296885 118.27599006163327 l -6.2687935921400895 11.076357613111067 a33.72727272727273,33.72727272727273 0 0,0 -0.5014242182848125,-0.2894974074049364 l 6.458010278285301 -10.96711330842996" fill="#ff7d0b" stroke="none" /><path d="M 89.34428304082925 118.09573695890944 l -4.3053401855235345 7.3114088722866395 a29.484848484848484,29.484848484848484 0 0,0 -0.43394289735876374,-0.2605702416717909 l 4.430215839439725 -7.23642463007893" fill="#ff3f05" stroke="none" /><path d="M 88.72937992617639 117.7192867562869 l -11.418618115197052 17.95196425914724 a42.27575757575758,42.27575757575758 0 0,0 -0.6090011463755352,-0.3947471853375131 l 11.725104893829597 -17.75330323210583" fill="#fff116" stroke="none" /><path d="M 88.1277618465304 117.32195027204791 l -4.796863900391754 6.9987677866860265 a29.484848484848484,29.484848484848484 0 0,0 -0.4150412356247132,-0.2897310161927986 l 4.916300227190233 -6.915391954688099" fill="#ff3f05" stroke="none" /><line stroke="#e1ed5e" stroke-width="0.3" x1="26.387840678322732" x2="22.057713659400548" y1="142.50000000000003" y2="145.00000000000006" /><path d="M 25.521815274538298 143.00000000000003 a86.0,86.0 0 0,1 -11.493303480769221,-40.785679425670985" fill="none" id="id69" stroke="none" /><text fill="#e1ed5e" style="font-size:6.75px; font-family:Arial;" text-anchor="middle"><textPath startOffset="21.40746469413373" xlink:href="#id69">September</textPath></text><line stroke="#e1ed5e" stroke-width="0.3" x1="15.003131293944662" x2="10.003315487706104" y1="100.72959589197737" y2="100.7725132973878" /><path d="M 14.003168132696942 100.73817937305945 a86.0,86.0 0 0,1 10.791469493833604,-42.45332614584628" fill="none" id="id70" stroke="none" /><text fill="#e1ed5e" style="font-size:6.75px; font-family:Arial;" text-anchor="middle"><textPath startOffset="22.145653131862435" xlink:href="#id70">October</textPath></text><line stroke="#e1ed5e" stroke-width="0.3" x1="26.387840678322718" x2="22.05771365940052" y1="57.49999999999999" y2="54.99999999999999" /><path d="M 25.521815274538284 56.99999999999999 a86.0,86.0 0 0,1 29.574782752854787,-30.34633250058573" fill="none" id="id71" stroke="none" /><text fill="#e1ed5e" style="font-size:6.75px; font-family:Arial;" text-anchor="middle"><textPath startOffset="21.40746469413373" xlink:href="#id71">November</textPath></text><line stroke="#e1ed5e" stroke-width="0.3" x1="56.869717070023135" x2="54.33264160355391" y1="26.7553504044142" y2="22.446841604673864" /><path d="M 56.362301976729285 25.89364864446614 a86.0,86.0 0 0,1 42.16139366436587,-11.88097634709845" fill="none" id="id72" stroke="none" /><text fill="#e1ed5e" style="font-size:6.75px; font-family:Arial;" text-anchor="middle"><textPath startOffset="22.145653131862474" xlink:href="#id72">December</textPath></text></svg>